
<svg xmlns="http://www.w3.org/2000/svg" version="1.1" id="Layer_1" x="0" y="0" viewBox="0 116.5 500 278.5" enable-background="new 0 116.5 500 278.5" xml:space="preserve"><path fill="#3A3A3A" d="M327.7 256.2c-0.3-6.9-0.3-13.8 0-20.7 0.9-0.5 1-0.9 0-1.4 -0.1-1.2 0.7-2 1.2-2.9 13.3-22.9 26.6-45.8 39.8-68.8 1.2-2.1 2.5-2.8 4.8-2.8 12.1 0.1 24.2 0.1 36.4 0 2.5 0 3.1 0.6 3.1 3.1 -0.1 21.8 0 43.5-0.1 65.3 0 2.7 0.4 4 3.4 3.6 2.5-0.3 5.2 0 7.8-0.1 1.6-0.1 2.3 0.3 2.3 2.1 -0.1 7.3-0.1 14.5 0 21.8 0 1.7-0.5 2.3-2.2 2.2 -2.9-0.1-5.8 0.1-8.8-0.1 -2-0.1-2.5 0.6-2.5 2.5 0.1 7.6-0.1 15.1 0.1 22.7 0.1 2.3-0.6 2.9-2.9 2.9 -8.6-0.1-17.3-0.1-26 0 -2.3 0.1-3.2-0.5-3.1-3 0.2-7.3 0-14.7 0.1-22.1 0.1-2.4-0.5-3.1-3.1-3.1 -15.7 0.1-31.4 0.1-47.1 0 -1.1 0-2.4 0.6-3.3-0.6C328.3 256.6 328.2 256.3 327.7 256.2zM381.7 187.1c-6.1 15.2-13.4 28.8-20.8 42.3 -1 1.8-0.5 2.1 1.4 2.1 5.4-0.1 10.8-0.1 16.2 0 2.3 0.1 2.6-0.8 2.6-2.8 -0.1-10.4-0.1-20.7 0.6-31C381.9 194.5 381.7 191.3 381.7 187.1z"/><path fill="#393939" d="M143.5 180.8c0.4-0.3 0.8-0.5 1.2-0.8 0.6 1 1.4 0.7 2.2 0.5 14.7-4.4 29.9-5.8 45.2-5.5 5.3 0.1 5.5 0.1 6.6 5.6 0.1 15.8 0.2 31.7 0.1 47.5 0 3 0.8 3.7 3.6 3.4 3.1-0.3 6.2-0.1 9.4-0.1 0.3 1.3 0.5 2.5 0.7 3.8 0 6.5-0.1 13-0.1 19.5 0 2.1-0.5 2.9-2.7 2.7 -2.6-0.2-5.2 0.1-7.8-0.1 -2.7-0.3-3.2 0.8-3.1 3.3 0.1 7.3-0.1 14.5 0.1 21.8 0.1 2.7-0.8 3.2-3.2 3.1 -8.6-0.1-17.1-0.1-25.6 0 -2.3 0.1-3.2-0.5-3.1-3 0.2-7-0.1-14.1 0.1-21.1 0.1-3.1-0.5-4.2-4-4.1 -15.5 0.3-30.9 0-46.4 0.2 -2.8 0-3.5-0.8-3.3-3.4 0.3-3.1 0.3-6.3 0-9.4 -0.9-7.8 1.5-14.4 5.6-21 8.4-13.7 16.3-27.8 24.4-41.7C143.4 181.7 143.4 181.3 143.5 180.8zM168.1 188.2c-0.3-0.1-0.5-0.2-0.8-0.3 -6 14.9-13.6 29-21.6 43.5 6.6 0 12.6-0.1 18.6 0.1 2.1 0.1 2.7-0.5 2.7-2.7 -0.2-10.4-0.1-20.7 0.5-31.1C167.7 194.6 167.9 191.5 168.1 188.2z"/><path fill="#3A3A3A" d="M303.9 173.8c6.5 8.1 9.7 17.6 11.3 27.6 3.1 19.5 2.8 38.8-4.5 57.5 -8.2 20.8-26 31.7-47.7 28.5 -1-0.1-2.1-0.1-3.2-0.1 -1.3-1.8-2.6-3.7-4-5.5 -0.8-1-0.8-1.9 0.2-2.8 4.9-4.2 9.4-8.8 14.5-12.7 0.3 1.2-0.5 2.9 1 3.5 1.6 0.7 2.6-0.6 3.7-1.5 0.3-0.3 0.6-0.6 0.9-0.9 1.4-1.6 2.3-0.6 2.9 0.6 1.2 2.3-0.3 3.6-2 4.7 -1.2 0.8-1.9 1.8-1.2 3.3 0.6 1.2 1.8 1.6 3 1.3 5.8-1.4 9.8-5.1 12.5-10.3 0.7-1.4 0.5-2.9-0.1-4.4 -0.8-2.3-2.3-4.2-3.8-6 -0.6-0.7-1.4-1.4-1.5-2.5 -0.6-5.5-1.3-10.9-2-16.4v-0.1c0.4-0.3 0.5-0.7 0.3-1.2 0.9-9.5 0.5-19.2 0.3-28.7 0.6-2.3 3.3-1.5 4.4-2.9 3.1-4 6.7-7.5 10.1-11.2 1-1 1.2-2.8 3-3.1 0.8-0.1 0.7-1 0.8-1.6C303.3 184.3 304.3 179.1 303.9 173.8z"/><path fill="#603A16" d="M303.9 173.8c0.4 5.3-0.6 10.5-1.3 15.6 -0.1 0.6 0 1.5-0.8 1.6 -1.9 0.3-2 2-3 3.1 -3.4 3.6-7.1 7.2-10.1 11.2 -1 1.4-3.8 0.6-4.4 2.9 -2.1-0.3-4.3-0.8-6.4 0 2.2-3.6 4.4-7.3 2.4-11.8 -0.8-1.8 1-1.5 1.8-1.9 3.1-1.4 4.6-4.4 4.3-8.3 -0.3-3.6-2.8-7.1-6-7.7 -3.4-0.7-5.8 0.9-7.5 3.9 -0.1 0.1-0.4 0.1-0.7 0.1 -1.2-3.4-2.4-6.9-3.6-10.4 -0.5-1.3-1-1.9-2.5-1.8 -3.8 0.5-6.9-1.2-9.6-3.8 -1.3-1.2-2.4-3.4-3.9-3.7 -1.8-0.3-2.8 2.3-4.5 3.3 -0.1 0.1-0.4-0.1-0.7-0.1 -0.3-1.6-0.8-3.1-1-4.7 -0.3-1.8-1-2-2.6-1.2 -3.4 1.8-6.9 3.2-10.3 4.9 -1.8 0.9-2.9 1.1-2.5-1.9 -1.4 1.3-2.3 2.2-3.2 3.1 -0.9 0.8-2.3 2.3-2.6 2.1 -2.3-1.6-2.2 0.9-3.1 1.6 -1.7 1.9-2.2 0.1-2.5-1 -0.7-2.1-0.1-4 0.8-5.9 0.5-1 1.1-2.1 1.8-3.3 -2.1-0.6-4-1.1-5.3-2.9 -1-1.5-1-2.3 1.1-2.3 3-0.1 6-0.3 9-1.6 -0.6-0.8-1.4-1.4-1.8-2.2 -0.3-0.5-0.5-1.6 0.5-1.4 2.4 0.3 3.3-1.8 4.7-2.9 14.5-12.1 39.9-12.4 56.4-0.7 0.8 0.6 1.6 1.2 2.5 1.8 0.9-1 0.6-3.2 2.7-2.7 1.8 0.5 1.8 1.9 1.8 3.4 0.1 1.2 0.8 0.9 1.6 0.8 1-0.1 2 0 2.3 1.2 0.3 1-0.3 1.8-1.1 2.1 -1.4 0.6-1.4 1.2-0.5 2.3C301 160.1 302.9 166.8 303.9 173.8z"/><path fill="#E7BD9A" d="M222.2 169.8c0.9-0.7 0.7-3.3 3.1-1.6 0.3 0.2 1.8-1.4 2.6-2.1 1-0.8 1.9-1.8 3.2-3.1 -0.3 3.1 0.7 2.9 2.5 1.9 3.4-1.8 6.9-3.2 10.3-4.9 1.6-0.8 2.3-0.5 2.6 1.2 0.3 1.6 0.7 3.2 1 4.7 0.3 0.1 0.6 0.1 0.7 0.1 1.7-0.9 2.7-3.6 4.5-3.3 1.4 0.3 2.5 2.5 3.9 3.7 2.7 2.5 5.8 4.3 9.6 3.8 1.6-0.2 2.1 0.4 2.5 1.8 1.1 3.5 2.3 6.9 3.6 10.4 0.3-0.1 0.6 0 0.7-0.1 1.6-2.9 4-4.5 7.5-3.9 3.1 0.6 5.6 4 6 7.7 0.3 4-1.2 6.9-4.3 8.3 -0.8 0.4-2.6 0.1-1.8 1.9 1.9 4.5-0.2 8.1-2.4 11.8 -2 1.5-4 3.1-6.1 4.5 -2.3 0.4-4.2 1-5.7 3.3 -1.9 3-5.5 2.9-7.6 0.1 -1-1.2-2.1-0.8-3.2-0.8 -5.2-0.8-10.5-1.2-15.6-2.5 -5.7-1.4-10.4-4.2-13.6-9.2 -0.3-0.5-0.9-0.9-1.4-1.4 -2.3-6.5-3.8-13.1-3.3-20.1 0.2-3.1 0.6-6.2 1-9.2C222.6 171.9 223.1 170.8 222.2 169.8z"/><path fill="#092B9E" d="M270.5 266.5c-5.1 3.9-9.7 8.4-14.5 12.7 -1 0.8-1 1.8-0.2 2.8 1.4 1.8 2.7 3.6 4 5.5 1.9 3.2 5.7 5.4 5.9 9.7 -1.8 4.5-4 5.8-9.8 5.9 -1.5-0.4-2.5-1.5-3.4-2.7 -0.5-1.4-1.4-1.9-2.9-1.8 -2.2 0.3-4.4 0.3-6.6 0.4 -0.1-2.5-1.5-4.5-2.8-6.4 -3.1-4.8-6.8-9.2-10.5-13.6 -5.5-6.7-5.3-10.1 0.8-15.9 0.2-0.2 0.4-0.5 0.5-0.8 0.9-0.1 1.5-0.7 2.2-1.2 4.6-3.3 9.3-6.6 13.9-9.9 4.5 5.1 10.4 7 17 7.4 4.9 0.3 9.7-0.8 14.4-1.8 0 1.5-1.4 1.8-2.3 2.4C273.8 261.1 271.6 263.3 270.5 266.5zM249.2 267.4c-0.1-0.2-0.3-0.4-0.4-0.6 -2.1 1.6-4.3 3.1-6.4 4.7 -0.5 0.4-1.4 0.8-1 1.4 0.4 0.7 1.1 1.4 1.8 1.7 0.8 0.4 1-0.5 1.4-1C246.2 271.5 247.7 269.4 249.2 267.4z"/><path fill="#3C3C3C" d="M144.9 179.6c3.5-6.2 7.1-12.4 10.5-18.6 0.6-1.1 1.5-1.4 2.7-1.4 12.9 0 25.8 0.1 38.6 0 1.6 0 2.1 0.5 2.1 2.1 -0.1 4-0.1 8-0.1 12 -7.1 0-14.2 0.1-21.4 0.6 -5.1 0.3-10.1 1-15.1 1.7C156.4 176.7 150.8 178.7 144.9 179.6z"/><path fill="#3A3A3A" d="M247.1 251c-4.6 3.3-9.3 6.6-13.9 9.9 -0.7 0.5-1.3 1.1-2.2 1.2 -2.1-4-3.7-8.1-4.4-12.5 3-0.7 2-2.8 1.6-4.6 -0.7-2.7-2.6-4.9-2.5-7.8 1.6-2.5 3.9-2.7 6.7-2.7 7.3 0.1 14-1.9 19.9-6.5 3-0.3 3 0.9 1.9 3.1C250.9 237.6 248.8 244.2 247.1 251z"/><path fill="#3C3C3C" d="M224.7 202.2c0.5 0.5 1 0.8 1.4 1.4 3.2 5 7.9 7.8 13.6 9.2 5.1 1.3 10.5 1.6 15.6 2.5 -1.5 3.2-4.9 4.7-6.8 7.7 -5.5 2.9-11.1 5.1-17.3 5.5 -0.9 0.1-2.3 0.6-2.7-0.3 -1-2.8-4-3.9-5.4-6.3C223.4 215.2 223.6 208.7 224.7 202.2z"/><path fill="#E3BB9B" d="M223.1 221.8c1.4 2.4 4.3 3.5 5.4 6.3 0.3 0.9 1.8 0.4 2.7 0.3 6.2-0.4 11.9-2.6 17.3-5.5 1 1.9 2 3.8 3.6 5.3 -5.8 4.6-12.5 6.6-19.9 6.5 -2.7-0.1-5.1 0.2-6.7 2.7 -1.9-1.8-2.9-4.1-3.5-6.7 -0.5-2.2-1.5-4.1-4.4-3.6 0.6 1.7 1.3 3.2 1.9 4.8 0.6 1.6 1.2 3.2 1.8 4.9 -3-0.6-6.3 0.8-9-1.3 -0.3-1.3-0.5-2.5-0.7-3.8 -1.2-4.2 2.4-7.7 1.9-11.9 0-0.1 0.5-0.4 0.8-0.5 0.8 1.6 1.6 3.2 2.3 4.8 2.2-0.9 1.9-2.5 1.5-4.1C220.2 219.4 221.2 221.7 223.1 221.8z"/><path fill="#191716" d="M218.1 219.8c0.5 1.6 0.7 3.2-1.5 4.1 -0.8-1.6-1.6-3.2-2.3-4.8 -0.1-0.4-0.1-0.8-0.3-1.2 -4.7-11.9-9.4-23.7-14.2-35.6 -0.3-0.6-0.4-1.5-1.3-1.7 -1.1-5.5-1.2-5.5-6.6-5.6 -15.3-0.3-30.5 1.2-45.2 5.5 -0.9 0.3-1.7 0.5-2.2-0.5 0-0.2 0.1-0.3 0.3-0.5 5.8-0.9 11.5-2.9 17.3-3.6 5-0.6 10-1.4 15.1-1.7 7.1-0.5 14.2-0.5 21.4-0.6 6 14.4 11.9 28.8 18 43.2C217.1 218 217.7 218.9 218.1 219.8z"/><path fill="#E7BD9A" d="M242.9 298.9c2.2-0.1 4.4-0.2 6.6-0.4 1.6-0.2 2.4 0.5 2.9 1.8 -3.3 6-9 9-14.9 11.8 -1.8 0.9-3.5 0.3-4.4-1.4 -1-1.9-2.5-4.2-0.3-6.2C235.8 302 239 299.7 242.9 298.9z"/><path fill="#E7BD9A" d="M255.9 303c5.9-0.1 8-1.3 9.8-5.9 3.9 0.8 4.7 2.1 2.9 5.5 -2.7 4.9-6.6 8.8-11.2 11.9 -1.8 1.2-3.6 1-4.9-0.6 -1.3-1.7-2.8-3.6-1-5.8C252.8 306.3 254.4 304.6 255.9 303z"/><path fill="#191716" d="M69.4 365.8c-0.1 2.1-1.1 3-3.2 4 -3.4 1.6-6.4 4.4-9.5 6.6 -1.7 1.2-3.5 2.2-5.6 2.1 -2.8-0.1-4.7-1.6-5.5-4.2 -0.8-2.5 0.5-4.2 2.5-5.5 1.6-1.1 3.2-2 5.8-2.3 -0.9 1.6-1.6 2.7-2.2 3.8 -0.2 0.3-0.6 1-0.9 0.6 -1.7-2.7-2.3-0.3-3 0.6 -1 1.5-0.5 2.9 0.8 4.1 1.5 1.4 3.3 1.7 5.1 0.7 4-2.1 7.2-5.1 10.8-7.7 0.3-0.2 0.5-0.5 0.5-0.7 -0.1-3.8 2.5-2.9 4.7-2.6l-0.2 0.1L69.4 365.8z"/><path fill="#828282" d="M130.5 347.6c15.5-15.8 20.9-33.3 8.4-53.7C152.7 302.2 147 338.6 130.5 347.6z"/><path fill="#191716" d="M221.4 236.7c-0.6-1.6-1.2-3.2-1.8-4.9 -0.6-1.6-1.2-3.1-1.9-4.8 2.9-0.5 3.9 1.4 4.4 3.6 0.6 2.5 1.6 4.8 3.5 6.7 -0.1 2.9 1.8 5.1 2.5 7.8 0.5 1.8 1.4 3.9-1.6 4.6C224.9 245.4 223.5 240.9 221.4 236.7z"/><path fill="#828282" d="M69.4 365.8l-0.1-0.2 0.2-0.1c3.7-2.6 8.1-3.6 12.3-4.5 7.1-1.7 14.4-2.9 21.6-4.4 0.8-0.2 1.7-0.5 2.3 0.6 -10.2 2.1-20.6 3.4-30.5 6.7C73.2 364.6 71.5 365.8 69.4 365.8z"/><path fill="#828282" d="M103.8 227.3c0.9 5.9 1.4 11.8 3.2 17.6 1.8 5.7 4.6 11 7 16.5C107.1 251.1 103.4 239.8 103.8 227.3z"/><path fill="#828282" d="M104.4 224.1c0.1-6 1.9-11.6 5.3-16.6C107.6 213 105.6 218.4 104.4 224.1z"/><path fill="#828282" d="M115.5 198.3c3.6-4.7 8.4-8.1 13.8-10.8 -4.7 3.4-9.2 7.1-13.2 11.3C115.8 198.7 115.6 198.5 115.5 198.3z"/><path fill="#828282" d="M111.8 355.6c0.3-0.4 0.6-1 1-1.1 5.2-1.2 10.1-3.3 15.1-5.1C123 352.6 117.6 354.6 111.8 355.6L111.8 355.6z"/><path fill="#828282" d="M143.5 180.8c-0.1 0.4-0.1 0.8-0.2 1.2 -4.8 0.8-8.8 3.6-13.4 5C134 184.2 138.4 181.9 143.5 180.8z"/><path fill="#828282" d="M114.7 261.9c2.9 4.1 5.8 8.2 8.7 12.3 -4-3.3-6.8-7.6-9.4-11.9C114.3 262.1 114.5 262 114.7 261.9z"/><path fill="#828282" d="M132.6 285.3c2.4 2.4 4.6 4.9 6.4 7.7 -0.2 0.2-0.4 0.3-0.6 0.5 -2.1-2.6-4.2-5.2-6.3-7.8C132.2 285.6 132.4 285.5 132.6 285.3z"/><path fill="#828282" d="M116 198.8c-1.8 2.6-3.6 5.2-5.5 7.7 -0.2-0.1-0.5-0.3-0.6-0.5 1.5-2.9 3.2-5.5 5.6-7.9C115.6 198.5 115.8 198.7 116 198.8z"/><path fill="#828282" d="M129.6 281.7c1 1.2 2 2.4 3 3.6 -0.2 0.2-0.4 0.3-0.6 0.5 -1-1.2-1.9-2.3-3-3.5C129.3 282.1 129.5 281.9 129.6 281.7z"/><path fill="#828282" d="M126.4 277.8c0.8 1 1.6 1.9 2.3 2.9 -0.2 0.2-0.4 0.4-0.6 0.6 -0.8-1-1.6-1.9-2.3-2.9C126 278.2 126.2 278 126.4 277.8z"/><path fill="#828282" d="M124.9 277.4c-0.6-0.6-1.4-1.2-1.5-2.3 1.4-0.1 1.6 1 2.1 1.8C125.3 277 125.1 277.2 124.9 277.4z"/><path fill="#828282" d="M130.3 348.1c-0.5 0.4-0.8 0.6-1.2 0.8 -0.1 0.1-0.4-0.2-0.6-0.3 0.3-0.3 0.6-0.6 0.9-0.7C129.5 347.8 129.8 348 130.3 348.1z"/><path fill="#828282" d="M111.7 355.6c-0.5 0.3-1 0.7-1.6 0.1C110.7 355.6 111.2 355.6 111.7 355.6 111.8 355.6 111.7 355.6 111.7 355.6z"/><path fill="#828282" d="M128.8 280.7c0.3 0.3 0.6 0.6 0.9 1 -0.2 0.2-0.4 0.4-0.5 0.6 -0.3-0.3-0.6-0.6-0.9-1C128.4 281.1 128.6 280.9 128.8 280.7z"/><path fill="#393939" d="M327.7 234.1c1 0.5 0.9 0.9 0 1.4C327.7 235 327.7 234.5 327.7 234.1z"/><path fill="#828282" d="M125.5 276.8c0.3 0.3 0.6 0.6 0.9 1 -0.2 0.2-0.4 0.4-0.5 0.6 -0.3-0.3-0.6-0.7-0.9-1C125.1 277.2 125.3 277 125.5 276.8z"/><path fill="#393939" d="M327.7 256.2c0.6 0.2 0.7 0.4 0.1 0.7C327.7 256.7 327.7 256.4 327.7 256.2z"/><path fill="#FFFFFF" d="M381.7 187.1c0 4.2 0.2 7.4-0.1 10.6 -0.7 10.3-0.7 20.7-0.6 31 0 1.9-0.3 2.9-2.6 2.8 -5.4-0.2-10.8-0.1-16.2 0 -1.8 0-2.3-0.3-1.4-2.1C368.3 215.9 375.6 202.3 381.7 187.1z"/><path fill="#FFFFFF" d="M198.7 180.6c0.8 0.3 1 1 1.3 1.7 4.7 11.9 9.5 23.7 14.2 35.6 0.1 0.4 0.1 0.8 0.3 1.2 -0.3 0.2-0.8 0.4-0.8 0.5 0.5 4.2-3.1 7.7-1.9 11.9 -3.1 0-6.2-0.2-9.4 0.1 -2.7 0.2-3.6-0.5-3.6-3.4C198.8 212.2 198.7 196.4 198.7 180.6z"/><path fill="#FFFFFF" d="M168.1 188.2c-0.2 3.2-0.3 6.4-0.5 9.5 -0.6 10.3-0.7 20.7-0.5 31.1 0.1 2.1-0.6 2.7-2.7 2.7 -6-0.1-12-0.1-18.6-0.1 7.9-14.5 15.6-28.6 21.6-43.5C167.5 188.1 167.8 188.1 168.1 188.2z"/><path fill="#E3BB9B" d="M270.5 266.5c1-3.2 3.2-5.4 5.8-7.4 0.8-0.7 2.3-0.9 2.3-2.4 1-7 1.2-14-0.7-20.8 -1.2-4.2-1.4-4.1 2.9-5.3 0.5-0.1 1-0.2 1.6-0.3 0.6 2.6 0.3 5.4 1.4 7.9 0.6 5.5 1.4 10.9 2 16.4 0.1 1 0.8 1.7 1.5 2.5 1.6 1.8 3.1 3.6 3.8 6 0.5 1.5 0.8 3 0.1 4.4 -2.7 5.2-6.7 8.8-12.5 10.3 -1.3 0.3-2.4-0.1-3-1.3 -0.7-1.4 0.1-2.5 1.2-3.3 1.8-1.2 3.2-2.5 2-4.7 -0.6-1.3-1.6-2.2-2.9-0.6 -0.3 0.3-0.6 0.6-0.9 0.9 -1.1 0.8-2.1 2.1-3.7 1.5C270 269.3 270.8 267.7 270.5 266.5z"/><path fill="#FFFFFF" d="M283.8 238.1c-1.2-2.5-0.7-5.3-1.4-7.9 0.9-1 0.5-1.9-0.1-2.9 -3.2-5.1-6.2-10.3-10.5-14.6 2-1.5 4-3.1 6.1-4.5 2.1-0.8 4.3-0.3 6.4 0 0.3 9.5 0.6 19.2-0.3 28.7C283.6 237.2 283.6 237.6 283.8 238.1L283.8 238.1z"/><path fill="#E3BB9B" d="M283.8 238c-0.2-0.5-0.2-0.9 0.3-1.2C284.4 237.3 284.3 237.7 283.8 238z"/><path fill="#9BD2E6" d="M271.9 212.6c4.3 4.3 7.2 9.6 10.5 14.6 0.6 1 1 1.9 0.1 2.9 -0.5 0.1-1.1 0.1-1.6 0.3 -4.3 1.2-4.1 1.2-2.9 5.3 1.9 6.9 1.8 13.8 0.7 20.8 -4.7 1-9.5 2-14.4 1.8 -6.6-0.3-12.5-2.3-17-7.4 1.6-6.8 3.7-13.4 6.9-19.7 1.1-2.2 1.1-3.5-1.9-3.1 -1.6-1.5-2.6-3.4-3.6-5.3 1.9-2.9 5.3-4.5 6.8-7.7 1.1 0.1 2.2-0.3 3.2 0.8 2.2 2.7 5.8 2.9 7.6-0.1C267.7 213.6 269.5 213.1 271.9 212.6z"/><path fill="#393939" d="M249.2 267.4c-1.5 2.1-3.1 4.2-4.5 6.2 -0.3 0.5-0.6 1.4-1.4 1 -0.7-0.4-1.5-1-1.8-1.7 -0.3-0.6 0.5-1 1-1.4 2.1-1.6 4.3-3.1 6.4-4.7C249 267 249.1 267.2 249.2 267.4z"/></svg>