
<svg xmlns="http://www.w3.org/2000/svg" version="1.1" id="Layer_1" x="0" y="0" viewBox="0 0 797.9 448.8" enable-background="new 0 0 797.9 448.8" xml:space="preserve"><path fill="#353240" d="M396.9 449.2c-131.4 0-262.9 0-394.3 0 -1.6 0-2.2-0.2-2.2-2.1 0.1-148.3 0.1-296.5 0-444.8 0-1.7 0.4-2 2-2 264.6 0 529.2 0 793.8 0 1.8 0 2.1 0.5 2.1 2.2 0 90.7 0 181.4 0 272.2 -0.2 0.1-0.5 0.2-0.8 0.1 -2-1.2-4.1-0.9-6.2-0.8 -3.1-1.2-5.7-3.4-8.8-4.6 -0.5-0.2-1-0.4-1.5-0.6 -0.7-0.5-1.1-1.1-1.1-2 0.4-1.2 0.8-2.5 0.9-3.8 0.2-2.6-0.7-4.6-3.1-5.7 -1.3-0.6-2.1-1.5-2.2-2.9 -0.2-2.7 0.2-5.3-0.5-8 -1.1-4-3.1-7.3-6.1-10.1 -0.6-0.5-1.2-0.9-1.5-1.7 -0.2-0.7 0.2-1.2 0.5-1.7 1.8-2.8 1.6-4.3-0.8-6.4 -1.2-1.9-1.8-4-1.5-6.3 0.4-2.9-0.1-3.8-2.7-5.3 -1.1-0.6-1.5-1.6-1.4-2.8 0.4-4.3-0.4-8.3-2.2-12.2 -0.3-4.6-0.1-9.3-0.1-13.9 0-9.8-0.1-19.5 0.1-29.3 0-0.2 0.1-0.4 0.1-0.7 0.1-0.5 0.1-1 0-1.5 -0.5-0.9-1-1.8-1.1-2.9 0-0.2 0-0.4 0-0.6 0-0.2 0.1-0.4 0.1-0.6 0.1-0.2 0.2-0.3 0.3-0.5 0.5-0.4 1.3-0.5 1.1-1.4 -0.1-0.8 0.1-1.4 0.4-2.1 0.4-0.5 0.9-0.9 1.5-1 2.1-0.4 2.3-1.8 2.1-3.6 -0.3-2.1-1.1-4-2.5-5.6 -0.7-0.8-1.4-1.6-1.4-2.7 -0.5-3.9-0.3-7.7-0.1-11.6 0.1-0.5 0-1 0.1-1.4 0-0.2 0-0.5 0-0.7 -0.1-0.5 0-0.9 0-1.4 0-0.2 0-0.5-0.1-0.7 -0.2-1.8-0.1-3.7 0-5.5 -0.2-6.2-0.2-12.5 0-18.7 0-0.2 0.1-0.5 0.1-0.7 0-0.2 0-0.5 0-0.7 0-0.4-0.1-0.9 0-1.3 -0.3-2.3-0.9-4.5-1.9-6.6 -0.2-0.6-0.5-1.2-0.8-1.8 -0.2-0.2-0.3-0.4-0.5-0.6 -1-1.5-1.9-1.3-2.9 0.1 -0.1 0.2-0.2 0.3-0.3 0.5 -0.3 0.6-0.7 1.1-0.8 1.8 -0.8 1.2-0.7 3.1-2.3 3.8 -0.4-0.1-0.6-0.4-0.7-0.7 -0.7-2.2-0.3-4.5-0.3-6.7 0.1-3.3-0.4-6.4-1.4-9.5 -0.1-1-0.7-1.7-1-2.7 -0.3-1.1-1.1-2-1.5-3.1 -0.2-0.8-0.8-1.4-1.2-2.2 -1.2-1.6-2.7-2.9-4.1-4.3 -3.3-2.8-3.7-2.6-6.7 0 -1.3 1.1-2.3 2.4-3.6 3.5 -0.2 0.3-0.4 0.6-0.6 0.9 -0.4 0.7-0.9 1.3-1.2 2.1 -0.4 1.1-1.2 2-1.5 3.1 -0.2 0.9-0.9 1.7-1 2.6 -1.3 3.7-1.4 7.5-1.3 11.4 0 1.6 0.2 3.2-0.2 4.7 -0.1 0.2-0.2 0.4-0.3 0.6 -1 0.6-1.3-0.2-1.7-0.8 -0.5-0.8-0.7-1.8-1.2-2.6 -0.2-0.6-0.5-1.2-0.8-1.8 -0.2-0.2-0.3-0.4-0.5-0.7 -0.9-1.5-1.8-1.4-2.6 0 -0.2 0.2-0.4 0.4-0.5 0.6 -0.4 0.5-0.7 1.1-0.8 1.7 -1 2.1-1.6 4.3-1.8 6.6 0 0.4 0 0.9 0 1.3 0 0.2 0 0.5 0 0.7 0 0.2 0.1 0.5 0.1 0.7 0.1 6 0.2 12.1 0 18.1 0 0.2 0 0.5 0 0.7 0.2 1.8 0.2 3.6 0 5.5 0 0.2 0 0.5-0.1 0.7 0 0.5 0 1 0 1.4 0.1 0.6 0 1.2 0 1.8 0.2 4 0.4 8.1-0.2 12.1 -0.1 1-0.8 1.6-1.4 2.3 -1.1 1.2-1.8 2.6-2.2 4.2 -0.8 3.2-0.6 3.8 2.3 5.3 0.4 0.2 0.7 0.4 1 0.8 0.3 0.7 0.5 1.4 0.4 2.1 -0.2 0.9 0.5 1.1 1 1.4 0.1 0.1 0.3 0.3 0.3 0.5 0.1 0.2 0.1 0.4 0.1 0.6 0 0.2 0 0.4 0 0.6 -0.1 1.3-1.1 2.2-1.5 3.4 -0.1 0.4 0.1 0.8 0.1 1.3 0.1 13.8 0.1 27.5 0 41.3 0 0.5 0 1-0.1 1.4 -2.7 3.1-4.9 6.5-7.2 9.9 -0.2 0.1-0.4 0.1-0.6 0.1 -0.6-0.3-0.8-0.9-1.2-1.4 -0.5-0.6-1.1-0.9-1.8-0.5 -0.6 0.3-0.9 0.9-0.7 1.5 0.2 0.7 0.6 1.2 1.4 1.3 0.6 0 1.2-0.2 1.8 0 0.3 0.2 0.5 0.4 0.6 0.7 0.4 1.3-0.1 2.6-0.1 3.9 -0.1 3.9 0.4 7.6 2 11.2 0 0.3 0.1 0 0 0.2 -1.6 3.3-2.9 6.7-4 10.2 -0.6 0.4-1.2 0.4-1.9 0.2 -0.8-0.4-0.9-1.3-1.2-2.1 -0.6-1.3-1.5-2.1-3-2.1 -1.3 0-2.2 0.7-2.7 1.9 -0.6 1.3 0 2.4 0.9 3.4 0.4 0.5 1 0.8 1.1 1.4 0.1 0.9-0.4 1.6-0.8 2.3 -1.8 2.9-2.5 6-1.3 9.3 0.4 1.2 0.3 2.3-0.4 3.3 -2.1 2.7-3.2 5.8-3.1 9.2 0 0.6-0.1 1.1-0.6 1.4 -0.9 0.5-1.8 0.1-2.7 0.1 -4.3 0-6.7 4.1-4.6 7.9 1.8 3.3 1.8 3.7-1.5 5.7 -2.8 1.8-4.7 4.2-5.6 7.4 -0.2 0.9-0.4 1.8-1 2.5 -0.9 0.7-1.9 1.1-3 1 -0.9-0.2-1.3-0.9-1.9-1.5 -1.9-2.1-4.4-2.7-6.9-1.8 -2.4 0.9-4.1 3.2-4.1 5.7 0 2.8 1.6 4.6 3.9 5.9 0.8 0.4 1.9 0.5 2.6 1.2 1.4 2.9 1.1 3.8-1.5 5.1 -4.5 2.3-6.4 5.9-5.8 11 0.1 0.9 0.4 1.8-0.1 2.6 -1.7 1.3-3.4 2.6-5.5 3 -3.8 0.8-7 2.4-9.1 5.7 -0.3 0.4-0.6 0.7-1.1 1 -4.1 2-6.9 5-7.1 9.9 0 0.5-0.2 1-0.4 1.4 -0.5 0.7-1.2 1.1-1.9 1.6 -3.5 2.7-3.7 7-0.4 10 1.2 1.1 1.6 2.1 1 3.6 -0.8 1.9-1.3 3.9-1.7 6 -0.1 0.8-0.3 1.5-0.8 2.1 -0.8 0.6-1.5 1.3-2.6 1.2 -0.4 0-0.8-0.1-1.2-0.2 -4.1-1.3-6.6-0.1-7.9 4.1 -1 3.4-1 3.4-4.7 3.5 -6.9 0.3-12.5 3.3-16.8 8.7 -0.9 1.1-1.4 2.8-2.9 2.7 -2.2-0.1-4.4 0.3-6.4-1 -1.9-1.3-3.9-2.1-6.2-1.1 -2.8 1.2-4.3 3.9-3.6 6.9 0.6 3 0.1 3.7-2.8 4.3 -2.8 0.5-4.7 2-5.4 4.7 -0.5 1.8-1.5 2.6-3.4 2.7 -2.9 0.2-5.5 1.5-7.5 3.7 -1.1 1.2-2.3 1.7-3.8 1.7 -6.5 0.1-12.2 2.4-17 6.6 -1.4 1.3-2.8 1.5-4.5 0.7 -3.2-1.4-6.2-0.3-7.7 2.4 -1.6 3-0.9 6.1 2.1 8.1 1.2 0.8 2.1 1.6 1.5 3.2 -0.5 1.4-1.8 1.8-3 0.8 -0.6-0.5-1-1.3-1.5-2 -1.8-2.3-4.6-3-7-2 -2.7 1.2-4.2 3.6-3.6 6.5 0.4 2.2-0.5 3.6-2.2 4.7 -1.8 1-2.9 2.7-4.2 4.3 -0.9 0.7-2.1 0.7-3.2 0.7 -2.3-0.1-4 1-5.2 2.9 -0.9 1.5-2 2-3.8 2.3 -2.8 0.4-5.8 0.5-8.4 1.9 -2.8-0.4-5.6-0.6-8.3 0.3 -1.4-0.3-2.8 0.2-4.1 0.6 -1.6 0.5-3.1 0.3-4.6-0.5 -4.2-2.2-8.6-3.4-13.3-3.2 -1 0-2.1-0.1-3.1-0.3 -1.6-0.5-3-1.6-4.7-1.5 -1.1-0.2-2.1-0.8-3-1.2 -2.6-1.3-4.9-0.9-6.9 0.9s-2.4 4.2-1.3 6.8c0.3 0.9 1.1 1.7 0.4 2.7 -1 0-1.9 0-2.9 0 -0.9-0.7-0.7-1.7-1-2.7 -0.6-2.5-2.4-4.2-5-4.6 -2.2-0.3-5 0.9-5.8 3.1 -1 2.7-2.8 3.7-5.5 3.7 -0.9 0-1.8 0.1-2.6 0.4 -4.8 0-9.7 0-14.5 0C400.5 448.5 398.7 448.3 396.9 449.2z"/><path fill="#FEFEFE" d="M675.2 287.9c0.5-5 3-8.6 7.4-10.9 2-1.1 2.1-1.4 0.7-3.1 -1.8-2.2-1.9-5.2-0.4-7.5 1.7-2.5 4.5-3.2 7.7-2 1.2-0.1 2.2 0.2 2.7 1.3 0.2-6.5 2.2-12.3 6.5-17.2 1-1.1 1.3-2 0.8-3.5 -0.8-2.3-0.4-4.5 1.4-6.3 0.8-0.8 1.1-1.9 1.9-2.7 0-3.7 1.5-6.9 3.7-9.9 0.1-0.4-0.1-0.8-0.3-1.2 -1.1-2.2-1-3.7 0.3-4.9 1.3-1.2 3.6-1.3 5.4-0.2 2.7 1.7 2.8 1.7 6.6 1 -7.5-5.5-9.6-12.5-6.6-21 0-13.6 0-27.2 0.1-40.8 0-1.2 0-2.3 0.1-3.5 0.3-0.3 0.6-0.6 1.1-0.6 2.9 0.1 5.8-0.7 8.6 0.5 0.6 0.8 0.4 1.7 0.4 2.6 0 5.2 0 10.3 0 15.5 0 0.8-0.2 1.7 0.2 2.5 0.4 0.7 0 2.1 1.3 2.1 1.1 0 2.2-0.5 2.7-1.6 0.5-1 0.9-2 0.9-3.2 0.1-2.2 0.2-4.4 0.2-6.6 0-0.3 0-0.5 0-0.8 0.8-3 0.4-6 0.5-9 0-1-0.2-2.3 1.1-2.6 1.5-0.3 3.1-0.6 4.6 0.3 0.6 0.4 0.5 1.1 0.5 1.7 0 1.3 0 2.6 0.1 3.9 0.6 2.1 0 4.2 0.2 6.4 0.1 0.8-0.1 1.8 1.2 1.8 1.2 0 1.2-0.9 1.3-1.7 0-2.3-0.1-4.5 0.6-6.7 0.1-1.2 0.1-2.5 0.1-3.7 0-1.4 0.7-2 2.1-2 0.3 0-0.1 0 0.2 0 3.6-0.2 3.9 0.1 4 3.7 0.1 3.4-0.2 6.8 0.2 10.2 0.1 0.3 0.1 0.7 0.1 1 -0.7 2.4 1.2 3.9 2.2 5.6 0.4 0.8 0.8 1.6 0.8 2.5 0.6 2.6 0 5.1-1.2 7.4 -0.4 0.7-0.7 1.4-0.3 2.1 0.4 0.7 1 1.3 1.8 1.2 1-0.1 0.6-1.1 0.7-1.7 0.5-9.4 0.9-18.7 0.7-28.1 -0.1-2.3 0.4-2.7 2.6-2.7 1.8 0 3.6 0 5.4 0 0.8 0 1.5-0.1 2.1 0.6 0 12.7 0 25.4 0.1 38.2 0 2.1 0 4.1 0 6.2 0.5 1.7 0.9 3.5 0.8 5.3 -0.3 2.7 1.4 5 0.9 7.7 -0.2 1.1 1.1 0.8 1.7 1.1 2.3 0.9 3.8 2.3 3.3 4.4 -0.7 2.8 0.1 5.1 1 7.6 1 1.3 0.4 2.6-0.4 3.6 -1 1.2-1.8 2.3 0 3.4 0.3 0.2 0.2 0.6 0.4 0.9 6.8 5 9.6 11.7 8.6 20 -0.1 1.7 0.3 3.5-0.3 5.3 -0.3 0.8 0.5 1.4 1 1.9 1 1 2 1.9 2.8 3 0.5 0.7 0.6 1.5 0.7 2.3 0.1 0.7 0.5 1.1 0.9 1.6 0.4 0.5 1.1 0.9 1.2 1.6 0.4 2.6 2 4.3 4 5.7 0.4 0.3 0.8 0.8 1.2 1.3 0.8-1.6 1.2-3.6 3.6-3.5 2.6-1.1 5-0.8 7.1 1.2 0 2.6 0 5.3 0 7.9 -1.6 2.5-3.3 2.9-7.6 1.6 0.3 0.9 0.3 0.9 1.5 1.1 2.9 0.4 5.2 2.3 5 4.9 -0.3 2.9 0.2 5.5 0.7 8.2 0.3 1.7-0.3 3.3-1.6 4.5 -0.7 0.7-0.7 1.3 0.2 1.8 0.8 0.4 1.3 1.2 1.8 2 0 47 0 93.9 0 140.9 0 1.4-0.3 1.7-1.7 1.7 -96.1 0-192.3 0-288.4 0 -0.3-1.8 2.3-6.7 3.9-7.1 1.4-0.4 2.9-0.3 4.1 0.8 1.6 1.6 3.4 1.6 5.5 1.4 2.9-0.3 5-1.4 6.7-3.7 0.9-1.3 2.4-2.3 3.9-2.6 3.2-0.8 4-3.6 5.5-5.8 0.4-0.5 0.1-1.2 0-1.8 -0.6-6.9 5.4-11.7 11.9-9.4 1.8 0.6 3.4 0.8 5.2 0.2 0.7-0.3 1.5-0.5 2.2-0.5 3.4-0.1 5.7-2.4 8.1-4.3 1.2-0.9 1.3-2.6 1.2-4 -0.1-4.2 1.4-5.4 5.4-4.6 1.7 0.4 3.3 0.2 4.6-1.1 1.8-1.8 4.1-2.9 6.7-3 1.1-0.1 1.9-0.6 2.7-1.4 2.8-2.6 6-4.7 9.6-6 1.7-0.6 1.7-1.2 0.8-2.6 -2.3-3.4-1.5-7.9 1.6-10.5 2.9-2.4 7.4-2.3 10.3 0.3 1.5 1.3 2.3 3.1 2.6 5.1 0.1 1.1 0.5 1.5 1.7 1.5 1.6 0 3.2 0.4 4.5 1.3 1.1 0.7 1.6 0.3 1.9-0.8 0.3-0.9 0.4-1.8 0.2-2.8 -1.1-5.5 1.9-9 7.6-8.8 1.5 0.1 2.4-0.9 3.6-1.5 2.8-1.5 2.8-1.5 1.8-4.4 -0.4-1.2-0.8-2.4-0.6-3.1 -0.4 3.7-6 5.9-9.8 3.6 -2.8-1.7-3-4.2-2.5-7 0.9-4.7 5.3-6.5 9.6-3.9 1.3 0.1 2 0.7 2.1 1.7 -0.3-0.7-0.6-1.8 0.4-2.7 0.5-3 1-6 2.3-8.7 0.3-0.6 0.3-1-0.3-1.5 -5.2-4.5-4.5-9.9 1.7-13 0.6-0.6 1.3-0.9 2.1-1.1 2.1-0.4 3.2-1.9 3.3-4 0-2.3 0-4.7 2.1-6.4 2.6-4.1 6.2-6.7 11.2-7.1 1-0.1 1.4-1 2.2-1.4 0.7-0.4 1.4-0.8 2.3-0.8 0.8-1.2 2.2-1.3 3.4-1.7 1.4-0.5 2-1.2 2.2-2.8 0.5-4.8 2.7-8.9 6-12.4 0.8-0.8 1.8-1.6 1.5-2.9 -1.7 0.9-3.2 2.8-5.5 1.3 -3.7-0.3-6.1-2.3-6.8-5.6 -0.7-2.8 0.6-5.9 3.1-7.5 2.5-1.6 5.8-1.3 8.3 0.6 0.9 0.7 1.3 1.8 2 2.5 1 0.5 1.1 1.5 1.3 2.7C674.8 290.4 674.2 288.7 675.2 287.9z"/><path fill="#E4D2CB" d="M619.1 366.4c0.5 1.5-0.4 3.1 0.9 4.5 1.8 2 3.8 3.1 6.6 2.4 3-0.8 4.3-3 4.8-6.2 0.5 3 1.2 5.6 2.4 7.9 0.5 1 0.3 1.4-0.7 1.8 -1.1 0.4-2.2 0.9-3.2 1.5 -1.4 0.9-2.6 1.4-4.4 1.1 -3.8-0.6-7.2 4-5.7 7.8 0.9 2.2-0.6 3.7-1.1 5.5 -0.2 0.8-0.7 0.2-1.1 0 -2.1-1.6-4.3-2.4-6.9-1.8 -1.3 0.3-0.8-0.8-0.8-1.4 0-3.6-2.3-6.6-5.6-7.3 -3.4-0.7-6.1 0.5-7.7 3.4 -1.6 2.9-1.3 5.9 0.9 8.4 0.4 0.5 0.9 0.9 1.5 1.6 -2.8 0.8-5.5 1.8-7.9 3.4 -0.7 0.5-1.6 0.9-2.2 1.5 -2.4 2.1-4.7 4.2-8.2 4.2 -1.2 0-2.4 0.9-3.2 1.8 -1.9 2.2-4.1 2.5-6.8 1.6 -2.2-0.8-3.9 0.8-3.6 3.1 0.4 3.1-0.6 5-3.1 7.1 -3.5 3-7.9 2.7-11.7 4.2 -0.8 0.3-1.4-0.3-2.1-0.7 -3.1-1.4-6.1-1.2-8.8 0.9 -2.5 2-3.5 4.7-2.7 8 0.2 0.9 0 1.6-0.5 2.3 -0.8 1.3-2 2.5-2.5 4 -0.2 0.7-0.9 0.8-1.5 0.9 -3.2 0.8-5.6 2.6-7.3 5.4 -0.2 0.3-0.5 0.9-0.8 0.9 -3.1-0.2-6.1 2-9.3 0.3 -0.5-0.3-0.9-0.6-1.2-1.1 -0.8-1.2-2-1.2-3.1-1 -1.1 0.2-1.8 1-1.9 2.2 -0.2 1.9-2.3 2.6-2.5 4.4 -3.6 0-7.2 0-10.8 0 -1-0.3-2-0.5-3-0.4 -3.1 0.2-4.4-1.9-5.8-4.1 -0.1-0.2 0-0.4 0.1-0.6 0.7-0.9 1.9-1.6 2.8-1.5 2.4 0.3 4.6-1.5 7-0.7 0.5 0.2 0.7-0.2 0.9-0.6 1.4-3.9 4.3-5.3 8.3-4.6 0.5 0.1 0.9-0.1 1.3-0.4 0.8 0.4 0.9 1.2 1.2 1.9 0.7 1.7 2.2 2.8 3.6 2.5 1.5-0.3 2.7-1.1 3.1-2.7 0.5-2-0.3-3.7-2-4.5 -0.7-0.4-1.6-0.4-2-1.3 0.5-0.4 0.9-0.9 1.4-1.2 0.8-0.5 0.9-1.1 0.7-2.1 -1-3.7 0.7-7.1 4.1-8.4 3.4-1.3 7 0.2 8.7 3.7 0.3 0.6 0.4 1.3 1.4 1.2 0.9-0.1 0.9-0.7 1.1-1.3 0.3-0.9-0.1-1.3-0.9-1.7 -3.7-2-5-6-3.1-9.5 1.9-3.5 6-4.6 9.8-2.4 0.9 0.5 1.3 0.3 1.9-0.3 5.4-5.1 11.8-7.7 19.2-7.6 0.9 0 1.5-0.3 2.1-1 2.4-2.9 5.5-4.4 9.2-4.5 1.2 0 1.4-0.4 1.6-1.5 0.7-3.8 3.2-5.9 7.1-5.9 1.8 0 1.9-0.8 1.5-2.2 -1-3.6-0.1-6.5 2.5-8.2 2.8-1.9 5.7-1.6 8.7 0.9 0.9 0.8 1.8 0.1 2.5 0.4 3.2 1.3 4.3-0.9 5.9-2.9 4.7-5.6 10.8-8.5 18.2-8.4 1.7 0 2.8-0.2 2.4-2.2C618.8 367 619 366.7 619.1 366.4z"/><path fill="#E4D2CB" d="M439.7 449.2c0.1-0.6-0.5-1-0.7-1.4 -1.8-2.9-1.4-6.4 1-8.7 2.4-2.3 5.9-2.6 8.7-0.6 0.6 0.4 1.1 0.9 1.8 0.9 0.1 0.9-0.7 1-1.2 1.4 -1.4 1.2-1.9 3-1.1 4.6 0.7 1.4 2.3 2.3 3.7 1.9 1.7-0.4 3.1-2.1 3.2-3.9 0-0.8-0.5-1.6 0-2.4 6.5-0.5 12.7 0.3 18.3 3.9 0.7 0.4 1.3 0.2 2 0 1.6-0.6 3.3-0.9 5.1-0.6 -0.7 2.1-2.1 3.6-3.7 5C464.3 449.2 452 449.2 439.7 449.2z"/><path fill="#E4D2CB" d="M416.8 449.2c1.5-1.1 3.2-1.1 4.9-1.4 0.9-0.2 1.4-0.3 1.7-1.4 1.1-3.9 4.2-5.9 7.7-5.3 3.9 0.7 6 3.7 5.6 8.1C430.1 449.2 423.4 449.2 416.8 449.2z"/><path fill="#FEFEFE" d="M476.6 449.2c0.8-2 1.9-3.8 3.7-5 2.8-1.3 5.5-1.2 8.3-0.1 1 0.9 2.1 1.7 2.8 3 0.5 1.1 1.7 1 2.7 1.2 1.1 0.2 2.3 0.2 3.3 0.9C490.5 449.2 483.6 449.2 476.6 449.2z"/><path fill="#E4D2CC" d="M798.3 306.7c-1.1-0.6-2.1-1.3-3.2-1.8 -1.1-0.6-1-1-0.1-1.8 3-2.7 3.3-4.8 1-7.9 -0.6-0.8-0.4-1.3-0.1-2 1.8-3.9-0.6-7.3-4.9-6.9 -1 0.1-1.4-0.2-1.4-1.2 0-0.5 0-1 0-1.4 0-0.3 0.1-0.6 0.1-1.4 2.9 2.9 5.8 2.3 8.6 0.4C798.3 290.6 798.3 298.6 798.3 306.7z"/><path fill="#D5C6C3" d="M396.9 449.2c1.9-1.6 3.3-1.6 5.4 0C400.5 449.2 398.7 449.2 396.9 449.2z"/><path fill="#F7FB86" d="M266.2 175.5c-9.2 8-26.8 11.6-42.1 3.7 -16.2-8.4-24.8-26.7-20.7-44.4 3.6-15.8 18.7-30.1 32.1-30.5 -16.8 12.5-23.6 28.9-15.2 48.6C228.7 172.8 245.4 179.1 266.2 175.5z"/><path fill="#FDF6E8" d="M713 146.8c-0.3-0.1-0.5-0.3-0.8-0.3 -3.4-1-3.8-1.6-3.2-5.1 0.5-2.8 1.7-5.1 4-6.7 0.9-2.2 3.3-2.8 4.6-4.6 2.6-2.5 4.5-5.5 5.7-8.9 1.1-3.3 1.1-6.7 1.2-10.1 0.1-1.8 0.2-3.6 0.9-5.2 0.4-1.1 0.9-2.2 2.4-2 0.8 0.6 0.9 1.5 0.9 2.4 0.1 9.8 0.1 19.6 0 29.4 0 0.3-0.1 0.5-0.2 0.8 -1.8 3.1-2.2 6.6-2.3 10.1 0 0.7-0.4 1.3-0.7 1.9 -0.1 0.2-0.3 0.4-0.4 0.6 -0.5 0.4-1.2 0.4-1.8 0.3 -2.2-0.5-4.4-0.7-6.6-1C715.4 148.2 714 147.9 713 146.8z"/><path fill="#E6D6CF" d="M760.4 134.2c1.7 2 3.6 3.8 4 6.6 0.1 0.4 0.2 0.8 0.2 1.2 0.3 3.4 0.2 3.5-3.1 4.4 -0.3 0.1-0.6 0.3-1 0.4 -1 1.1-2.3 1.4-3.7 1.5 -2.2 0.2-4.5 0.6-6.7 0.9 -0.4 0-0.7 0-1-0.2 -0.2-0.2-0.3-0.3-0.4-0.6 -1-1.4-0.7-3.1-0.9-4.6 -0.2-2.7-0.8-5.1-2.2-7.4 -0.1-0.3-0.2-0.7-0.2-1 -0.1-9.4-0.1-18.8 0-28.2 0-0.8 0.1-1.5 0.8-2 1.8-0.1 1.8 1.3 2.1 2.5 0.8 3 0.3 6.2 0.8 9.3 0.3 1.6 0.4 3.3 1.2 4.8 1 3.3 3.1 6 5.2 8.7C757.2 131.6 759 132.6 760.4 134.2z"/><path fill="#F83C17" d="M748.4 70.6c1.3 2.9 1.7 5.9 1.6 9 0 2.7 0 5.4-0.1 8 -2.4 1.2-4.8 0.7-7.2 0.3 -1.2-0.8-1.5-2.1-2-3.3 -0.6-1.2-1.2-2.3-2-3.4 -0.2-0.3-0.5-0.6-0.8-0.9 -0.5-0.7-1.5-0.9-1.8-1.9 -0.4-2.6-0.6-5.2 0.2-7.8 0.2-0.2 0.3-0.4 0.6-0.5C740.8 69.7 744.7 69.1 748.4 70.6z"/><path fill="#FE451A" d="M736.8 70.7c0 2.7 0 5.4 0 8.2 -0.2 1-1.2 1-1.7 1.8 -0.2 0.2-0.3 0.5-0.5 0.7 -1.1 1.3-1.8 2.9-2.5 4.5 -0.4 1-0.8 2.1-2.1 2.4 -2.2-0.2-4.4 0.7-6.5-0.6 0.1-4.9-0.6-9.9 0.7-14.8 0.2-0.8 0.5-1.5 0.8-2.3 0.6-0.5 1.3-0.8 2.1-0.8 2.6 0 5.1-0.1 7.7 0C735.6 69.8 736.4 69.9 736.8 70.7z"/><path fill="#E4D2CB" d="M713 199.8c0.4 3-0.9 5.8-0.4 8.8 0.8 4.7 2.8 8.5 7 11 0.5 0.3 1.7 0.2 1.3 1.2 -0.3 0.7-1.1 1.4-2 1.3 -1.2-0.2-2.3 0-3.5 0.2 -0.8 0.1-1.4-0.1-2-0.8 -1.4-1.8-3.6-2.2-5.1-1.2 -1.4 1-1.7 2.7-0.7 4.8 0.2 0.4 0.4 0.7-0.1 1.1 -2.9-4.8-3-10-1.9-15.4 0.1-0.6-0.2-1.4 0.7-1.8C707.7 205.3 709.8 202.1 713 199.8z"/><path fill="#E4D2CB" d="M703.9 236c0.2 1.3-0.1 2.3-1.2 3.2 -2 1.6-2.3 3.8-1.1 6.2 0.5 0.9 0.8 1.6-0.2 2.6 -5 5-7 11.3-7.4 18.2 0 0.3 0 0.5-0.1 0.8 0 0.1-0.1 0.1-0.2 0.3 -0.9-1.1-1.6-2.4-3-2.9 0.2-2.6-0.3-5.5 1.3-7.7 2-2.7 2.6-5.3 1.7-8.7 -0.8-3.3 1.2-6.2 3.1-8.9 1.9-0.6 3.7-1.6 5.1-3C702.5 236 703.2 236 703.9 236z"/><path fill="#E4D2CB" d="M645.7 301.1c-3.5 0-6.3-2.8-6.3-6.3 0-3.4 2.8-6.2 6.2-6.2 3.4 0 6.4 2.9 6.3 6.3C651.9 298.2 649.1 301 645.7 301.1z"/><path fill="#E4D2CB" d="M665.7 298.8c2.5 0.1 4.3-1.1 6-2.9 0.9 2 0.6 3.4-1.1 5 -3.8 3.5-5.8 7.9-6.1 13.1 0 1-0.5 1.6-1.4 2 -1.6 0.7-3.2 1.1-4.9 1.4 0.1-2-0.8-3.9-0.4-5.9 0.7-4 2.8-7 6.5-8.4 1.8-0.7 2.4-1.5 1.7-3.2C665.7 299.5 665.7 299.1 665.7 298.8z"/><path fill="#F4E8DD" d="M713.1 112.6c0-0.1 0-0.2 0-0.4 0.5-0.7 1.2-0.9 2-0.9 1.7 0 2-1 2-2.4 0-4.3 0-8.5 0-12.8 0-1-0.1-1.9 0.4-2.8 0.1-0.2 0.3-0.4 0.6-0.6 1.9-0.2 3.8-0.6 5.6 0.3 0.6 0.7 0.6 1.5 0.6 2.4 0 5 0 10 0 15 0 0.8 0 1.7-0.6 2.4 -1.7 1.3-3.7 0.7-5.6 0.7C716.4 113.3 714.6 114.1 713.1 112.6z"/><path fill="#F3E8DC" d="M760.4 93.1c0 6.5 0 12.9 0 19.4 -1.4 1.6-3.2 0.8-4.9 0.9 -1.8 0-3.7 0.6-5.4-0.6 -0.2-0.2-0.2-0.5-0.1-0.7 0.6-0.7 1.4-0.8 2.3-0.7 1.7 0 2.3-0.9 2.3-2.5 0-4.4 0-8.7 0-13.1 0-1-0.1-2.1 0.8-2.9C757.1 92.3 758.8 92 760.4 93.1z"/><path fill="#FDFEFA" d="M718.1 93.2c0 5.5-0.1 10.9 0 16.4 0.1 2.1-0.6 2.9-2.7 2.6 -0.7-0.1-1.5 0-2.3 0 0-6.4 0-12.7 0-19.1C714.8 92.2 716.4 92 718.1 93.2z"/><path fill="#FEFDFD" d="M512.9 432.2c3.6 0.6 4.8 1.9 5 4.8 0.2 2.5-2.1 4.3-3.8 4.6 -1.9 0.3-4-1.2-4.6-3.3 -0.2-0.6-0.2-1.3-0.3-2C509.6 434.3 510.9 433 512.9 432.2z"/><path fill="#FEFDFD" d="M455 441c1.2 2.3 1.1 4-0.5 5.7 -1.6 1.7-3.3 2-5.2 1.1 -1.7-0.8-2.5-2.3-2.4-4 0.1-2.2 1.3-3.9 3.6-4.4C452.3 438.9 453.9 439.4 455 441z"/><path fill="#FDFDFD" d="M783.2 248.6c-2.5 0-4.5-2.1-4.4-4.6 0.1-2.5 2.1-4.4 4.6-4.3 2.5 0.1 4.5 2.1 4.4 4.6C787.8 246.7 785.7 248.7 783.2 248.6z"/><path fill="#F4E8DD" d="M760.4 134.2c-2.3-0.3-3.5-2.3-5.3-3.4 -0.5-1.8-0.6-3.6-0.5-5.5 0.1-1.4-0.3-2.3-2-2.4 -0.8 0-1.9 0-1.6-1.4 1.4-1 3-0.5 4.5-0.5 1.6 0.4 3.5-0.6 4.9 0.8C760.4 126 760.4 130.1 760.4 134.2z"/><path fill="#FDFEFA" d="M718.1 130.5c-1.1 2.1-3.4 2.7-5 4.2 0-4.3 0-8.6 0-12.8 0.6-0.7 1.4-0.9 2.2-0.8 3.4 0.8 3.6 1 3.6 4.5C719 127.2 719.1 129 718.1 130.5z"/><path fill="#E4D2CB" d="M760 155.8c-2.6 0-5.1 0-7.7 0 -1.4 0-1.8 0.5-1.8 1.8 0.1 3.3-0.1 6.6 0 10 0.2 6.9-0.7 13.8-0.5 20.7 0 0.5 0.2 1-0.3 1.3 -0.6 0.3-0.8-0.3-1.2-0.5 -0.6-0.4-1.2-0.7-1.8-1.1 -1.3-1-2.1-2.1-0.8-3.8 1.7-2.2 1.7-4.9 1.6-7.6 1.3-0.3 1.7-1.1 1.6-2.4 -0.1-5.4 0-10.7 0-16.1 0-1.1-0.1-2.2 0.9-3 2.9-0.6 5.9-0.2 8.8-0.2 0.4 0 0.8 0.2 1 0.6C760 155.6 760 155.7 760 155.8z"/><path fill="#FDFDFD" d="M701.9 236c-1 2.8-2.4 3.6-5.1 3 -2.3-1.1-3.2-2.9-2.5-4.9 0.7-2 2.5-3 4.5-2.7C700.8 231.8 701.9 233.4 701.9 236z"/><path fill="#E4D2CB" d="M642.5 326.8c-0.9 2.1-1.4 4.3-1.3 6.6 0.1 2.7-1.7 4.5-4.4 4.6 -0.6 0-1.2 0.2-1.8 0.3C634.7 332.5 637.3 328.7 642.5 326.8z"/><path fill="#E4D2CB" d="M780.4 266.8c-1.3-2.1-3-3.9-4.9-5.5 -0.5-0.4-1.1-0.7-0.7-1.5 0.9-1.7 0.8-3.7 1.4-5.5 0 0.8 0 1.4 1.1 1.8C781.9 258 783.1 262.5 780.4 266.8z"/><path fill="#E3D2CB" d="M791.2 273.5c-2 1.5-2.5 2.2-3.1 5 -1.5-1.6-2.9-3.2-4.8-4.2 -1.1-0.6-0.7-1.7-1-2.5 -0.4-1.1-0.7-2.2-1-3.3C785.1 269.1 788.2 271.3 791.2 273.5z"/><path fill="#F73B17" d="M740.6 58.5c1.8 1.2 3.1 2.8 4.2 4.6 -0.6 1.1-1.6 1.2-2.7 1.2 -1.9 0-3.7 0-5.6 0 -1.9 0.1-3.8 0.1-5.7 0 -0.9 0-1.8-0.1-2-1.3 0.2-0.2 0.4-0.5 0.5-0.7 1.4-0.5 2.9-0.1 4.3-0.1 1.5 0 2.4-0.3 2.3-2 0-0.8 0.2-1.7 1-2.2C738.3 57.4 739.4 58.1 740.6 58.5z"/><path fill="#FDFDF9" d="M750.4 88.1c0.4-1.5 0.8-2.9 1.7-4.2 1.2-0.7 2.4-0.8 3.6-0.1 1.1 2.4 1 4.8 0.1 7.3 -1.7 1.1-3.6 0.5-5.4 0.4 -0.6-0.3-0.9-0.8-0.9-1.5 0-0.2 0-0.5 0.1-0.7 0-0.2 0.1-0.4 0.2-0.6C749.8 88.4 750.1 88.2 750.4 88.1z"/><path fill="#F4E8DD" d="M721.4 83.9c1.1 1.2 1 3 2 4.2 0.1 0.1 0.3 0.2 0.3 0.4 0.1 0.2 0.1 0.5 0.2 0.8 0.1 0.3 0.1 0.6 0.1 0.9 -0.1 0.6-0.3 1.1-0.9 1.4 -1.8 0.1-3.6 0.6-5.4-0.4 -1-2.4-1-4.9 0-7.3C719.1 82.9 720.2 83.3 721.4 83.9z"/><path fill="#FCFCF9" d="M718.1 84c0 2.3 0 4.7 0 7 -1.6 1.1-3.3 1-5 0 0-2.6 0.7-4.9 2-7.1C716.1 83.2 717.1 83 718.1 84z"/><path fill="#F3E7DD" d="M755.5 91c0-2.3 0-4.7 0-7 0.9-1.1 1.9-0.5 2.9-0.1 1.4 2.2 2 4.5 2 7.1C758.8 92 757.1 92 755.5 91z"/><path fill="#FD4519" d="M726.1 68.1c0.3-1.1 0.8-2 1.5-2.9 2.9-1.3 5.9-0.8 8.9-0.4 0.3 0.1 0.5 0.3 0.6 0.5 0.6 1.1 0.6 2.2-0.3 3.1 -2.4 1.2-5 0.5-7.5 0.6C728.2 69.1 726.9 69.3 726.1 68.1z"/><path fill="#F73C16" d="M736.8 68.1c0-0.9 0-1.9 0-2.8 0.1-0.2 0.3-0.5 0.6-0.6 2.9-0.3 5.8-0.9 8.7 0.5 0.7 0.9 1.2 1.8 1.5 2.9 -0.1 0.2-0.3 0.5-0.6 0.6 -3.3 0.5-6.6 0.8-9.9-0.2C736.9 68.3 736.9 68.2 736.8 68.1z"/><path fill="#67484F" d="M755.5 112.6c1.6 0 3.3-0.1 4.9-0.1 0 2 0 4 0 6 -1.7 0.8-3.4 0.8-5.1 0.1C754.3 116.6 754.1 114.6 755.5 112.6z"/><path fill="#72535A" d="M713.1 112.6c1.6 0 3.3 0.1 4.9 0.1 1.4 1.9 1.1 3.9 0.2 5.9 -1.7 0.7-3.5 0.8-5.2-0.1C713.1 116.5 713.1 114.5 713.1 112.6z"/><path fill="#FDBA9F" d="M726.1 68.1c3.6 0 7.2 0 10.7 0l0 0.1c0.8 0.8 0.8 1.6 0 2.4 0 0 0.1 0.1 0.1 0.1 -3.9 0-7.8-0.1-11.7-0.1C725.2 69.7 725.6 68.9 726.1 68.1z"/><path fill="#F7A28D" d="M736.7 70.6c0-0.8 0-1.6 0-2.4 3.6 0 7.2-0.1 10.7-0.1 0.5 0.8 0.8 1.6 1 2.5C744.5 70.6 740.6 70.6 736.7 70.6z"/><path fill="#FB441A" d="M736.8 58.6c0 5 0 5.1-5.1 4.4 -0.7-0.1-1.8 0.5-2.4-0.6 1-1.5 2.1-2.9 3.6-3.9C734.2 58.1 735.5 57.2 736.8 58.6z"/><path fill="#E2D0CB" d="M618.5 350.3c0 1.6-1.3 2.9-2.9 2.9 -1.6 0-2.9-1.3-2.8-2.9 0-1.6 1.3-2.9 2.9-2.9C617.3 347.4 618.5 348.7 618.5 350.3z"/><path fill="#E2D1CB" d="M475.6 438.6c0 1.5-1.3 2.9-2.8 3 -1.5 0-2.9-1.3-2.9-2.8 0-1.7 1.2-2.9 2.8-2.9C474.3 435.8 475.6 437.1 475.6 438.6z"/><path fill="#E2D0CA" d="M553.9 394.7c1.6 0 2.9 1.4 2.8 2.9 -0.1 1.5-1.4 2.9-3 2.8 -1.5 0-2.8-1.4-2.8-3C551 395.9 552.2 394.7 553.9 394.7z"/><path fill="#E3D1CB" d="M767.6 234.3c-1-0.7-2.6-1.2-2.9-2.1 -0.5-1.2 1.5-1.6 2.1-2.7 0.6-1 0.8-2 0.9-3.2C770.9 228.4 770.9 231.1 767.6 234.3z"/><path fill="#E0CFC9" d="M763.4 214.4c-0.8-0.1-1.6-0.1-2.1-0.1 -0.8-4.7-1.7-9.3-1.2-14 2.1 3.7 2.7 7.7 2.1 11.9C762.1 213.2 761.9 214.2 763.4 214.4z"/><path fill="#DECDC7" d="M705.2 210.3c-1.8 1-3.2 0.7-3.8-0.7 -0.6-1.4-0.1-2.4 1.2-3.1 1.6-0.8 2.9 0.2 3.5 2.5C705.9 209.5 705.7 210 705.2 210.3z"/><path fill="#E2D1CB" d="M770.9 211.5c-0.1 1.6-0.8 2.5-2.3 2.5 -1.5 0.1-2.3-0.7-2.4-2.2 0-1.5 0.7-2.3 2.2-2.4C769.9 209.4 770.6 210.3 770.9 211.5z"/><path fill="#E3D1CB" d="M683.1 254.4c-1.7-0.1-2.5-0.9-2.5-2.3 0-1.4 0.8-2.3 2.3-2.3 1.5 0 2.3 0.8 2.4 2.3C685.3 253.5 684.3 254.2 683.1 254.4z"/><path fill="#7E1B0E" d="M713 146.8c3.5 0.6 7 1.3 10.5 1.9 0.1 0.3 0.1 0.5-0.1 0.7 -3.4 0.5-6.8 0.9-10.2-0.2C713.1 148.4 713 147.6 713 146.8z"/><path fill="#7B190C" d="M750 148.7c3.5-0.6 7-1.3 10.5-1.9 -0.1 0.8-0.1 1.7-0.2 2.5 -0.3 0.3-0.7 0.5-1.1 0.5 -3-0.2-6.1 0.5-9.1-0.3C750 149.2 749.9 149 750 148.7z"/><path fill="#9B200D" d="M746 65.2c-3.1 0-6.2 0.1-9.2 0.1 0 0 0-0.1 0-0.1 -0.5-0.5-0.5-1.1 0-1.6 2.7-0.2 5.4 0.3 8-0.4C745.4 63.7 745.7 64.4 746 65.2z"/><path fill="#AC230F" d="M736.8 63.6c0 0.5 0 1.1 0 1.6 -3.1 0-6.2 0-9.3 0 0.3-0.7 0.6-1.5 1.2-2C731.4 64.1 734.1 63.3 736.8 63.6z"/><path fill="#FCFCFB" d="M713.1 155c0.6-1.1 1.1-2.2 1.7-3.3 1.1-0.9 2.3-0.8 3.5-0.2 0.8 1.2 0.9 2.3 0 3.5C716.5 155.3 714.8 155.3 713.1 155z"/><path fill="#F7EBE1" d="M758.7 151.7c0.5 1 0.9 1.9 1.4 2.9 -1.5 1.2-3.1 0.5-4.7 0.4 -1-1.1-0.9-2.3-0.1-3.5C756.4 150.9 757.6 150.8 758.7 151.7z"/><path fill="#F6F3F0" d="M713.1 120.1c0-0.4 0-0.8 0-1.2 3-0.1 5.9-0.7 8.9-0.6 0.5 0 1.1 0 1.5 0.4 0.4 0.5 0.4 1 0 1.6 -3.1 0.8-6.3 0.6-9.5 0.5C713.7 120.8 713.4 120.4 713.1 120.1z"/><path fill="#76575C" d="M755.5 91c1.7 0 3.3 0 5 0 0 0.4 0 0.9 0 1.3 -1.6 0.7-3.3 0.1-4.9 0.4 -1.8 0.1-3.6 0.5-5.4-0.3 -0.4-0.5-0.4-1 0.1-1.4C751.9 91 753.7 91 755.5 91z"/><path fill="#F33D18" d="M750.1 149.2c3.4 0 6.8 0 10.2 0 0.3 1.4-0.7 1.2-1.5 1.2 -2.3 1.1-4.8 0.3-7.1 0.6C750.7 150.9 749.3 151.1 750.1 149.2z"/><path fill="#F23D19" d="M713.1 149.2c3.4 0 6.8 0 10.3 0 0.8 1.8-0.6 1.7-1.6 1.8 -2.4-0.2-4.8 0.5-7.1-0.5C713.8 150.4 712.8 150.7 713.1 149.2z"/><path fill="#ECDDD5" d="M760.4 118.9c0 0.4 0 0.8 0.1 1.2 -2.2 1.3-4.7 0.5-7 0.8 -1.1 0.2-2.4 0.3-3.4-0.6 -0.4-0.5-0.4-1-0.1-1.6 0.7-0.7 1.7-0.5 2.5-0.5C755.1 118.4 757.8 118.6 760.4 118.9z"/><path fill="#75565B" d="M713.1 91c1.7 0 3.3 0 5 0 1.8 0 3.6 0 5.3 0 0.5 0.4 0.4 0.9 0.1 1.4 -1.8 0.6-3.6 0.1-5.4 0.3 -1.7-0.2-3.4 0.4-5-0.4C713.1 91.9 713.1 91.4 713.1 91z"/><path fill="#A2220E" d="M736.8 58.6c-1.3 0-2.5-0.1-3.8-0.1 4-3.3 3.3-3.6 7.6 0C739.3 58.6 738 58.6 736.8 58.6z"/><path fill="#E3D2CB" d="M675.2 287.9c0 2 0.6 4.2-2.3 5.1 -0.2-1.4 0-2.9-0.5-4.2C673.3 288.5 674.3 288.2 675.2 287.9z"/><path fill="#735357" d="M750.1 120.2c3.4 0 6.9-0.1 10.3-0.1 0 0.1 0 0.3 0 0.4 -0.7 0.8-1.6 0.6-2.5 0.6 -0.9 0-1.8-0.2-2.5 0.6 -1.5 0-3 0.1-4.6 0.1 -0.3 0.2-0.6 0.2-0.9-0.1C749.8 121.2 749.5 120.7 750.1 120.2z"/><path fill="#735358" d="M713.1 120.1c3.4 0 6.9 0 10.3 0 0.2 0.2 0.2 0.4 0 0.6 -0.8 0.7-1.7 0.4-2.6 0.4 -1.1 0-2 0.1-2.9 0.8 -0.9 0-1.9 0.1-2.8-0.1 -0.7 0-1.4 0-2.1 0C713.1 121.2 713.1 120.7 713.1 120.1z"/><path fill="#7B5F64" d="M758.4 83.9c-1 0-2 0.1-2.9 0.1 -1.1 0-2.2-0.1-3.4-0.1 0.3-0.5 0.5-1.1 0.8-1.6 1.6-0.3 3.1-0.2 4.7 0C757.9 82.8 758.1 83.3 758.4 83.9z"/><path fill="#7A5E63" d="M718.1 84c-1 0-2-0.1-2.9-0.1 0.3-0.5 0.5-1 0.8-1.6 1.6-0.3 3.1-0.3 4.7 0 0.3 0.5 0.5 1.1 0.8 1.6C720.3 83.9 719.2 83.9 718.1 84z"/><path fill="#F7A18C" d="M750.4 88.1c0.1 0.3-0.1 0.4-0.3 0.4 -1 0.9-2.2 0.5-3.3 0.6 -0.9 0.1-1.8 0-2.6 0.2 -0.1 0-0.2 0.1-0.3 0.1 -0.2 0.1-0.4 0.1-0.7 0 -0.9-0.6-1.3-1.3-0.6-2.3 2.4 0.9 4.9 0.2 7.4 0.4C750.1 87.8 750.3 87.9 750.4 88.1z"/><path fill="#674850" d="M755.5 121.7c0-1 0.7-1.2 1.5-1.2 1.2 0 2.3 0 3.5 0 0 0.4 0 0.9 0 1.3C758.8 121.8 757.1 121.7 755.5 121.7z"/><path fill="#FCBA9E" d="M723.4 88.5c0-0.1 0-0.3 0-0.4 0-0.1 0-0.3 0.1-0.4 2.3 0 4.7 0 7 0 0.5 0.6 0.4 1-0.2 1.5 -0.2 0.1-0.5 0.1-0.7 0.1 -1.4-0.1-2.8 0-4.1-0.1C724.8 89.1 723.9 89.3 723.4 88.5z"/><path fill="#6E555C" d="M753 81.9c0-0.1 0.1-0.1 0.1-0.2 2-2.4 2-2.4 4 0C755.8 82.6 754.4 82.4 753 81.9z"/><path fill="#70555B" d="M716.4 81.8c1.6-2.5 2.1-2.5 3.8 0C718.9 82.5 717.6 82.6 716.4 81.8z"/><path fill="#6A535A" d="M755.5 154.9c1.5-0.1 3.1 0.5 4.6-0.3 0.4 0.3 0.2 0.6-0.1 0.8 -3.3 0-6.5 0-9.8 0 -0.3 0.1-0.5 0.1-0.6-0.2 -0.2-0.4 0-0.7 0.4-0.9C751.9 154.3 753.8 153.5 755.5 154.9z"/><path fill="#6C5159" d="M713.1 155c1.7 0 3.3 0 5-0.1 1.5-1.2 3.1-0.9 4.8-0.3 0.3 0.2 0.5 0.6 0.4 1 -0.1 0.3-0.3 0.4-0.6 0.2 -3.2-0.7-6.4-0.1-9.5-0.4C712.8 155.3 712.8 155.2 713.1 155z"/><path fill="#E0D2CA" d="M631.2 361.5c0 1.2 0 2.4 0 3.9 -0.9-1.2-1.4-2.3-2.5-2.9C629.6 362.2 630.4 361.8 631.2 361.5z"/><path fill="#D3C0BC" d="M723.4 118.9c-3.4 0-6.8 0-10.3 0 -0.1-0.1-0.1-0.3 0-0.4 1.7 0 3.3-0.1 5-0.1 1.7-1.2 3.5-1.1 5.3-0.2C723.6 118.4 723.6 118.7 723.4 118.9z"/><path fill="#DBD0D0" d="M760.4 118.9c-3.4 0-6.8 0-10.3 0 -0.2-0.3-0.1-0.5 0.1-0.7 1.8-0.8 3.6-1 5.2 0.3 1.6 0 3.3 0.1 4.9 0.1C760.4 118.6 760.4 118.7 760.4 118.9z"/><path fill="#EADEDA" d="M716.4 81.8c1.3 0 2.5 0 3.8 0 0.1 0.2 0.3 0.3 0.4 0.5 -1.6 0.5-3.1 0.7-4.7 0C716.1 82.1 716.2 81.9 716.4 81.8z"/><path fill="#ECDFDD" d="M753 81.9c1.4 0 2.7-0.1 4.1-0.1 0.1 0.2 0.3 0.3 0.4 0.5 -1.6 0.5-3.1 0.8-4.7 0C753 82.2 753 82.1 753 81.9z"/><path fill="#871A0B" d="M718.1 151.8c-1.1 0-2.2 0-3.3-0.1 0-0.1 0-0.3 0-0.4 2.3-0.8 4.6-0.5 6.9-0.2 0.2 0.2 0.3 0.4 0.1 0.7C720.5 152.9 719.3 152.7 718.1 151.8z"/><path fill="#921B0A" d="M751.7 150.5c2.4 0 4.8 0 7.2 0 0 0.1-0.1 0.3-0.1 0.4 -2.2 0.5-4.5 0.8-6.8 0.3C751.7 151 751.6 150.8 751.7 150.5z"/><path fill="#EF3B16" d="M751.8 150.8c2.3 0 4.7 0 7 0.1 0 0.1 0 0.2 0 0.3 -2.3 0.1-4.5 1.2-6.9 0.3C751.7 151.3 751.6 151.1 751.8 150.8z"/><path fill="#EE3915" d="M721.8 151.2c-2.3 0-4.7 0-7 0 0-0.1 0-0.3 0-0.4 2.3-0.4 4.5-0.1 6.8-0.2C721.9 150.8 721.9 151 721.8 151.2z"/><path fill="#86190B" d="M751.8 151.3c2.3 0 4.6 0 7-0.1 0 0.2 0 0.3 0 0.5 -1.1 0-2.2 0-3.3 0.1 -1.1 1-2.3 1-3.6 0.2C751.7 151.8 751.6 151.5 751.8 151.3z"/><path fill="#921B0B" d="M721.8 150.9c-2.3 0-4.7 0-7 0 -0.1-0.1-0.1-0.2-0.1-0.3 2.4 0 4.8 0 7.3 0C722 150.7 721.9 150.8 721.8 150.9z"/><path fill="#A08583" d="M760.4 93.1c-1.7 0-3.3 0-5 0 0-0.1-0.1-0.2-0.1-0.3 0.1-0.1 0.1-0.2 0.2-0.3 0.1 0 0.2 0 0.3-0.1 1.5 0.1 3-0.2 4.5 0.2C760.4 92.8 760.4 93 760.4 93.1z"/><path fill="#B19899" d="M718.1 93.2c-1.7 0-3.3 0-5 0 0-0.2 0-0.3 0-0.5 1.5-0.4 3-0.1 4.6-0.2 0.3 0.1 0.4 0.2 0.4 0.5L718.1 93.2z"/><path fill="#DAC4C5" d="M760.4 92.6c-1.7 0-3.3 0-5 0l-0.1-0.1c0 0 0.1-0.1 0.1-0.1 1.7 0 3.3 0 5 0C760.5 92.4 760.4 92.5 760.4 92.6z"/><path fill="#EDDFDC" d="M718.1 92.7c-1.7 0-3.3 0-5-0.1 -0.1-0.1-0.1-0.2 0-0.3 1.6 0 3.3 0 4.9 0 0.1 0.1 0.1 0.1 0.2 0.2C718.2 92.6 718.1 92.6 718.1 92.7z"/><path fill="#D1D0D8" d="M55.8 60.7c-0.4-0.1-0.6-0.3-0.5-0.7 0.1-0.4 0.4-0.6 0.8-0.4 0.2 0.1 0.4 0.4 0.4 0.6C56.5 60.5 56.2 60.7 55.8 60.7z"/><path fill="#D1D0D6" d="M185.7 405.3c0 0.4-0.2 0.7-0.6 0.7 -0.4 0-0.7-0.3-0.6-0.6 0-0.2 0.3-0.5 0.5-0.5C185.4 404.7 185.6 405 185.7 405.3z"/><path fill="#D3D1D9" d="M116.5 360.3c0.4 0 0.7 0.2 0.7 0.6 0 0.4-0.3 0.7-0.6 0.6 -0.2 0-0.5-0.3-0.5-0.5C115.9 360.6 116.1 360.4 116.5 360.3z"/><path fill="#D2D1D6" d="M401.9 44.5c0.4 0 0.7 0.2 0.7 0.5 0 0.4-0.2 0.7-0.6 0.6 -0.2 0-0.5-0.3-0.6-0.5C401.3 44.8 401.6 44.6 401.9 44.5z"/><path fill="#D3D1D9" d="M615.1 207.8c0.5 0 0.7 0.2 0.7 0.6 0 0.4-0.3 0.7-0.6 0.6 -0.2 0-0.5-0.3-0.5-0.5C614.5 208.1 614.8 207.9 615.1 207.8z"/><path fill="#D2D0DA" d="M255.2 357.8c0.4 0 0.7 0.2 0.7 0.6 0 0.4-0.2 0.7-0.6 0.6 -0.2 0-0.5-0.3-0.6-0.5C254.6 358.2 254.9 357.9 255.2 357.8z"/><path fill="#D2D0DA" d="M577.9 32c-0.4 0-0.7-0.3-0.6-0.6 0-0.4 0.3-0.6 0.7-0.6 0.3 0 0.5 0.2 0.5 0.5C578.5 31.7 578.2 31.9 577.9 32z"/><path fill="#D2D0DA" d="M621 327.9c0.4 0 0.7 0.2 0.7 0.6 0 0.2-0.2 0.5-0.4 0.6 -0.4 0.1-0.7-0.1-0.7-0.5C620.4 328.2 620.6 328 621 327.9z"/><path fill="#D2D0DA" d="M405.2 216.7c0.1-0.4 0.3-0.6 0.7-0.5 0.4 0.1 0.6 0.4 0.5 0.7 -0.1 0.2-0.4 0.5-0.6 0.5C405.4 217.3 405.2 217.1 405.2 216.7z"/><path fill="#D1CFD9" d="M172.9 219.6c0.1-0.4 0.3-0.6 0.7-0.5 0.4 0.1 0.6 0.4 0.5 0.7 -0.1 0.2-0.4 0.5-0.6 0.5C173.1 220.2 172.9 220 172.9 219.6z"/><path fill="#D2D1D9" d="M532.6 221.1c-0.4 0-0.7-0.3-0.6-0.6 0-0.4 0.3-0.7 0.7-0.6 0.2 0 0.5 0.3 0.5 0.5C533.2 220.8 532.9 221 532.6 221.1z"/><path fill="#D2D0D8" d="M252 12.5c0.4 0 0.7 0.2 0.7 0.6 0 0.2-0.2 0.5-0.4 0.6 -0.4 0.1-0.7-0.1-0.7-0.4C251.4 12.8 251.6 12.6 252 12.5z"/><path fill="#D2D1D9" d="M64.4 322.4c-0.1 0.3-0.3 0.6-0.7 0.4 -0.2-0.1-0.5-0.4-0.5-0.6 0-0.4 0.3-0.6 0.6-0.6C64.2 321.7 64.4 321.9 64.4 322.4z"/><path fill="#D2D0DA" d="M486.9 315.8c-0.4 0-0.7-0.2-0.6-0.6 0-0.4 0.3-0.7 0.7-0.6 0.2 0 0.5 0.3 0.5 0.5C487.5 315.5 487.2 315.7 486.9 315.8z"/><path fill="#D1D0D8" d="M543.9 308.9c0 0.4-0.3 0.7-0.6 0.6 -0.4 0-0.7-0.3-0.6-0.7 0-0.2 0.3-0.5 0.5-0.5C543.6 308.3 543.9 308.6 543.9 308.9z"/><path fill="#D2D0D9" d="M271.4 244.9c0.1-0.4 0.3-0.6 0.7-0.5 0.4 0.1 0.6 0.4 0.5 0.7 -0.1 0.2-0.4 0.5-0.6 0.5C271.6 245.6 271.4 245.3 271.4 244.9z"/><path fill="#615F6E" d="M292.4 113.6c0 0.3-0.1 0.5-0.4 0.5 -0.3 0-0.5-0.1-0.6-0.4 0-0.3 0.1-0.5 0.4-0.5C292.2 113.2 292.4 113.3 292.4 113.6z"/><path fill="#D2D1DA" d="M227.7 308.7c-0.1 0.3-0.3 0.6-0.7 0.4 -0.2-0.1-0.5-0.4-0.5-0.6 0-0.4 0.2-0.6 0.6-0.6C227.5 308 227.7 308.2 227.7 308.7z"/><path fill="#D2D0D9" d="M638.7 254.1c-0.1 0.4-0.3 0.6-0.7 0.6 -0.4-0.1-0.6-0.3-0.5-0.7 0.1-0.2 0.3-0.5 0.5-0.5C638.4 253.5 638.6 253.7 638.7 254.1z"/><path fill="#D2D1D9" d="M480.5 255.1c-0.4-0.1-0.6-0.3-0.5-0.7 0.1-0.4 0.4-0.6 0.7-0.5 0.2 0.1 0.5 0.4 0.5 0.6C481.2 254.9 480.9 255.1 480.5 255.1z"/><path fill="#D1CFD9" d="M569.7 86.8c-0.1 0.3-0.3 0.6-0.7 0.5 -0.4-0.1-0.6-0.4-0.5-0.7 0.1-0.2 0.4-0.5 0.6-0.5C569.5 86 569.7 86.3 569.7 86.8z"/><path fill="#D2D0D8" d="M351.5 317.1c0.3 0.1 0.6 0.3 0.5 0.7 -0.1 0.4-0.4 0.6-0.7 0.5 -0.2-0.1-0.5-0.4-0.5-0.6C350.7 317.3 351 317.1 351.5 317.1z"/><path fill="#D2D0DA" d="M575.3 254.8c0.4 0 0.7 0.2 0.7 0.6 0 0.4-0.3 0.7-0.6 0.6 -0.2 0-0.5-0.3-0.5-0.5C574.6 255.1 574.9 254.9 575.3 254.8z"/><path fill="#D2D1D9" d="M353.6 257c0 0.4-0.3 0.7-0.6 0.6 -0.4 0-0.7-0.3-0.6-0.7 0-0.2 0.3-0.5 0.5-0.5C353.3 256.3 353.5 256.6 353.6 257z"/><path fill="#D2D0D9" d="M62.5 262.2c-0.4-0.1-0.6-0.3-0.5-0.7 0.1-0.4 0.4-0.6 0.7-0.5 0.2 0.1 0.4 0.4 0.5 0.6C63.2 262 62.9 262.2 62.5 262.2z"/><path fill="#D2D0D9" d="M536.1 390.2c-0.3-0.1-0.6-0.3-0.4-0.7 0.1-0.2 0.4-0.5 0.6-0.5 0.4 0 0.6 0.3 0.6 0.6C536.8 390 536.6 390.2 536.1 390.2z"/><path fill="#D2D0D9" d="M129.6 125.2c0 0.4-0.2 0.7-0.6 0.7 -0.4 0-0.7-0.3-0.6-0.6 0-0.2 0.3-0.5 0.5-0.5C129.3 124.6 129.5 124.9 129.6 125.2z"/><path fill="#D3D1D8" d="M43.7 164.6c0.4 0 0.7 0.2 0.7 0.5 0 0.4-0.2 0.7-0.6 0.6 -0.2 0-0.5-0.3-0.6-0.5C43.1 165 43.4 164.7 43.7 164.6z"/><path fill="#D1D0D6" d="M152.5 272.4c0 0.4-0.3 0.7-0.6 0.6 -0.4 0-0.7-0.3-0.6-0.7 0-0.2 0.3-0.5 0.5-0.5C152.2 271.7 152.4 272 152.5 272.4z"/><path fill="#D2D1D7" d="M437.2 165.2c-0.1 0.4-0.3 0.6-0.7 0.6 -0.4 0-0.6-0.3-0.5-0.7 0.1-0.2 0.3-0.5 0.5-0.5C436.9 164.5 437.1 164.8 437.2 165.2z"/><path fill="#D2D0D8" d="M720.4 65.6c-0.4 0-0.7-0.3-0.6-0.6 0-0.4 0.3-0.6 0.7-0.6 0.2 0 0.5 0.3 0.5 0.5C721 65.3 720.8 65.6 720.4 65.6z"/><path fill="#D1D0D8" d="M24.1 412.1c-0.1 0.4-0.3 0.6-0.7 0.5 -0.4-0.1-0.6-0.4-0.5-0.7 0.1-0.2 0.4-0.5 0.6-0.5C23.8 411.4 24.1 411.7 24.1 412.1z"/><path fill="#D2D0DA" d="M343.2 153.4c0 0.4-0.2 0.7-0.6 0.7 -0.4 0-0.7-0.2-0.6-0.6 0-0.2 0.3-0.5 0.5-0.6C342.9 152.8 343.1 153.1 343.2 153.4z"/><path fill="#D2D0D8" d="M446.6 386.1c0.4 0.1 0.6 0.3 0.5 0.7 -0.1 0.4-0.4 0.6-0.7 0.5 -0.2-0.1-0.5-0.4-0.5-0.6C445.9 386.3 446.2 386.1 446.6 386.1z"/><path fill="#666473" d="M464.5 373c0 0.3-0.2 0.5-0.5 0.5 -0.3 0-0.5-0.2-0.5-0.5 0-0.3 0.2-0.5 0.5-0.5C464.3 372.4 464.4 372.6 464.5 373z"/><path fill="#D3D1D9" d="M113.1 180.8c0.5 0 0.7 0.2 0.7 0.6 0 0.4-0.3 0.7-0.6 0.6 -0.2 0-0.5-0.3-0.5-0.5C112.5 181.1 112.8 180.9 113.1 180.8z"/><path fill="#D2D0D8" d="M662.7 90.2c0.3 0.1 0.5 0.3 0.5 0.7 -0.1 0.4-0.4 0.6-0.7 0.5 -0.2-0.1-0.5-0.4-0.5-0.6C662 90.4 662.2 90.2 662.7 90.2z"/><path fill="#605E6D" d="M80 134.3c0 0.3-0.2 0.6-0.5 0.6 -0.3 0-0.5-0.2-0.5-0.5 0-0.2 0.2-0.4 0.4-0.4C79.7 133.8 80 134 80 134.3z"/><path fill="#6B6977" d="M565.9 145.2c-0.3 0-0.5-0.1-0.6-0.4 0-0.3 0.2-0.5 0.5-0.5 0.2 0 0.4 0.2 0.4 0.3C566.4 144.9 566.3 145.1 565.9 145.2z"/><path fill="#868493" d="M324.2 373.4c-0.3 0.1-0.5 0.3-0.7 0.3 -0.3 0-0.5-0.1-0.5-0.5 0-0.1 0.3-0.3 0.4-0.3C323.7 372.9 323.8 373.1 324.2 373.4z"/><path fill="#696776" d="M28.5 28.8c-0.3 0-0.5-0.2-0.5-0.5 0-0.3 0.2-0.5 0.5-0.4 0.2 0 0.4 0.2 0.4 0.3C28.9 28.5 28.8 28.7 28.5 28.8z"/><path fill="#6A6776" d="M212.9 263.8c-0.3-0.1-0.5-0.3-0.3-0.6 0.1-0.1 0.3-0.3 0.4-0.3 0.3 0 0.5 0.2 0.5 0.5C213.4 263.7 213.2 263.8 212.9 263.8z"/><path fill="#696776" d="M494.2 254.6c0.3 0 0.5 0.1 0.5 0.4 0 0.3-0.2 0.5-0.5 0.5 -0.2 0-0.4-0.2-0.4-0.3C493.8 254.9 493.9 254.7 494.2 254.6z"/><path fill="#777483" d="M251.7 394.1c-0.4 0-0.6-0.2-0.5-0.5 0-0.1 0.2-0.3 0.4-0.4 0.3 0 0.5 0.2 0.5 0.5C252 393.9 251.8 394 251.7 394.1z"/><path fill="#6B6877" d="M200.9 287.7c-0.1 0.3-0.2 0.5-0.5 0.4 -0.3 0-0.5-0.3-0.4-0.6 0-0.1 0.3-0.3 0.4-0.3C200.7 287.2 200.9 287.4 200.9 287.7z"/><path fill="#7D7B89" d="M208.1 113c-0.3 0.1-0.5 0.3-0.7 0.3 -0.1 0-0.4-0.2-0.4-0.3 0-0.1 0.2-0.4 0.3-0.4C207.5 112.5 207.6 112.7 208.1 113z"/><path fill="#72707E" d="M266.8 321.1c-0.2 0.1-0.4 0.3-0.5 0.3 -0.1 0-0.3-0.2-0.3-0.4 0-0.3 0.2-0.5 0.5-0.4C266.6 320.7 266.7 320.9 266.8 321.1z"/><path fill="#757281" d="M261.3 233.7c-0.2 0.1-0.4 0.3-0.5 0.3 -0.3 0-0.5-0.3-0.3-0.5 0.1-0.1 0.3-0.2 0.5-0.2C261.1 233.3 261.2 233.5 261.3 233.7z"/><path fill="#898796" d="M408.7 324.4c-0.3 0.1-0.4 0.3-0.6 0.3 -0.1 0-0.4-0.2-0.4-0.3 0-0.1 0.2-0.3 0.3-0.4C408.1 324 408.3 324.2 408.7 324.4z"/><path fill="#737180" d="M492.7 21.7c-0.1-0.3-0.3-0.4-0.3-0.6 0-0.2 0.1-0.4 0.2-0.5 0.3-0.1 0.5 0.1 0.5 0.4C493.2 21.1 493 21.2 492.7 21.7z"/><path fill="#747281" d="M496.2 328.8c-0.1 0.2-0.2 0.5-0.3 0.5 -0.3 0.1-0.5-0.1-0.5-0.4 0-0.1 0.2-0.4 0.3-0.4C495.9 328.5 496 328.7 496.2 328.8z"/><path fill="#747281" d="M405.6 111.8c-0.1-0.2-0.3-0.3-0.3-0.5 0-0.3 0.3-0.4 0.6-0.3 0.1 0.1 0.3 0.3 0.2 0.4C406.1 111.6 405.8 111.7 405.6 111.8z"/><path fill="#756B72" d="M705.2 210.3c0.3-0.4 0.3-1 0.8-1.3 0.1-0.1 0.2-0.1 0.3 0 -0.2 0.6-0.4 1.2-0.7 1.8C705.5 210.6 705.4 210.5 705.2 210.3z"/><path fill="#73717F" d="M664.4 107.3c0.2-0.1 0.3-0.3 0.4-0.4 0.3 0 0.4 0.2 0.4 0.5 0 0.1-0.3 0.3-0.4 0.3C664.7 107.7 664.6 107.5 664.4 107.3z"/><path fill="#747281" d="M620.1 178.9c-0.2 0.1-0.3 0.3-0.4 0.4 -0.3 0-0.5-0.2-0.4-0.5 0-0.1 0.3-0.3 0.4-0.3C619.8 178.5 619.9 178.7 620.1 178.9z"/><path fill="#73707F" d="M577.9 371.1c-0.2-0.1-0.4-0.2-0.5-0.4 -0.1-0.3 0.1-0.5 0.4-0.5 0.1 0 0.3 0.2 0.3 0.4C578.2 370.8 578 370.9 577.9 371.1z"/><path fill="#787684" d="M94.8 61.6c-0.1 0.2-0.2 0.4-0.4 0.5C94.1 62.2 94 62 94 61.7c0-0.1 0.2-0.3 0.4-0.3C94.5 61.3 94.6 61.5 94.8 61.6z"/><path fill="#747280" d="M418.1 403.2c-0.1 0.2-0.2 0.4-0.4 0.4 -0.3 0.1-0.5-0.2-0.4-0.4 0-0.1 0.2-0.3 0.4-0.3C417.8 402.9 417.9 403.1 418.1 403.2z"/><path fill="#73707F" d="M166.6 48.1c-0.2-0.2-0.3-0.3-0.4-0.5 0-0.3 0.1-0.5 0.5-0.4 0.1 0 0.3 0.3 0.3 0.4C167 47.8 166.8 47.9 166.6 48.1z"/><path fill="#737180" d="M531.1 406.6c-0.1 0.2-0.2 0.4-0.4 0.4 -0.3 0.1-0.5-0.2-0.4-0.4 0-0.1 0.2-0.3 0.4-0.3C530.8 406.2 530.9 406.4 531.1 406.6z"/><path fill="#757281" d="M665.3 280.2c-0.1 0.2-0.2 0.4-0.4 0.5 -0.3 0.1-0.5-0.2-0.4-0.4 0-0.1 0.2-0.3 0.4-0.3C665 279.9 665.1 280.1 665.3 280.2z"/><path fill="#747280" d="M338.7 306.4c0.1 0.2 0.3 0.4 0.3 0.5 0 0.3-0.2 0.5-0.5 0.4 -0.1 0-0.2-0.3-0.2-0.5C338.3 306.7 338.5 306.6 338.7 306.4z"/><path fill="#72707E" d="M172.3 154.6c0 0.4-0.2 0.6-0.5 0.6 -0.1 0-0.4-0.2-0.4-0.4 0-0.3 0.2-0.5 0.5-0.5C172.1 154.3 172.2 154.5 172.3 154.6z"/><path fill="#747280" d="M414.7 252.7c-0.2 0.1-0.4 0.2-0.5 0.2 -0.3-0.1-0.3-0.4-0.1-0.6 0.1-0.1 0.4-0.1 0.5-0.1C414.6 252.2 414.6 252.5 414.7 252.7z"/><path fill="#747180" d="M358.7 146.8c0.1 0.2 0.3 0.4 0.3 0.5 0 0.3-0.2 0.5-0.5 0.4 -0.1 0-0.2-0.3-0.2-0.5C358.3 147.1 358.5 147 358.7 146.8z"/><path fill="#7B7987" d="M205.3 311.8c0.2 0.4 0.3 0.6 0.3 0.8 0 0.2-0.2 0.3-0.3 0.5 -0.1-0.1-0.4-0.2-0.4-0.3C204.9 312.6 205 312.4 205.3 311.8z"/><path fill="#7D7B8A" d="M415.5 203.7c-0.2 0.1-0.4 0.3-0.5 0.3 -0.1 0-0.2-0.2-0.3-0.4 0.1-0.1 0.3-0.3 0.4-0.3C415.2 203.3 415.3 203.5 415.5 203.7z"/><path fill="#7E7C8A" d="M380.1 372.3c-0.3 0.1-0.4 0.3-0.6 0.3 -0.1 0-0.4-0.2-0.4-0.3 0-0.1 0.2-0.3 0.3-0.4C379.5 371.8 379.7 372 380.1 372.3z"/><path fill="#93919F" d="M518 65.9c-0.2-0.2-0.4-0.3-0.4-0.5 0-0.1 0.2-0.4 0.4-0.4 0.1 0 0.3 0.2 0.4 0.4C518.4 65.6 518.2 65.7 518 65.9z"/><path fill="#9391A0" d="M343.9 413.6c0.2 0.2 0.4 0.3 0.4 0.5 0 0.1-0.2 0.3-0.4 0.4 -0.1-0.1-0.3-0.2-0.4-0.4C343.5 413.9 343.7 413.8 343.9 413.6z"/><path fill="#898695" d="M151.9 114c-0.3 0.1-0.5 0.3-0.6 0.2 -0.1-0.1-0.2-0.3-0.2-0.5 0-0.1 0.2-0.2 0.3-0.2C151.6 113.7 151.7 113.8 151.9 114z"/><path fill="#898695" d="M236.4 65c-0.2 0.2-0.3 0.3-0.4 0.5 -0.1-0.1-0.3-0.2-0.4-0.4 0-0.1 0.1-0.3 0.2-0.3C236 64.8 236.2 64.9 236.4 65z"/><path fill="#363342" d="M721.8 150.9c0.1-0.1 0.1-0.2 0.1-0.4 0.8-0.1 1.8 0.2 1.5-1.2 0-0.2 0.1-0.4 0.1-0.6 0.6 0 1.1 0 1.7 0.1 0.3 0.1 0.5 0.4 0.6 0.7 0.1 0.9 0.8 1 1.5 1 1 0 1.9-0.1 2.8 0.4 0.2 0.1 0.3 0.3 0.4 0.5 0.1 0.2 0.2 0.4 0.2 0.6 0 0.2 0 0.4-0.1 0.7 -0.1 0.7-0.7 1.2-1 1.8 -0.2 3.3 0 6.5-0.1 9.8 0 0.7 0.2 1.4-0.2 2 0 0.1 0 0.2 0 0.4 -0.9 2-1.6 4-1.6 6.2 0 1.2-0.5 2.2-1.5 2.8 -0.8 0.5-1.7 1.1-2.7 0.7 -1.1-0.5-0.6-1.6-0.6-2.4 0-6-0.2-12 0.1-18 0-0.3 0-0.6 0-0.9 -1.1-0.9-2-1.7-1.3-3.3 0-0.2 0-0.3 0-0.5C721.8 151.1 721.8 151 721.8 150.9z"/><path fill="#363342" d="M751.8 151.3c0 0.1 0 0.3 0 0.4 0.5 1.6 0 2.6-1.7 2.9 -0.4 0.3-0.3 0.6 0.1 0.9 0 7.5 0 15 0 22.8 -1.1-0.7-1.8-1.2-2.6-1.7 -0.4-0.6-0.8-1.3-0.9-2.1 -0.4-1.9-1.7-3.5-2-5.4 -0.1-0.2-0.2-0.3-0.2-0.5 0.1-4.9 0.1-9.7 0-14.6 -0.2-0.5-0.4-1.1-0.3-1.7 0-0.5 0.1-0.9 0.4-1.3 0.8-0.7 1.8-0.7 2.7-0.7 0.8 0 1.4-0.2 1.5-1 0.1-0.3 0.3-0.6 0.6-0.7 0.3 0 0.5 0 0.8 0 0 0.2 0.1 0.3 0.1 0.5 -0.4 1.5 0.7 1.2 1.5 1.3 0 0.1 0 0.2 0.1 0.3C751.8 151 751.8 151.1 751.8 151.3z"/><path fill="#E3D2CB" d="M723 155.9c0 6.7 0 13.4 0 20.3 1.2-0.6 2.2-1.2 3.2-1.6 0.9-0.4 0.6-1.2 0.5-1.8 -0.2-2.5 0.5-4.6 2.5-6.2 -0.1 3.2 0.6 6.4-0.7 9.4 -0.5 1.3-3.5 3.6-4.8 3.7 -0.8 0.1-0.7-0.5-0.7-1 -0.4-2.5-0.5-5.1-0.5-7.6 0.1-5.1 0.1-10.2 0.1-15.3C722.8 155.8 722.9 155.8 723 155.9z"/><path fill="#E4D3CC" d="M739.2 160.4c-0.5 2.3-0.4 4.7-0.3 7 0.1 2.6-1.9 1.7-3.1 1.9 -1.4 0.3-1.1-1.1-1.1-1.9 0-2.2 0-4.4 0-6.6 0.4-0.4 0.8-0.8 1.3-0.9 0.9 0 1.8-0.3 2.6 0.1C738.9 160.1 739 160.2 739.2 160.4z"/><path fill="#72555F" d="M739.2 160.4l-0.2 0 -0.2 0c-1.1-2-0.7-4.1-0.2-6.3 2.1-1.3 4.4-0.8 6.6-0.4 -1 3.7-0.3 7.4-0.5 11.1 -0.1 1.3 0.3 2.6-0.3 3.9 0-4.1-0.1-8.1-0.1-12.2 0-1.5-0.3-2.2-1.9-1.9 -0.5 0.1-1.1 0.1-1.7 0 -1.3-0.2-1.7 0.4-1.6 1.6C739.2 157.6 739.2 159 739.2 160.4z"/><path fill="#71555E" d="M736 160.5c-0.4 0.4-0.8 0.4-1.3 0.3 0-1.5-0.1-3 0-4.6 0.1-1.3-0.3-1.7-1.6-1.6 -3.5 0-3.4-0.1-3.5 3.5 -0.1 2.7 0.4 5.5-0.3 8.2 0-4.2-0.1-8.3-0.1-12.5 2.1-0.5 4.2-0.8 6.2 0.1 0.8 1 0.2 2.1 0.3 3.2C735.8 158.2 735.9 159.3 736 160.5z"/><path fill="#DED0CB" d="M744.6 169.2c1.9 1.3 2.1 3.3 2 5.4C745.8 172.8 743.6 171.6 744.6 169.2z"/><path fill="#E5D8CF" d="M693.2 273.5c0.4-1.1 0.9-2.1 0.8-3.4C695.2 272.2 695.1 272.5 693.2 273.5z"/><path fill="#F4E8DD" d="M730.2 88.9c0.3-0.4 0.3-0.8 0.3-1.3 1.1-2.5 1.7-5.2 3.8-7.1 0.9-0.3 1.7-0.8 2.6-0.1 1.2 2.1 0.7 4.3 0.5 6.5 -0.7 1.6-2.3 1.8-3.7 2.1 -0.2 0.2-0.7 0.2-0.6 0.6 0.1 0.2 0.5-0.1 0.7-0.2 0.2-0.1 0.5-0.2 0.7-0.3 0.3-0.1 0.7-0.1 1 0 2 0.6 2.2 1 1.6 3.2 -0.7 2.5-1 5 0.3 7.4 0.3 0.7 0.3 1.5 0.3 2.3 0 10.1 0 20.2 0 30.3 0 0.7 0 1.4-0.2 2.1 -0.3 1.1-0.6 2.1-1.5 2.8 -2.6 0.6-5.3 1.1-7.8-0.3 0-9.5 0-19 0-28.5 0-1.5-0.1-3-0.4-4.4 -1-0.7-0.9-1.8-0.8-2.8 0.4-3.7 1.1-7.3 2.2-10.9C729.3 89.7 729.6 89.2 730.2 88.9z"/><path fill="#FE451A" d="M728.1 136.8c2.6 0 5.2 0 7.8-0.1 0.6 0.4 0.8 0.9 0.8 1.6 0.1 2.9 0.1 5.9 0 8.8 0 0.5-0.2 0.9-0.6 1.3 -0.5 0.5-1.1 0.5-1.7 0.5 -2.5 0-5 0-7.4 0 -0.6 0-1.3 0-1.6-0.7 0.3-2.8 0.5-5.6 0.8-8.3C726.3 138.6 726.9 137.5 728.1 136.8z"/><path fill="#FE451A" d="M729.8 90.2c-1.1 4.5-2.1 9-2.1 13.7 -1.9 1.9-1.9 4.3-2.1 6.7 -0.3 3.8-0.3 7.6-1.7 11.2 -0.2 0.1-0.4 0.1-0.6 0 -0.3-0.4-0.2-0.8 0-1.2 0-0.1 0.1-0.3 0-0.4 0-0.4 0-0.8 0-1.2 0-0.1 0-0.3 0-0.4 -1.2-2-1.2-4 0-5.9 0-6.5 0-13 0-19.4 -0.1-0.1-0.2-0.3-0.2-0.4 0-0.2 0.1-0.3 0.2-0.4 0-0.4 0-0.8 0-1.3 0-0.6 0-1.1 0-1.7 1.9-0.8 3.8-0.3 5.7-0.3C729.7 89 730 89.6 729.8 90.2z"/><path fill="#F4E8DD" d="M723.5 121.7c0.1 0 0.3 0 0.4 0.1 -1.2 3.4-2.9 6.5-5.8 8.7 0-1.6-0.2-3.1 0-4.7 0.3-2.4-0.2-3.9-2.9-4 1 0 1.9-0.1 2.9-0.1C719.9 120.8 721.7 120.8 723.5 121.7z"/><path fill="#7A1609" d="M725.4 148.3c3.5 0 7 0 10.5 0 0.5 0.5 0.4 1 0.1 1.5 -0.5 0.5-1.2 0.6-1.9 0.6 -2.3 0-4.5 0-6.8 0 -0.8 0-1.5-0.1-2-0.8 0-0.3 0-0.6-0.1-0.9C725.2 148.6 725.3 148.5 725.4 148.3z"/><path fill="#DDCBC4" d="M736.3 92.2c0.6-1.4 0.8-2.5-1.2-2.5 0.1-1.3 1.1-1 1.8-1 1.1 0 2.1 0.5 3.3 0.8 -1-1.1-3-0.6-3.5-2.2 0-2.2 0-4.4 0-6.6 0.8-1 1.6-0.3 2.4-0.1 1.7 1.9 2.7 4.2 3.4 6.7 0.2 0.7 0.3 1.5 0.8 2.1 0.9 0.5 1.1 1.3 1.4 2.2 0.9 3.2 1.7 6.4 1.6 9.8 -0.1 1.3 1 2.5 0.4 3.8 -0.6 0.7-0.4 1.6-0.4 2.4 0 9.8 0 19.5-0.1 29.3 -2.6 1.4-5.2 0.8-7.9 0.4 -1.2-0.5-1.1-1.7-1.6-2.6 0-11.7 0-23.5 0-35.2C736.8 97 736.7 94.6 736.3 92.2z"/><path fill="#F83C17" d="M738.1 136.9c2.7-0.3 5.4-0.2 8.2 0 1.3 0.7 1.9 1.9 2 3.3 0.2 2.7 0.5 5.4 0.7 8.2 -0.3 0.5-0.9 0.6-1.4 0.6 -3.1-0.1-6.1 0.2-9.2-0.1 -0.3-0.1-0.5-0.2-0.7-0.4 -0.6-0.7-0.6-1.5-0.6-2.4 0-2.3 0-4.6 0-6.8C737.2 138.3 737.2 137.4 738.1 136.9z"/><path fill="#F83C17" d="M746.7 105.1c-0.9-1.2-1.2-2.5-1.2-4 0-4-1.3-7.9-2.1-11.8 0 0 0.1 0.1 0.1 0.1 2.2-0.8 4.4-0.7 6.5 0 0 0.6 0.1 1.1 0.1 1.7 0 0.4 0 0.8 0 1.2 0.2 0.2 0.3 0.4 0.4 0.7 0.1 0.3 0.2 0.5 0.2 0.8 0.3 5.6 0.1 11.1 0.1 16.7 0 0.7-0.3 1.3-0.8 1.8 -0.1 0.1-0.1 0.3 0 0.4 1.2 1.9 1.2 3.9 0 5.9 -0.1 0.1-0.1 0.3 0 0.4 0 0.5 0 0.9 0 1.4 0 0.5 0 1.1 0 1.6 0.1 0.2 0 0.3-0.1 0.4 -1.9-2.8-1.7-6.1-2-9.3C747.8 110.2 748 107.6 746.7 105.1z"/><path fill="#FEFDF9" d="M750 122.1c0-0.1 0.1-0.2 0.1-0.4 0.3 0 0.5 0 0.8 0.1 0.5 0.1 0.9 0.3 1.4 0.3 3.7-0.1 3.2 0.1 3.2 3.5 0 1.7 0.5 3.5-0.4 5.2 -1.6-2-3.2-3.9-4.4-6.2C750.3 123.9 750 123 750 122.1z"/><path fill="#6C1508" d="M738.5 148.4c3.5 0 7 0 10.5-0.1 0.1 0.1 0.2 0.2 0.2 0.4 0 0.3-0.1 0.6-0.1 0.9 -0.2 0.2-0.4 0.5-0.6 0.5 -3.4 0.3-6.7 0.8-10.1-0.3C738.1 149.4 738 148.9 738.5 148.4z"/><path fill="#734346" d="M734.7 80.2c0.5-0.8 1.3-1 2.1-1.3 0.7 0.3 1.5 0.4 1.8 1.3C737.3 80.6 736 80.6 734.7 80.2z"/><path fill="#806261" d="M734.7 80.2c1.3 0 2.6 0 4 0 0.3 0 0.5 0.1 0.6 0.4 -0.8 0-1.6 0.1-2.4 0.1 -0.8 0-1.6-0.1-2.5-0.1C734.4 80.4 734.5 80.3 734.7 80.2z"/><path fill="#66484F" d="M723.4 112.5c0 2 0 4 0 5.9 -1.8 0-3.6-0.1-5.3-0.1 0-1.9 0-3.8 0-5.7C719.9 112.6 721.6 112.6 723.4 112.5z"/><path fill="#A08483" d="M723.4 92.6c0 0.1 0 0.3 0 0.4 -1.8 0-3.6-0.1-5.3-0.1 0-0.1 0-0.2 0-0.3 0 0 0-0.1 0-0.1C719.8 92.4 721.6 92.3 723.4 92.6z"/><path fill="#FEFEFA" d="M750.2 112.2c0-6.4 0-12.7 0-19.1 1.8-0.7 3.6-0.6 5.4-0.1l0 0.1c0 5.5-0.1 11.1 0.1 16.6 0 1.9-0.5 2.7-2.5 2.4C752.1 112.1 751.1 112.2 750.2 112.2z"/><path fill="#735359" d="M750.1 118.4c0-2 0-3.9 0-5.9 1.8 0 3.6 0 5.3 0.1 0 1.9 0 3.8 0 5.7C753.7 118.4 751.9 118.4 750.1 118.4z"/><path fill="#F7775A" d="M750.1 89.4c-2.2 0-4.4 0-6.5 0 0-0.2 0-0.3-0.1-0.5 2.2-0.3 4.4-0.3 6.6 0C750 89.1 750 89.2 750.1 89.4z"/><path fill="#F85438" d="M750 88.9c-2.2 0-4.4 0-6.6 0 2.2-0.9 4.4-0.2 6.7-0.4C750.1 88.6 750 88.8 750 88.9z"/><path fill="#FD8966" d="M729.8 90.2c-0.2-0.9-0.9-0.9-1.5-0.9 -1.6 0-3.2 0-4.8 0 -0.1-0.1-0.2-0.3-0.3-0.4 2.3-0.3 4.6-0.3 6.9 0 0 0 0.2 0 0.2 0C730.1 89.4 730.2 89.9 729.8 90.2z"/><path fill="#FD6040" d="M730 88.9c-2.3 0-4.6 0-6.9 0 0.1-0.1 0.2-0.3 0.3-0.4C725.6 88.8 727.9 88 730 88.9z"/><path fill="#F7EBE2" d="M721.8 151.7c0.4 1.1 0.8 2.2 1.3 3.3 -1.7 0-3.3 0-5 0 0-1.1 0-2.1 0-3.2C719.3 151.7 720.5 151.7 721.8 151.7z"/><path fill="#FCFDFC" d="M750.1 154.6c0.7-0.9 1.3-1.8 1.7-2.9 1.2 0 2.5 0 3.7 0.1 0 1.1 0 2.1 0 3.2C753.7 154.9 751.8 155.5 750.1 154.6z"/><path fill="#F1E1DF" d="M750.1 92.6c-0.1-0.1-0.1-0.3 0-0.4 1.8 0 3.5 0 5.3 0.1 0 0.1 0 0.2 0 0.3 0 0 0 0.1 0 0.1C753.7 93 751.9 93 750.1 92.6z"/><path fill="#DAC5C5" d="M723.4 92.6c-1.8 0-3.6 0-5.4 0 0-0.1 0-0.2 0-0.3 1.8 0 3.6 0 5.4 0C723.5 92.4 723.5 92.5 723.4 92.6z"/><path fill="#66484F" d="M723.5 121.7c-1.8 0-3.6 0-5.4 0 0-1 0.6-1.2 1.5-1.2 1.3 0 2.5 0 3.8 0C723.4 120.9 723.4 121.3 723.5 121.7z"/><path fill="#AE9898" d="M750.1 92.6c1.8 0 3.6 0 5.4 0.1 0 0.1 0 0.2 0 0.3 -1.8 0-3.6 0-5.4 0.1C750.1 93 750.1 92.8 750.1 92.6z"/><path fill="#FC431A" d="M725.2 149.6c3.6 0 7.1 0 10.7-0.1 0.6 0.5 0.6 1.1 0.2 1.8 -0.4 0.4-0.9 0.5-1.5 0.5 -1.5-0.2-3.1 0.4-4.6-0.5 -1.1 0-2.3-0.1-3.4 0C725.3 151.4 725 150.8 725.2 149.6z"/><path fill="#F2EFEC" d="M735.5 154.1c-2.1-0.1-4.2 0.5-6.3-0.4 0.3-0.4 0.6-0.8 0.9-1.2 1.3-1.1 2.9-0.6 4.3-0.5C735.4 152.4 735.9 153 735.5 154.1z"/><path fill="#C73214" d="M734.5 152.5c-1.5 0-2.9 0-4.4 0 0-0.1 0-0.3 0-0.4 1.2-0.9 2.7-0.1 4-0.5 0.2-0.1 0.4 0 0.6 0.1C734.9 152 734.9 152.3 734.5 152.5z"/><path fill="#891D0A" d="M734.6 151.7c-0.1 0-0.2 0-0.4 0 -1.4 0.2-2.7 0.3-4 0 0-0.1-0.1-0.2-0.1-0.4 1.6 0 3.1 0 4.7 0C734.8 151.5 734.8 151.6 734.6 151.7z"/><path fill="#FC401E" d="M730.2 151.7c1.3 0 2.7 0 4 0 -1.3 0.7-2.7 0.2-4.1 0.4C730.1 152 730.1 151.8 730.2 151.7z"/><path fill="#F53B17" d="M738.5 149.6c3.6 0 7.1 0 10.7 0 0.3 1.2-0.1 1.8-1.4 1.7 -1-0.1-2 0-3.1 0 -1.5 1.1-3.3 0.4-4.9 0.6 -0.5 0-1.1-0.1-1.5-0.5C737.9 150.7 737.9 150.1 738.5 149.6z"/><path fill="#F0EBE9" d="M745.2 153.7c-2.1 0.9-4.2 0.3-6.3 0.3 -0.4-1 0.1-1.6 0.9-2.1 1.4-0.2 2.8-0.3 4.2 0 0.2 0.1 0.4 0.3 0.5 0.5C744.7 153 745 153.3 745.2 153.7z"/><path fill="#7B1B09" d="M744.5 152.6l-0.2 0 -0.2-0.1c-0.1-0.1-0.3-0.3-0.5-0.3 -1.1-0.2-2.3 0-3.5-0.1 -0.2 0-0.4-0.1-0.5-0.2 -0.1-0.2-0.1-0.4 0-0.5 1.7 0 3.3 0 5 0C744.6 151.7 744.6 152.1 744.5 152.6z"/><path fill="#3E3B47" d="M739.7 151.3c0 0.1 0.1 0.3 0.1 0.4 0.2 0.3 0.2 0.6 0.1 0.9 -0.5 0.4-0.8 0.9-0.9 1.5 0 2.1 0 4.2-0.1 6.3 -0.9 0-1.9 0.1-2.8 0.1 -1.2-0.3-0.9-1.3-0.9-2 0-1.4-0.2-2.9 0.3-4.3 -0.3-0.5-0.6-1.1-1-1.6 0-0.3 0-0.5 0-0.8 0.1-0.1 0.1-0.3 0.2-0.4 0.4 0 0.8 0 1.1 0 1.1 0.7 0.8 1.9 0.9 3 0.1 0.9-0.1 1.8 0.2 2.7 0.3-1.1 0.1-2.1 0.2-3.2 0-0.9 0-1.8 0.7-2.5 0.2-0.1 0.4-0.1 0.6 0C738.9 151.2 739.3 151.3 739.7 151.3z"/><path fill="#EBDFD5" d="M738.1 151.3c0 2.1-0.1 4.2-0.1 6.2 0 0.7 0 1.5-0.9 1.6 -1.1 0.1-1.1-0.8-1.1-1.6 0-2.1 0-4.1-0.1-6.2 0-0.6 0-1.1 0-1.7 0-0.4 0-0.8 0-1.2 0-3.9 0-7.7 0.1-11.6 -0.1-0.9 0.2-1.6 0.9-2.1 1.4 0.2 1.2 1.3 1.3 2.2 0.1 3.8 0.1 7.6 0.2 11.5C738.1 149.3 738.4 150.3 738.1 151.3z"/><path fill="#61434A" d="M736.8 87.3c1.5 0.5 3.1 0.8 4.5 1.6 0.5 0.3 1 0.5 0.6 1.2 -0.4 0.8-0.8 0.7-1.5 0.4 -1.7-0.7-3.4-1.6-5.3-0.9 -0.3 0-0.5 0-0.8 0 -1 0.2-1.4-0.3-1.3-1.2C734.1 87.7 735.7 88.1 736.8 87.3z"/><path fill="#6B4D53" d="M736.3 92.2c0.2 0.1 0.6 0.2 0.7 0.3 0.3 2 0.5 4.1 0.7 6.1 0.1 0.8-0.5 0.6-1 0.7 -0.9 0-1.4-0.3-1.2-1.3C735.9 96.1 736.1 94.2 736.3 92.2z"/><path fill="#6F5057" d="M733.1 88.6c0.3 0.5 0.7 0.9 1.3 1.2 -0.2 0.1-0.4 0.4-0.7 0.4 -0.6 0.1-1.3 1.4-1.9 0.1C731.1 88.9 732.4 89 733.1 88.6z"/><path fill="#983828" d="M738.1 151.3c-0.1-1-0.1-2 0.2-2.9 0.1 0 0.2 0 0.3 0.1 0 0.4 0 0.8-0.1 1.2 0 0.5 0 1.1 0 1.6C738.4 151.2 738.2 151.3 738.1 151.3z"/><path fill="#B72716" d="M739.9 152.6c0-0.3 0-0.6-0.1-0.9 0.1 0 0.3 0 0.4 0 1.3 0.4 2.7-0.1 4 0.3 0 0.1 0 0.3 0 0.4C742.7 152.8 741.3 152.6 739.9 152.6z"/><path fill="#F63C1D" d="M744.2 152.1c-1.3-0.1-2.7 0.4-4-0.3C741.5 151.8 742.9 151.3 744.2 152.1z"/></svg>