
<svg xmlns="http://www.w3.org/2000/svg" version="1.1" id="Layer_1" x="0" y="0" viewBox="0 0 798.6 500" enable-background="new 0 0 798.6 500" xml:space="preserve"><path fill="#15294E" d="M-1.4 292c0-20 0-40 0-60 1.5 0.2 2.9 0.3 4.4 0.6 8.9 1.7 17.8 2 26.6-0.7 10-2.1 18.8-6.7 26.2-13.8 16.7-15.2 22.8-34 18.9-56.1 -1.4-9.9-5.5-18.6-11.9-26.2C49.2 116.9 23.5 108.6-1.4 115c0-36.5 0.1-73-0.1-109.5 0-3.8 0.8-4.6 4.6-4.6C261.3 1 519.4 1 777.6 1c-1.6 1.6-3.7 2.2-5.6 3.1 -15.3 6.4-28.6 15.7-40.1 27.4 -11.8 12.1-21.2 25.9-27.5 41.8 -9.6 24.1-12.3 48.8-7.1 74.2 5.6 27.4 18.4 50.8 39.1 69.8 17.8 16.4 38.5 27.1 62.3 31.7 0 82.7 0 165.3 0.1 248 0 3.4-0.7 4.1-4.1 4.1 -137.3-0.1-274.7-0.1-412-0.1 0.3-5.8 1.4-11.7 0.8-17.3 -1.1-10.5-1-21.1-2.6-31.7 -4.8-31.9-15.1-61.8-31.7-89.4 -3.5-5.8-8-11-10.5-17.4 4-2 8.2-3.7 12.1-6 11.7-7 14.9-19.1 8.1-30.4 -4.8-8-11.1-14.5-19.1-19.3 -10.9-6.5-23.1-3.6-30 7.1 -2.2 3.3-3.8 7-5.7 10.5 -6.1-4.9-12-10-18.3-14.5 -9.1-6.6-18.1-13.5-28.6-17.8 1.9-2 2.8-4.3 0.3-6.3 -2.5-1.9-4.5-0.6-6 1.9 -5.6-1.3-10.5-4.2-15.7-6.4 -26.7-11.5-54.7-17.3-83.6-18.8 -15.6-0.8-31.2 0.4-46.6 2.8 -30.9 4.8-59.9 15.1-86.6 31.4C12 283.4 5.3 287.8-1.4 292zM510.2 142.7c0.4-0.5 1.7-0.8 0.7-1.7 -0.4-0.4-1.1 0.2-1.3 0.9 -0.3 0.3-0.7 0.7-1 1 -1 0.4-1.7 1-2 2 -1 0.3-1.7 1-2 2 -1 0.3-1.7 1-2 2 -0.4 0.1-0.8 0.3-0.5 0.8 0.1 0.1 0.7-0.1 1.1-0.2 0.7-0.7 1.4-1.3 2.1-2 0.7-0.7 1.3-1.3 2-2 0.7-0.7 1.4-1.3 2-2C509.6 143.3 509.9 143 510.2 142.7zM360.6 300.9c1.9 3.9 4.2 4.5 7.6 1.5 3.7-3.3 9.3-4.3 11.5-9.4 2.4 2.1 4.4 1.8 6.9-0.2 4.2-3.3 8.7-6.2 13-9.2 0.1 2.2 0.2 4.4 0.4 6.6 0 13 0 26 0 39.6 0.9-1.1 1.4-1.5 1.8-2 13.4-20.1 26.7-40.2 40.2-60.2 1.9-2.8 1.8-5.6 0.7-8.5 -0.1-3.5-0.2-7-0.3-10.5 5.6-5.7 11.2-11.4 16.9-17 21.6-21.2 32.1-48.1 39.3-76.7 -0.5-1.9-1.8-2.1-3.4-1.6 -21.4 7-43 13.6-61.2 27.8 -10.9 8.5-20.4 18.4-30.2 28 -5.1-0.3-10.2-0.7-15.3-1 -2.2-0.6-3.8 0.7-5.4 1.8 -14.5 9.6-29 19.3-43.5 28.9 -5.5 3.7-11 7.3-16.5 11.1 -0.5 0.3-2.2 0.5-0.9 1.8 0.2 0.2 1 0 1.4 0 12.5 0 24.9-0.1 37.4-0.1 2.5 0 5-0.5 7.3 0.7 -3.2 4.4-6.4 8.8-9.5 13.2 -0.8 1.2-2.6 2.3-1.2 4.2 -3.2 4.6-6.3 9.3-9.6 13.8 -1.4 1.9-1.7 3.3 0.2 5.1C352.4 292.8 355.9 297.4 360.6 300.9zM15.2 43c-2.2 0.4-3.6 1.6-3.5 3.9 0.2 2.3 1.7 3.6 4 3.4 2-0.2 3.3-1.5 3.3-3.6C19 44.5 17.6 43.3 15.2 43zM458.3 386.1c-0.3-2.2-1.4-3.8-3.7-3.8 -2.2 0-3.7 1.5-3.7 3.8 0 2.1 1.4 3.4 3.4 3.6C456.6 389.9 457.9 388.4 458.3 386.1zM429.2 160.3c-0.5-2-1.6-3.6-4-3.4 -2.3 0.2-3.6 1.7-3.4 4 0.2 2 1.5 3.2 3.7 3.2C428 164.2 428.9 162.6 429.2 160.3zM698.6 203.8c-0.2-2.3-1.5-3.7-3.7-3.8 -2.1-0.1-3.4 1.1-3.6 3.2 -0.2 2.3 0.9 3.8 3.3 4C696.9 207.4 698.1 206 698.6 203.8zM530.7 466.1c-0.2-2.4-1.6-3.7-3.8-3.6 -2 0.1-3.3 1.2-3.4 3.5 0 2.4 1.2 3.8 3.5 3.9C529.2 469.8 530.5 468.3 530.7 466.1z"/><path fill="#283658" d="M-1.4 292c6.7-4.2 13.4-8.6 20.1-12.7 26.7-16.3 55.7-26.6 86.6-31.4 15.5-2.4 31-3.7 46.6-2.8 28.9 1.5 56.9 7.3 83.6 18.8 5.2 2.2 10.1 5.1 15.7 6.4 0.1 3.7 2 5.3 5.7 4.4 10.6 4.3 19.5 11.3 28.6 17.8 6.3 4.6 12.2 9.7 18.3 14.5 -6.2 16.1-11.9 32.4-16.5 49 -1.4 5.1-1.4 5.2 3.8 3.8 16-4.3 31.8-9.2 47.4-14.8 2.5 6.4 7 11.6 10.5 17.4 16.7 27.7 26.9 57.5 31.7 89.4 1.6 10.5 1.5 21.1 2.6 31.7 0.6 5.7-0.5 11.6-0.8 17.3 -24 0-48 0-72 0 -0.1-12.8 0.8-25.7-1.2-38.4 -4.3-27.8-14.3-53.3-31.1-76 -17-22.9-38-41-63.9-53 -32.4-15.1-66.3-19.9-101.6-13.6 -31.4 5.6-59 19.2-82.8 40.3C17.8 371 7.6 383.5-1.4 397 -1.4 362-1.4 327-1.4 292z"/><path fill="#1082AE" d="M128.6 501c-35 0-70 0-105 0 0.4-1.5-2.2-1.9-1.2-3.9 3.9-7.5 3.3-15-1.1-22.1 -1.9-3.1-2.8-6.1-2.6-9.8 0.2-4.4 1.2-9.5-0.5-13.2 -2.2-4.6-3.7-9.2-3.8-14.1 -0.1-5-2-4.8-5.3-2.6 -0.2-2.1-0.3-3.7-0.4-5.3 1.4-4.7 4-8.8 6.5-12.9 1.8-2.9 3.5-5.7 3.6-9.2 0 0-0.1 0.1-0.1 0.1 0.4-0.7 0.7-1.4 1.1-2.1 0 0-0.1 0.1-0.1 0.1 0.4-0.4 0.7-0.7 1.1-1.1 0 0-0.1 0.1-0.1 0.1 0.9-0.4 1.2-1.1 1.1-2.1l0 0.1c1.4 0 1.8-0.9 2-2.1l0 0.1c0.8-0.4 1.6-0.9 1.1-2l0 0.1c1.3 0.5 1.9-1.2 3-1.1 1.7 4-1.3 7.1-2 10.6 -0.3 1.3-1.8 2.6 0.7 3.8 1.2-4 2.3-7.9 3.5-11.7 0.6-2.1-0.4-2.6-2.2-2.6 0-1 0-2 0-3 5-5 9.5-10.6 15-15.2 2.4 3.3-0.3 5.1-2 7.3 -2.2 2.8-5.9 4.6-6.2 8.8 2.5-2.2 4.8-4.6 6.7-7.2 3.4-4.5 7.7-7.4 13.6-6.8 2.4 0.2 3.6-1.3 5.1-2.5 3.7-3 8.1-4.8 12.8-4.1 1.9 0.3 2.8 0.1 4.2-0.9 2.9-2 6-1.3 9.9 0.4 -1.4 0.6-2.3 1-4.3 1.9 5.4 0.8 9.2 2.9 13.4 0.3 -1.2-1.6-3.7 0.4-4.2-1.8 -0.5-2.4 1.6-3.3 3.1-4 2.3-1 3.3-1.9 0.7-3.9 6.2-1.7 7.9 6.1 13.4 5.6 -3 1.2-6 2.3-9.3 3.6 0.7 1 1.7 1.7 1.8 2.6 0.2 2.1 1.1 3.6 3.1 3.8 2.5 0.2 4-2.5 3.9-3.9 -0.4-4 2.7-5.2 4.9-5.9 3.2-1.1 4.6-3.5 5.1-6.1 0.6-2.8 1.8-4.3 4.3-5.4 1.6-0.7 3.5-1.9 4.1-3.9 -1.2-1.2-3.1 0.7-4-1.4 0.4-0.4 0.8-1 1.4-1.2 2.4-0.8 5.5-1.9 4.2-4.8 -1.1-2.5-3.8-0.4-5.7 0.1 -7.2 1.8-14.3 4.5-22.8 4.3 3.5-2.1 6.3-3.5 8.9-5.5 6.8-5.1 14.2-8 22.3-2.2 0.4 0.3 1.3 0.1 1.8-0.2 2.1-1.2 4-0.9 6.2-0.4 2.3 0.6 5.2 0.3 6.9-1.2 1-0.8 1.9-1.6 2.3-0.8 0.5 0.9 1.1 2.6-0.4 3.6 -1.2 0.9-2.5 1.6-4.1 1.3 -2.3-0.3-4.6-0.3-6.9-0.7 -3.9-0.6-4.4 2.9-4.9 4.9 -0.4 2 2.8 1.6 4 1.7 7.3 0.6 13.5-2.5 19.2-6.9 1.8-1.4 4.6-2.1 3-5.5 -0.6-1.3 0.2-1.9 1.5-1.7 1.2 0.1 2.6 0.5 1.9 2.1 -1.6 3.5 0.7 2.6 2.7 3.1 3.2 0.8 6.6-0.1 9.5 1.5 0 0.3 0 0.6 0 0.9 -1.1 0.1-3.1 0-3.3 0.5 -1.9 5.2-7.1 4.4-10.8 6.2 -4.7 2.2-9.9 2.9-13.8 6.9 -2.5 2.5-1.8 4.9-0.9 7.1 1.2 2.9 3.4 0.4 5.1 0.2 4.5-0.4 8.5-3 13.3-2.2 6.5 1.1 13.1 1.8 19.6 2.5 1.3 0.2 3.3 0.2 3.4-1.3 0.2-3.2 1.8-2.8 4.1-2.6 2 0.1 3.4-1.9 3.9-3.4 0.6-1.9 2.1-2.6 3.2-3.4 -3.3-4.3-8.1-5.9-12.7-7.8 0-1.3 0-2.6-1.7-2.8 -1.2-1.8-3.2-2.1-5.1-2.7 -2.1-0.7-4.7-0.7-5.6-3.4 7.4 0.8 14.3 3.3 21.1 5.9 17.9 6.8 34.3 15.9 47.5 30.2 -0.1 3 2.3 4.6 3.9 6.5 1.7 2 2.8 4 1.1 6.5 -1.9 0-3.8 0.1-5.7 0.1 -3.9-2.1-7.9-4.1-11.5-6.8 -2.4-1.8-7.4-0.6-7.8 2.1 -0.6 4.7-2.3 7.8-7 9.7 -3.4 1.4-2.3 4.7-1.4 7.4 0.6 1.9 1.4 3.8 4.1 3.5 3.2-0.3 6.5 3 6.2 6.2 -0.1 0.9-0.4 1.6-1.4 1.6 -0.8 0.1-1.2-0.4-1.2-1.1 -0.1-1.3 0.7-3.5-1.8-3 -2.2 0.4-1.7 2.5-1.6 4.2 0.1 1.2 0.3 2.3 0.4 3.4 -2.1 1.4-5.3-0.9-6.7 2.2 -1.2 2.6-3.4 2.8-5.9 2.5 0.3-3.1-0.8-5.8-1.8-8.6 -1.1-3.1-4.5-5.9-2.1-10.1 0.4-0.7-1.1-2.9-2.2-4 -1.1-1-2.6 0.2-3.7 0.8 -1.7 0.9-0.4 2.5-0.2 3.9 0.2 0.9 1.5 1.5 0.4 2.7 -1.5-0.5-2.9-1.5-4.5-1.6 -1.7-0.1-4.5-0.1-4.6 1.7 0 2.2-2.8 3.5-1.7 5.1 1.2 1.8 3.7 0.6 5.7 0.7 2 0 1.9-1.9 2.6-3.2 0.5-1 1.4-1.9 2.8-1.8 1.3 0.2 1.9 1.2 2.2 2.4 0.4 1.8-1 1.4-1.9 1.9 -1.1 0.6-2.4 3.1-2.2 3.3 3 2.6-1.6 2.7-1.5 4.5 4.5-0.4 8.5 1.5 12.8 2.2 -0.5 2.9-2.8 2.8-4.9 2.8 -2.6 0.1-5.3 0-8 0 -0.1 1.7 1.2 2.1 1.9 2.9 2.4 2.7 3.6 5.9 2.4 9.5 -0.9 2.8-2.3 4.2-5.5 2.5 -2.8-1.5-5.8-2.4-8.7-3.8 -2.9-1.4-4.4-0.5-5 2.5 -0.6 3.1-2 5.7-4.1 8.3 -1.4 1.7-2.6 5.8 0.3 7.4 2.5 1.5 4.4 2.8 3.4 5.6 -1 2.7-2.7 5.3-6.3 5.4 -4.2 0.1-7.1 2.8-8.5 6.1 -1.6 4-4.6 5.7-8 5.6 -5.5-0.1-8.8 3.3-12.8 5.9 -1.2 0.8-2.4 1.8-3.6 2.6C132.5 490.5 127.3 493.7 128.6 501zM216.6 371.1l0.1 0.1L216.6 371.1c-1.1-2.7-2.1-5.3-6.2-4.6C211.9 369.1 212.6 372.3 216.6 371.1zM179.7 375.1c-2.2 5.4 0.4 8.2 6.5 7.9 1.4-0.1 2.8-0.1 3.1-1.8 0.2-1.6-1-2.3-2.3-2.7C184.4 377.6 181.3 378.1 179.7 375.1zM26 415.6c-4.4 3.3-4.3 4.3 0.3 7.8C27 421 27.9 418.4 26 415.6z"/><path fill="#DF7F35" d="M798.6 21c0 67.7 0 135.3 0 203 -70-19.2-101.2-96.9-63.1-157.5C750.3 43 771.4 27.6 798.6 21z"/><path fill="#B0D362" d="M204.6 424c2.5 0.3 4.7 0.1 5.9-2.5 1.4-3.1 4.6-0.8 6.7-2.2 -0.1-1.1-0.3-2.2-0.4-3.4 -0.1-1.6-0.6-3.8 1.6-4.2 2.5-0.5 1.6 1.7 1.8 3 0.1 0.8 0.4 1.2 1.2 1.1 1-0.1 1.4-0.7 1.4-1.6 0.2-3.2-3-6.5-6.2-6.2 -2.7 0.3-3.4-1.6-4.1-3.5 -0.9-2.7-2-6.1 1.4-7.4 4.6-1.9 6.4-5 7-9.7 0.3-2.7 5.4-3.9 7.8-2.1 3.6 2.7 7.5 4.7 11.5 6.8 0.6 1.1 1.3 2.3 1.9 3.4 -0.3 0.3-0.6 0.7-0.8 1 -0.5 0-1.4-0.2-1.4-0.1 -0.6 2.5 1.4 3.6 3 4.1 2.4 0.7 1.1-1.4 1.3-2.5 0.4-2.1 1.1-4.1 1.7-6.1 1.7-2.5 0.6-4.5-1.1-6.5 -1.7-1.9-4-3.5-3.9-6.5 6.2 3.2 10.6 8.5 14.7 13.8 17.4 22.8 30.5 47.6 32.8 76.8 0.8 10.4 1.5 20.9-0.6 31.3 -53 0-106 0-159 0 -1.3-7.3 3.9-10.5 8.9-13.7 1.3-0.8 2.4-1.7 3.6-2.6 3.9-2.6 7.3-6 12.8-5.9 3.3 0.1 6.3-1.7 8-5.6 1.4-3.3 4.3-6 8.5-6.1 3.6-0.1 5.3-2.7 6.3-5.4 1-2.7-0.9-4.1-3.4-5.6 -2.9-1.7-1.7-5.7-0.3-7.4 2.1-2.6 3.4-5.2 4.1-8.3 0.6-3 2.1-3.9 5-2.5 2.8 1.4 5.9 2.3 8.7 3.8 3.2 1.7 4.6 0.3 5.5-2.5 1.2-3.6-0.1-6.8-2.4-9.5 -0.7-0.8-2-1.2-1.9-2.9 2.7 0 5.4 0.1 8 0C201.8 426.7 204.2 426.9 204.6 424L204.6 424zM229.9 470.3c-0.2-0.3-0.5-0.6-0.7-0.8 0.6-3.9-1.7-6.8-4-9.3 -2.7-2.9-5.4-5.8-6.7-9.7 -0.7-2-2.1-3.2-4.2-2 -3.2 1.8-5.7-0.9-8.4-0.9 -2.8 0-2.7 5.4-7 5 -2.1-0.2-4.2 1.6-4.3 4.1 -0.1 1.9-1.3 2.6-2.4 3.5 -2.7 2.3-5.6 3.3-9 1.3 -1.3-0.8-3.3-0.8-4.1 0.6 -0.9 1.6 0.8 2.5 2.1 3.3 3.4 2 6.8 3.3 10.9 1.9 3.9-1.3 7.9-0.3 11.7 0.8 2.8 0.8 5.6 1.8 8.5 2.3 5 0.8 7 4.7 3.8 8.4 -2 2.3-1.1 4.2 0.6 4.8 6.2 1.9 9.1 7.6 13.7 11.4 3.1 2.5 4.1 1.6 4.9-1.7 1.1-4.5 3.8-5.4 7-1.9 4.9 5.4 11.3 3.9 17.3 4.5 0.5 0.1 1.5-0.9 1.7-1.5 1.6-4.8 3.2-9.7 1.5-15 -6.2 2.5-12 0.2-14-5.4 -0.6-1.7-0.7-3.6-0.6-5.3 0.1-1.5-0.2-2.6-1.6-3.2 -1.1-0.5-1.7 0.2-2.5 1 -1.1 1-2.3 2.1-1.2 3.2 3.3 3.3-0.5 5.3-1.6 8.2 -3.7-11.7-7.3-23.3-17.6-31 -0.8 1.5-0.2 3 0.5 4.8 1.7 4.9 6 7.9 8.8 11.9 -0.3 0.3-0.6 0.5-0.9 0.8C229.3 465.4 233 469.2 229.9 470.3zM230.1 395.5c-1.7 4.3-4.8 8.4-0.3 12.8 -2.4 2.9 1.6 9.9-6.2 9.3 -0.5 0-1.3 1-1.5 1.7 -0.3 1.3 1.2 0.7 1.6 1.2 2.1 3.1 5.3 0.6 7.8 1.6 2.9 1.1 3.9-0.3 3.4-2.8 -0.6-3 0.5-3.7 3.6-2.7 -3.5-4.6-3.5-4.6 0.8-6.4 -6.4-0.8-8.8-4.2-7.2-10.5C232.6 397.5 232.5 396.1 230.1 395.5z"/><path fill="#283658" d="M798.6 21c-27.3 6.6-48.3 22-63.1 45.5 -38.1 60.6-6.9 138.2 63.1 157.5 0 8.3 0 16.7 0 25 -23.8-4.6-44.4-15.4-62.3-31.7 -20.7-19-33.5-42.4-39.1-69.8 -5.2-25.5-2.5-50.1 7.1-74.2 6.3-15.9 15.8-29.7 27.5-41.8 11.4-11.7 24.8-21.1 40.1-27.4 2-0.8 4.1-1.4 5.6-3.1 6.3 0 12.7 0.1 19-0.1 1.7 0 2.1 0.3 2.1 2.1C798.5 9 798.6 15 798.6 21z"/><path fill="#E4DFCC" d="M-1.4 115c24.9-6.4 50.6 1.9 64.1 20.8 -1.4 0.9-2.7 1.8-4.1 2.8 -6.4 4.7-8.4 11.6-5.3 17.9 3.3 6.6 9.7 9 17.4 6.6 1.3-0.4 2.6-0.7 3.8-1.1 3.9 22.1-2.2 40.9-18.9 56.1 -1.9-0.8-2.3-2.7-3.3-4.3 -4.1-6.3-12.2-8.7-18.3-5.4 -6.8 3.7-9.5 11.8-6.4 18.9 0.7 1.5 1.2 3.1 1.8 4.6 -8.8 2.6-17.7 2.3-26.6 0.7 -1.4-0.3-2.9-0.4-4.4-0.6C-1.4 193-1.4 154-1.4 115zM13.8 207c5.1 0.1 9.6-3.7 9.8-8.6 0.3-5.4-4.1-10.2-9.3-10.3 -5.3-0.1-9.6 3.9-9.7 9.2C4.5 202.7 8.4 206.9 13.8 207zM15.7 116c-5 0-8.1 3-8.1 7.9 0 4.6 3.2 7.8 7.7 7.9 3.9 0.1 8.3-4.5 8.2-8.6C23.4 119.3 20 116 15.7 116zM26.6 161.3c-1-2.5-1.9-5.3-5.4-5.2 -3.2 0.1-5.3 2.1-5.4 5.3 -0.1 3.2 2 5.3 5.2 5.5C24.5 167.1 25.6 164.5 26.6 161.3zM59.6 187.4c-0.1-3.6-1.6-5.3-4.9-5.4 -3.6 0-5 1.9-5.1 5.3 -0.1 3.6 1.7 5.5 5 5.4C57.9 192.7 59.4 190.2 59.6 187.4zM34.6 150.4c-1.8 0.5-2.8 1.7-2.8 3.5 0 2.1 1.2 3.1 3.2 2.9 2.1-0.2 2.7-1.7 2.6-3.6C37.4 151.4 36.3 150.7 34.6 150.4z"/><path fill="#5A5C79" d="M-1.4 397c9-13.5 19.2-26 31.3-36.7 23.8-21.1 51.4-34.7 82.8-40.3 35.3-6.2 69.3-1.5 101.6 13.6 25.9 12.1 46.9 30.2 63.9 53 16.8 22.6 26.8 48.2 31.1 76 2 12.7 1.1 25.6 1.2 38.4 -4.7 0-9.3 0-14 0 1.7-13.5 0.9-26.9-1.4-40.2 -6.7-38.8-25.2-71-56-95.5 -36.9-29.4-79.2-40.4-125.6-31.5 -52 10-89.4 39.9-112.4 87.6 -0.6 1.2-1 2.6-2.7 2.6C-1.4 415-1.4 406-1.4 397z"/><path fill="#8C8CA2" d="M-1.4 424c1.7 0 2.1-1.4 2.7-2.6 23-47.8 60.5-77.6 112.4-87.6 46.3-8.9 88.6 2.1 125.6 31.5 30.8 24.5 49.3 56.7 56 95.5 2.3 13.3 3.1 26.7 1.4 40.2 -3 0-6 0-9 0 2.1-10.4 1.4-20.9 0.6-31.3 -2.3-29.2-15.4-54-32.8-76.8 -4.1-5.3-8.4-10.6-14.7-13.8 -13.1-14.3-29.6-23.4-47.5-30.2 -6.8-2.6-13.7-5.1-21.1-5.9 -2-0.7-4-1.6-6.1-1.9 -11.1-1.8-22.3-2-33.6-1.3 -31.8 1.9-59.5 13.8-84.2 33.4 -2.3 1.8-5 3.4-5.7 6.7 -5.5 4.6-10 10.1-15 15.2 -1.6 0.9-2.7 2.1-2.9 4.1 0 0 0-0.1 0-0.1 -1 0.4-1.1 1.2-1.1 2 0 0 0-0.1 0-0.1 -1.4 0-1.9 0.8-2 2.1 0 0 0-0.1 0-0.1 -0.8 0.4-1.1 1.2-1.1 2.1 0 0 0.1-0.1 0.1-0.1 -0.4 0.4-0.7 0.7-1.1 1.1 0 0 0.1-0.1 0.1-0.1 -0.4 0.7-0.7 1.4-1.1 2.1 0 0 0.1-0.1 0.1-0.1 -5.9 6.2-8.6 14.1-10.9 22.1 -0.2 0.1-0.4 0.1-0.7 0.1 -3.4 3.7-4 8.6-5.3 13.2 -0.6 2.2-2.9 4.2-1.2 6.8 -0.7 0.6-1.3 1.2-2 1.8C-1.4 442.7-1.4 433.3-1.4 424z"/><path fill="#B0D362" d="M-1.4 452c0.7-0.6 1.3-1.2 2-1.8 1.9-0.8 2.4-2.6 3.2-4.2 2.2-5 3.4-10.2 3.3-15.7 0.2 0 0.5-0.1 0.7-0.1 0.3 0 0.5 0 0.8 0 0.1 1.6 0.2 3.3 0.4 5.3 3.4-2.1 5.3-2.4 5.3 2.6 0.1 4.8 1.6 9.4 3.8 14.1 1.7 3.7 0.8 8.8 0.5 13.2 -0.2 3.7 0.7 6.7 2.6 9.8 4.4 7.1 5 14.6 1.1 22.1 -1 1.9 1.6 2.3 1.2 3.9 -7.3 0-14.7-0.1-22 0.1 -2.5 0.1-3.1-0.6-3.1-3.1C-1.3 482.7-1.4 467.3-1.4 452z"/><path fill="#FBFCFC" d="M403.6 209.2c9.8-9.6 19.4-19.5 30.2-28 18.2-14.3 39.8-20.8 61.2-27.8 1.6-0.5 2.9-0.3 3.4 1.6 -3.9 2.4-5.1 6.8-7.8 10.1 -5.6 6.7-9 15.2-16.5 20.3 -4.1-6.4-9.4-8.8-15.9-7.3 -5.7 1.3-9.9 6.5-10.4 12.5 -0.2 2.7 0.9 5.2 1.3 7.8 -0.3 1.5 0.2 2.4 1.8 2.5 0.7 0.6 1.3 1.2 2 1.8 5.2 5.6 1.2 9.1-2.9 12.7 -1.2 1.1-1.9 2.7-3.1 3.9 -19.9 19.9-39.3 40.2-61.4 57.8 -3.6 2.9-8.6 4.8-9.9 10.1 -1.4-1.1-2.8-2.3-4.1-3.4 0.6-0.8 1.1-1.6 1.8-2.3 10.1-10.1 20.2-20.2 30.2-30.4 6.2-6.2 12.5-12.5 18.7-18.7 0.9-0.9 2.4-1.7 0.9-3.2 -1.3-1.3-2.3-0.4-3.3 0.7 -0.7 0.7-1.4 1.4-2.1 2.1 -16.3 16.2-32.5 32.4-48.8 48.6 -3.8-3.5-7.6-7-11.4-10.6 -1.4-1.9 0.4-3 1.2-4.2 3.1-4.5 6.3-8.8 9.4-13.2C379.3 237.6 391.4 223.3 403.6 209.2z"/><path fill="#E9EAE6" d="M375.5 287.2c1.3-5.3 6.3-7.3 9.9-10.1 22.1-17.6 41.5-37.9 61.4-57.8 1.2-1.2 1.9-2.8 3.1-3.9 4.1-3.6 8.1-7 2.9-12.7 6.2 3.2 12.5 4.2 18.1-0.9 5-4.5 5.8-10.2 3.2-16.4 7.5-5.1 10.9-13.6 16.5-20.3 2.7-3.3 4-7.7 7.8-10.1 -7.2 28.6-17.7 55.4-39.3 76.7 -5.7 5.6-11.3 11.3-16.9 17 -13.9 12.1-28.2 23.6-42.7 35 -4.4 3.1-8.9 5.9-13 9.2 -2.5 2-4.5 2.3-6.9 0.2 -0.6-2.3-2.7-3.3-4.2-4.9C375.5 287.8 375.5 287.5 375.5 287.2z"/><path fill="#D84A46" d="M338.6 345.2c-15.6 5.6-31.4 10.5-47.4 14.8 -5.1 1.4-5.2 1.3-3.8-3.8 4.6-16.6 10.3-32.9 16.5-49 1.9-3.5 3.5-7.1 5.7-10.5 6.9-10.7 19.1-13.6 30-7.1 8 4.8 14.4 11.3 19.1 19.3 6.8 11.3 3.6 23.4-8.1 30.4C346.9 341.5 342.7 343.2 338.6 345.2zM296.5 350.9c3-0.9 4.8-1.5 6.5-2 13.6-3.9 27-8.2 40-13.9 11.9-5.2 14.6-14.6 7.6-25.3 -3.1-4.7-7.3-8.1-11.4-11.7 -10.8-9.2-20.8-3.2-25.1 5.4 -3 5.9-5.4 12.1-7.7 18.4C302.9 331.2 300 340.6 296.5 350.9z"/><path fill="#1A82AA" d="M403.6 209.2c-12.2 14.1-24.3 28.3-35.5 43.3 -2.3-1.3-4.9-0.7-7.3-0.7 -12.5 0-24.9 0.1-37.4 0.1 14.1-9.2 28.1-18.3 42.1-27.6 7.7-5.1 15.7-9.9 22.8-16.1C393.4 208.5 398.5 208.9 403.6 209.2z"/><path fill="#1A82AA" d="M442.6 259c1.1 2.9 1.2 5.7-0.7 8.5 -13.4 20-26.8 40.1-40.2 60.2 -0.4 0.5-0.8 1-1.8 2 0-13.6 0-26.6 0-39.6 1.5-1 3.2-1.8 4.6-2.9C417.3 277.9 429.9 268.5 442.6 259z"/><path fill="#D6CEBC" d="M29.6 231.9c-0.6-1.5-1.2-3.1-1.8-4.6 -3.1-7.1-0.4-15.2 6.4-18.9 6.1-3.3 14.3-0.9 18.3 5.4 1 1.5 1.4 3.4 3.3 4.3C48.4 225.2 39.6 229.8 29.6 231.9z"/><path fill="#D6CEBC" d="M74.6 162c-1.3 0.4-2.6 0.7-3.8 1.1 -7.7 2.4-14.1-0.1-17.4-6.6 -3.2-6.3-1.2-13.2 5.3-17.9 1.3-1 2.7-1.9 4.1-2.8C69.2 143.4 73.2 152.1 74.6 162z"/><path fill="#8C8CA2" d="M375.5 287.2c0 0.3 0 0.6 0 0.9 -5.6 3.6-10.2 8.3-14.9 12.8 -4.6-3.5-8.2-8.1-12.5-12 -2-1.8-1.6-3.2-0.2-5.1 3.3-4.6 6.4-9.2 9.6-13.8 3.8 3.5 7.6 7 11.4 10.6 -1.6 3.8-5.3 5.8-7.8 8.9 -0.6 0.8-1.4 1.7-0.5 2.6 1 1.1 1.7-0.1 2.4-0.7 2.9-2.4 4.9-5.8 8.5-7.6C372.8 284.9 374.2 286.1 375.5 287.2z"/><path fill="#5A5C79" d="M442.6 259c-12.7 9.4-25.3 18.8-38 28.2 -1.5 1.1-3.1 1.9-4.6 2.9 -0.1-2.2-0.2-4.4-0.4-6.6 14.5-11.3 28.8-22.9 42.7-35C442.4 252.1 442.5 255.6 442.6 259z"/><path fill="#8C8CA2" d="M388.3 208.2c-7 6.2-15 10.9-22.8 16.1 -14 9.3-28.1 18.4-42.1 27.6 -0.5 0-1.2 0.2-1.4 0 -1.3-1.3 0.4-1.5 0.9-1.8 5.5-3.7 11-7.4 16.5-11.1 14.5-9.6 29-19.3 43.5-28.9C384.5 208.9 386.1 207.6 388.3 208.2z"/><path fill="#5A5C79" d="M360.6 300.9c4.7-4.5 9.3-9.2 14.9-12.8 1.5 1.6 3.6 2.6 4.2 4.9 -2.2 5.1-7.9 6.1-11.5 9.4C364.8 305.5 362.5 304.8 360.6 300.9z"/><path fill="#D6CEBC" d="M15.2 43c2.3 0.2 3.7 1.5 3.8 3.7 0 2.1-1.3 3.4-3.3 3.6 -2.3 0.2-3.8-1.1-4-3.4C11.6 44.6 13.1 43.4 15.2 43z"/><path fill="#D6CEBC" d="M458.3 386.1c-0.4 2.3-1.7 3.8-4 3.6 -2-0.2-3.4-1.5-3.4-3.6 0-2.3 1.5-3.7 3.7-3.8C456.9 382.4 458.1 384 458.3 386.1z"/><path fill="#D6CEBC" d="M429.2 160.3c-0.3 2.3-1.2 3.8-3.7 3.8 -2.1 0-3.5-1.2-3.7-3.2 -0.2-2.3 1.1-3.8 3.4-4C427.6 156.7 428.7 158.3 429.2 160.3z"/><path fill="#D6CEBC" d="M257 274.7c-3.7 0.9-5.6-0.7-5.7-4.4 1.4-2.4 3.5-3.8 6-1.9C259.7 270.4 258.9 272.7 257 274.7z"/><path fill="#D6CEBC" d="M698.6 203.8c-0.4 2.2-1.7 3.6-4 3.4 -2.4-0.1-3.5-1.7-3.3-4 0.2-2.1 1.5-3.3 3.6-3.2C697.1 200.1 698.4 201.5 698.6 203.8z"/><path fill="#D6CEBC" d="M530.7 466.1c-0.2 2.2-1.5 3.7-3.7 3.7 -2.2 0-3.5-1.5-3.5-3.9 0-2.2 1.4-3.4 3.4-3.5C529.1 462.3 530.5 463.6 530.7 466.1z"/><path fill="#D6CEBC" d="M509.3 143.6c-0.7 0.7-1.4 1.3-2 2 -0.2-0.2-0.5-0.5-0.7-0.7 0.3-1 1-1.7 2-2C508.8 143.1 509 143.4 509.3 143.6z"/><path fill="#D6CEBC" d="M504.6 146.9c0.3-1 1-1.7 2-2 0.2 0.2 0.5 0.4 0.7 0.7 -0.7 0.7-1.3 1.3-2 2C505 147.3 504.8 147.1 504.6 146.9z"/><path fill="#D6CEBC" d="M502.6 149c0.2-1.1 0.9-1.7 2-2 0.2 0.2 0.5 0.4 0.7 0.6 -0.7 0.7-1.4 1.3-2.1 2C503 149.4 502.8 149.2 502.6 149z"/><path fill="#D6CEBC" d="M509.5 141.9c0.2-0.7 0.9-1.3 1.3-0.9 1 0.9-0.3 1.2-0.7 1.7C509.9 142.4 509.7 142.2 509.5 141.9z"/><path fill="#D6CEBC" d="M510.2 142.7c-0.3 0.3-0.6 0.6-0.9 0.9 -0.3-0.2-0.5-0.4-0.8-0.7 0.3-0.3 0.7-0.7 1-1C509.7 142.2 509.9 142.4 510.2 142.7z"/><path fill="#D6CEBC" d="M503.2 149.6c-0.4 0.1-1 0.3-1.1 0.2 -0.4-0.5 0.1-0.7 0.5-0.8C502.8 149.2 503 149.4 503.2 149.6z"/><path fill="#AED163" d="M42.5 379.9c0.7-3.2 3.4-4.9 5.7-6.7 24.7-19.6 52.4-31.5 84.2-33.4 11.3-0.7 22.5-0.6 33.6 1.3 2.1 0.3 4.1 1.3 6.1 1.9 1 2.7 3.5 2.7 5.6 3.4 1.9 0.6 3.9 0.9 5.1 2.7 -3.1-0.3-6.2-0.7-9.3-1 -3-1.6-6.4-0.8-9.5-1.5 -2-0.5-4.3 0.3-2.7-3.1 0.7-1.6-0.7-2-1.9-2.1 -1.2-0.1-2.1 0.5-1.5 1.7 1.6 3.3-1.2 4.1-3 5.5 -5.7 4.4-11.9 7.5-19.2 6.9 -1.2-0.1-4.4 0.3-4-1.7 0.4-2 0.9-5.6 4.9-4.9 2.3 0.4 4.6 0.3 6.9 0.7 1.7 0.2 2.9-0.4 4.1-1.3 1.5-1 0.9-2.7 0.4-3.6 -0.5-0.8-1.4 0-2.3 0.8 -1.7 1.4-4.6 1.7-6.9 1.2 -2.2-0.6-4.2-0.8-6.2 0.4 -0.5 0.3-1.5 0.4-1.8 0.2 -8.1-5.8-15.5-2.9-22.3 2.2 -2.6 1.9-5.4 3.4-8.9 5.5 8.6 0.2 15.6-2.5 22.8-4.3 2-0.5 4.7-2.6 5.7-0.1 1.3 2.9-1.8 4-4.2 4.8 -0.5 0.2-0.9 0.8-1.4 1.2 0.9 2.2 2.9 0.3 4 1.4 -0.6 2-2.5 3.2-4.1 3.9 -2.6 1.2-3.7 2.7-4.3 5.4 -0.6 2.6-1.9 4.9-5.1 6.1 -2.2 0.8-5.3 1.9-4.9 5.9 0.1 1.4-1.4 4-3.9 3.9 -2-0.1-2.9-1.7-3.1-3.8 -0.1-0.8-1.1-1.6-1.8-2.6 3.3-1.3 6.3-2.5 9.3-3.6 -5.5 0.5-7.1-7.4-13.4-5.6 2.6 2 1.6 2.9-0.7 3.9 -1.5 0.6-3.6 1.6-3.1 4 0.5 2.3 3 0.3 4.2 1.8 -4.1 2.6-7.9 0.5-13.4-0.3 2-0.9 2.9-1.3 4.3-1.9 -3.9-1.6-7-2.4-9.9-0.4 -1.4 1-2.4 1.2-4.2 0.9 -4.7-0.7-9.1 1.1-12.8 4.1 -1.6 1.3-2.8 2.7-5.1 2.5 -5.9-0.5-10.1 2.3-13.6 6.8 -2 2.6-4.3 5-6.7 7.2 0.3-4.2 3.9-6 6.2-8.8C42.2 385 44.9 383.1 42.5 379.9zM98 356.3c0.6-0.2 1.9-0.1 1.3-1.1 -0.4-0.8-1.3 0-1.8 0.7 -0.1 0.2-0.2 0.4-0.3 0.6C97.4 356.5 97.7 356.4 98 356.3z"/><path fill="#AED163" d="M184.6 351.9c4.6 1.9 9.3 3.5 12.7 7.8 -1.1 0.8-2.6 1.5-3.2 3.4 -0.5 1.5-1.9 3.5-3.9 3.4 -2.3-0.2-3.9-0.6-4.1 2.6 -0.1 1.5-2 1.4-3.4 1.3 -6.5-0.8-13.1-1.4-19.6-2.5 -4.8-0.9-8.8 1.7-13.3 2.2 -1.7 0.2-3.9 2.7-5.1-0.2 -0.9-2.3-1.6-4.6 0.9-7.1 3.9-4 9.2-4.7 13.8-6.9 3.8-1.8 8.9-1 10.8-6.2 0.2-0.5 2.1-0.3 3.3-0.5C177.3 349.9 181 350.9 184.6 351.9z"/><path fill="#AED163" d="M204.7 424c-4.2-0.7-8.2-2.6-12.8-2.2 -0.1-1.8 4.5-1.9 1.5-4.5 -0.2-0.1 1.1-2.7 2.2-3.3 1-0.5 2.4 0 1.9-1.9 -0.3-1.2-0.9-2.2-2.2-2.4 -1.3-0.2-2.2 0.7-2.8 1.8 -0.7 1.3-0.6 3.2-2.6 3.2 -1.9 0-4.4 1.1-5.7-0.7 -1.1-1.6 1.7-2.9 1.7-5.1 0-1.8 2.9-1.8 4.6-1.7 1.5 0.1 3 1 4.5 1.6 1.1-1.2-0.2-1.9-0.4-2.7 -0.3-1.3-1.6-3 0.2-3.9 1-0.5 2.5-1.8 3.7-0.8 1.1 1 2.7 3.3 2.2 4 -2.4 4.1 0.9 7 2.1 10.1C203.8 418.3 204.9 421 204.7 424 204.6 424 204.7 424 204.7 424z"/><path fill="#AED163" d="M179.7 375.1c1.6 3.1 4.7 2.6 7.3 3.4 1.4 0.4 2.5 1.1 2.3 2.7 -0.2 1.7-1.7 1.7-3.1 1.8C180 383.2 177.5 380.4 179.7 375.1z"/><path fill="#AED163" d="M8.6 430c-0.3 0-0.5 0-0.8 0 2.3-8 5-15.8 10.9-22.1 -0.1 3.5-1.8 6.3-3.6 9.2C12.6 421.2 10 425.3 8.6 430z"/><path fill="#1A82AA" d="M242 395.6c-0.6-1.1-1.3-2.3-1.9-3.4 1.9 0 3.8-0.1 5.7-0.1 -0.6 2-1.3 4-1.7 6.1 -0.2 1.1 1 3.2-1.3 2.5 -1.6-0.5-3.6-1.6-3-4.1 0-0.1 0.9 0 1.4 0.1 0.4-0.1 0.8-0.1 1.2-0.2C242.2 396.2 242.1 395.9 242 395.6z"/><path fill="#AED163" d="M27.6 398c1.8 0 2.9 0.5 2.2 2.6 -1.2 3.9-2.3 7.8-3.5 11.7 -2.5-1.2-1-2.5-0.7-3.8C26.4 405 29.4 401.9 27.6 398 27.7 397.9 27.6 398 27.6 398z"/><path fill="#AED163" d="M26 415.6c1.9 2.8 0.9 5.3 0.3 7.8C21.7 419.9 21.6 419 26 415.6z"/><path fill="#1A82AA" d="M184.6 351.9c-3.7-1-7.3-2-11-2.9 0-0.3 0-0.6 0-0.9 3.1 0.3 6.2 0.7 9.3 1C184.6 349.3 184.6 350.6 184.6 351.9z"/><path fill="#AED163" d="M216.6 371.1c-4 1.2-4.7-1.9-6.2-4.6C214.5 365.8 215.5 368.4 216.6 371.1L216.6 371.1z"/><path fill="#AED163" d="M24.7 399.1c0.2-1.9 1.3-3.2 2.9-4.1 0 1 0 2 0 3 0 0 0.1-0.1 0.1-0.1C26.5 397.9 26 399.6 24.7 399.1z"/><path fill="#AED163" d="M21.6 403.1c0.1-1.2 0.7-2 2-2.1C23.4 402.1 23 403.1 21.6 403.1z"/><path fill="#AED163" d="M23.6 401.1c-0.1-0.9 0.1-1.7 1.1-2C25.3 400.2 24.5 400.6 23.6 401.1z"/><path fill="#AED163" d="M20.6 405.1c0-0.9 0.2-1.6 1.1-2.1C21.8 403.9 21.5 404.6 20.6 405.1z"/><path fill="#AED163" d="M18.6 408.1c0.4-0.7 0.7-1.4 1.1-2.1C19.3 406.7 19 407.4 18.6 408.1z"/><polygon fill="#AED163" points="216.6 371 216.7 371.1 216.6 371.1 "/><path fill="#AED163" d="M19.6 406.1c0.4-0.4 0.7-0.7 1.1-1.1C20.3 405.3 20 405.7 19.6 406.1z"/><path fill="#1082AE" d="M233.2 463.5c-2.8-4-7.1-7-8.8-11.9 -0.6-1.8-1.2-3.3-0.5-4.8 10.3 7.6 13.9 19.3 17.6 31 1.1-2.9 4.9-4.9 1.6-8.2 -1.1-1.1 0.1-2.3 1.2-3.2 0.8-0.7 1.3-1.5 2.5-1 1.4 0.6 1.7 1.7 1.6 3.2 -0.1 1.8 0 3.7 0.6 5.3 2 5.7 7.8 8 14 5.4 1.7 5.3 0.2 10.1-1.5 15 -0.2 0.7-1.2 1.6-1.7 1.5 -6-0.6-12.4 0.9-17.3-4.5 -3.2-3.5-5.9-2.6-7 1.9 -0.9 3.4-1.9 4.3-4.9 1.7 -4.6-3.8-7.4-9.5-13.7-11.4 -1.8-0.6-2.6-2.4-0.6-4.8 3.2-3.8 1.2-7.6-3.8-8.4 -2.9-0.5-5.7-1.5-8.5-2.3 -3.9-1.1-7.8-2.1-11.7-0.8 -4.1 1.4-7.5 0.1-10.9-1.9 -1.3-0.8-3-1.6-2.1-3.3 0.8-1.4 2.7-1.4 4.1-0.6 3.4 2.1 6.3 1 9-1.3 1.1-0.9 2.3-1.6 2.4-3.5 0.1-2.5 2.2-4.3 4.3-4.1 4.2 0.4 4.2-5 7-5 2.7 0 5.3 2.7 8.4 0.9 2.1-1.2 3.6 0 4.2 2 1.3 3.9 3.9 6.8 6.7 9.7 2.4 2.5 4.6 5.4 4 9.3 -2.3 1.4-4.8-0.2-7.3-0.1 3.2 5.1 3.2 5.2 8 0.9 3.1-1-0.5-4.9 2.5-6 0.4 0.3 0.8 0.5 1.2 0.8 0.2 0 0.4 0.1 0.5 0.1 -0.1-0.1-0.2-0.2-0.3-0.3C233.6 464.4 233.4 463.9 233.2 463.5z"/><path fill="#1A82AA" d="M230.1 395.5c2.4 0.6 2.5 2 2 4.1 -1.6 6.4 0.8 9.8 7.2 10.5 -4.3 1.9-4.3 1.9-0.8 6.4 -3-1-4.2-0.3-3.6 2.7 0.5 2.4-0.5 3.9-3.4 2.8 -2.5-1-5.6 1.5-7.8-1.6 -0.3-0.5-1.9 0.1-1.6-1.2 0.2-0.7 1-1.8 1.5-1.7 7.8 0.6 3.8-6.5 6.2-9.3C225.4 403.9 228.4 399.8 230.1 395.5z"/><path fill="#D6CEBC" d="M13.8 207c-5.4-0.1-9.3-4.3-9.2-9.7 0.1-5.3 4.4-9.4 9.7-9.2 5.2 0.1 9.5 5 9.3 10.3C23.4 203.2 18.9 207.1 13.8 207z"/><path fill="#D6CEBC" d="M15.7 116c4.3 0 7.7 3.3 7.8 7.3 0.1 4-4.3 8.7-8.2 8.6 -4.6-0.1-7.8-3.4-7.7-7.9C7.6 119 10.7 116 15.7 116z"/><path fill="#D6CEBC" d="M26.6 161.3c-1 3.1-2.1 5.8-5.7 5.5 -3.2-0.2-5.3-2.3-5.2-5.5 0.1-3.2 2.2-5.2 5.4-5.3C24.7 156 25.6 158.9 26.6 161.3z"/><path fill="#D6CEBC" d="M59.6 187.4c-0.2 2.8-1.8 5.3-5 5.4 -3.3 0.1-5.1-1.8-5-5.4 0.1-3.4 1.6-5.3 5.1-5.3C58 182.1 59.5 183.8 59.6 187.4z"/><path fill="#D6CEBC" d="M34.6 150.4c1.7 0.2 2.8 1 2.9 2.8 0.1 1.9-0.5 3.4-2.6 3.6 -2 0.2-3.2-0.8-3.2-2.9C31.8 152.1 32.8 150.9 34.6 150.4z"/><path fill="#1A82AA" d="M7.1 430.2c0.1 5.5-1.1 10.7-3.3 15.7 -0.7 1.6-1.2 3.5-3.2 4.2 -1.7-2.6 0.5-4.7 1.2-6.8C3.1 438.8 3.7 433.9 7.1 430.2z"/><path fill="#1A82AA" d="M371.4 283.8c-3.5 1.7-5.5 5.2-8.5 7.6 -0.7 0.6-1.4 1.8-2.4 0.7 -0.9-0.9-0.1-1.8 0.5-2.6 2.5-3.1 6.2-5.1 7.8-8.9 16.3-16.2 32.5-32.4 48.8-48.6 0.7-0.7 1.5-1.4 2.1-2.1 1-1.1 2-2 3.3-0.7 1.5 1.5 0 2.3-0.9 3.2 -6.2 6.2-12.5 12.5-18.7 18.7 -10.1 10.1-20.2 20.2-30.2 30.4C372.5 282.2 372 283 371.4 283.8z"/><path fill="#8C8CA2" d="M474.1 185.3c2.6 6.2 1.8 11.9-3.2 16.4 -5.6 5.1-11.9 4.1-18.1 0.9 -0.7-0.6-1.3-1.2-2-1.8 -0.2-1.1-0.8-1.9-1.8-2.5 -0.5-2.6-1.5-5.1-1.3-7.8 0.5-6.1 4.8-11.2 10.4-12.5C464.7 176.5 469.9 178.9 474.1 185.3zM461.4 203.1c6.7 0.1 11.9-4.7 12.1-11.3 0.2-6.7-5-12-11.9-12 -6.6 0-11.8 5.1-11.8 11.6C449.7 198 454.8 203.1 461.4 203.1z"/><path fill="#E9EAE6" d="M449 198.4c0.9 0.6 1.6 1.4 1.8 2.5C449.3 200.8 448.7 199.9 449 198.4z"/><path fill="#DF7F35" d="M296.5 350.9c3.5-10.3 6.5-19.7 9.8-29.1 2.3-6.2 4.7-12.5 7.7-18.4 4.3-8.6 14.3-14.6 25.1-5.4 4.2 3.6 8.4 6.9 11.4 11.7 6.9 10.7 4.2 20.1-7.6 25.3 -12.9 5.7-26.4 10-40 13.9C301.2 349.4 299.5 350 296.5 350.9zM328.2 301c-3.5 0.1-5.6 2.2-7.2 5.2 -4.2 7.6-6.8 15.9-9.8 24 -1 2.6-3.4 5.9-1.8 7.8 1.9 2.3 5.2-0.4 7.7-1.2 8.2-2.6 16.5-5.2 24.2-9.1 6.8-3.5 7.8-7.4 3.4-13.5 -2.8-4-6.4-7.2-10-10.4C332.9 302.3 330.8 301.2 328.2 301z"/><path fill="#1082AE" d="M97.5 355.9c0.4-0.7 1.3-1.4 1.8-0.7 0.6 1-0.7 0.9-1.3 1.1C97.8 356.2 97.7 356 97.5 355.9z"/><path fill="#1082AE" d="M98 356.3c-0.3 0.1-0.5 0.1-0.8 0.2 0.1-0.2 0.2-0.4 0.3-0.6C97.7 356 97.8 356.2 98 356.3z"/><path fill="#B0D362" d="M242 395.6c0.1 0.3 0.2 0.5 0.3 0.8 -0.4 0.1-0.8 0.1-1.2 0.2C241.4 396.3 241.7 396 242 395.6z"/><path fill="#B0D362" d="M229.9 470.3c-4.8 4.2-4.8 4.2-8-0.9 2.5 0 5 1.5 7.3 0.1C229.4 469.7 229.6 470 229.9 470.3z"/><path fill="#B0D362" d="M233.5 465.1c-0.4-0.3-0.8-0.5-1.2-0.8 0.3-0.3 0.6-0.5 0.9-0.8 0.2 0.5 0.3 0.9 0.5 1.4L233.5 465.1z"/><path fill="#B0D362" d="M233.7 464.9c0.1 0.1 0.2 0.2 0.3 0.3 -0.2 0-0.4-0.1-0.5-0.1C233.5 465.1 233.7 464.9 233.7 464.9z"/><path fill="#B8DCEF" d="M461.4 203.1c-6.6-0.1-11.7-5.2-11.7-11.7 0-6.5 5.2-11.5 11.8-11.6 6.9 0 12.1 5.3 11.9 12C473.3 198.4 468.1 203.2 461.4 203.1zM456.7 186.1c3-0.7 6.1-1.1 10.6-0.7 -4.9-3.3-7.9-2.6-10.7 0.6 -0.4 0.4-0.8 0.9-1.2 1.3 0.1 0.1 0.2 0.2 0.4 0.3C456.1 187 456.4 186.6 456.7 186.1z"/><path fill="#FBCB41" d="M328.2 301c2.5 0.2 4.6 1.3 6.4 2.8 3.7 3.1 7.2 6.4 10 10.4 4.4 6.1 3.4 10.1-3.4 13.5 -7.7 3.9-16 6.6-24.2 9.1 -2.5 0.8-5.8 3.5-7.7 1.2 -1.6-1.9 0.9-5.3 1.8-7.8 3-8.1 5.6-16.3 9.8-24C322.6 303.2 324.7 301.1 328.2 301z"/><path fill="#E9EAE6" d="M456.6 186c2.7-3.2 5.8-3.9 10.7-0.6 -4.5-0.4-7.5 0-10.6 0.7L456.6 186z"/><path fill="#E9EAE6" d="M456.7 186.1c-0.3 0.5-0.6 1-0.9 1.5 -0.1-0.1-0.2-0.2-0.4-0.3 0.4-0.4 0.8-0.9 1.2-1.3C456.6 186 456.7 186.1 456.7 186.1z"/></svg>