
<svg xmlns="http://www.w3.org/2000/svg" version="1.1" id="Layer_1" x="0" y="0" viewBox="0 0 500 500" enable-background="new 0 0 500 500" xml:space="preserve"><circle fill="#38797E" cx="250" cy="198.4" r="144"/><path fill="#E5E5E5" d="M309.2 293.6c-63.7 41.4-152.3 4.3-168.8-70.7C126.1 157.6 171 94.3 237.2 86.7c60.2-7 115 35.3 123.8 95.5 2.5 17.4 1.6 34.6-4.6 51.2 -3.2 1.7-4.6-1.2-6.3-2.8 -8.8-8.6-17.5-17.4-26.2-26.1 -1.8-1.8-3.4-3.8-6.2-4.1 -18.5-0.6-36.9-0.1-55.3-0.2 -14.1-0.1-14.1 0-14.1-14.4 0-18.8 0-37.6 0-56.4 0-7.6-3.8-10.1-11.2-7.9 -1.7 0.5-2.4 1.5-2.6 3.1 -0.2 2-0.2 4-0.2 6 0 27.6 0 55.2 0 82.7 -0.4 2.5 1 4.1 2.6 5.7 18.3 18 36.5 36.3 54.6 54.5 5.2 5.2 10.7 9.9 15.4 15.5C308 290.3 309.7 291.4 309.2 293.6z"/><path fill="#D2D2D2" d="M320.4 199.4c10.2 10.1 20.5 20.3 30.8 30.4 1.5 1.5 2.7 3.6 5.2 3.6 -3.6 14-11 26-20.1 36.9 -7.7 9.2-16.4 17.5-27.1 23.2 -8.4-10-18.3-18.5-27.4-27.9 -16.2-16.8-33.5-32.6-49.3-49.9 2.5-2.1 5.5-1.6 8.4-1.6 23.2 0 46.4 0 69.6 0 7.5 0 7.6-0.2 7.9-7.6C318.5 204 318.1 201.3 320.4 199.4z"/><path fill="#4B5153" d="M320.4 199.4c-0.1 4.2-0.3 8.4-0.1 12.6 0.2 3.1-1 4-4 4 -27.9-0.2-55.8-0.2-83.7-0.2 0-30.7 0-61.4-0.1-92.1 0-3.3 0.7-4.3 4.2-4.4 13.4-0.1 13.4-0.2 13.4 13.2 0 20.5 0.1 40.9-0.1 61.4 0 3.6 0.9 4.6 4.5 4.6 20.1-0.2 40.2-0.1 60.3 0C316.7 198.4 318.8 197.4 320.4 199.4z"/><rect x="57.3" y="360.6" fill="none" width="385.5" height="85"/><g enable-background="new    "><path d="M65.3 377.7h8.4v1.2h-9.8v-17.1h1.4V377.7z"/><path d="M75.5 372.4c0-1.9 0.5-3.4 1.5-4.6s2.4-1.8 4.1-1.8c1.7 0 3.1 0.6 4.1 1.8s1.5 2.7 1.5 4.6v0.4c0 1.9-0.5 3.5-1.5 4.6s-2.4 1.8-4.1 1.8c-1.7 0-3.1-0.6-4.1-1.8s-1.5-2.7-1.5-4.6V372.4zM76.9 372.8c0 1.5 0.4 2.7 1.1 3.7s1.8 1.5 3.1 1.5c1.3 0 2.4-0.5 3.1-1.5s1.1-2.2 1.1-3.7v-0.4c0-1.5-0.4-2.7-1.1-3.7s-1.8-1.5-3.1-1.5c-1.3 0-2.4 0.5-3.1 1.5s-1.1 2.2-1.1 3.7V372.8z"/><path d="M88.9 372.4c0-1.9 0.5-3.4 1.5-4.6s2.4-1.8 4.1-1.8c1.7 0 3.1 0.6 4.1 1.8s1.5 2.7 1.5 4.6v0.4c0 1.9-0.5 3.5-1.5 4.6s-2.4 1.8-4.1 1.8c-1.7 0-3.1-0.6-4.1-1.8s-1.5-2.7-1.5-4.6V372.4zM90.3 372.8c0 1.5 0.4 2.7 1.1 3.7s1.8 1.5 3.1 1.5c1.3 0 2.4-0.5 3.1-1.5s1.1-2.2 1.1-3.7v-0.4c0-1.5-0.4-2.7-1.1-3.7s-1.8-1.5-3.1-1.5c-1.3 0-2.4 0.5-3.1 1.5s-1.1 2.2-1.1 3.7V372.8z"/><path d="M106.1 372.7h-1.6v6.2H103v-18.3h1.4v10.9h1.5l4.7-5.3h1.7l-5.1 5.8 5.6 6.9h-1.7L106.1 372.7z"/><path d="M122.4 375.7c0-0.6-0.2-1.1-0.7-1.6s-1.4-0.8-2.7-1.1c-1.5-0.3-2.7-0.8-3.4-1.3s-1.1-1.3-1.1-2.3c0-1 0.4-1.8 1.2-2.5s1.9-1 3.3-1c1.5 0 2.6 0.3 3.4 1s1.2 1.6 1.2 2.7h-1.4c0-0.7-0.3-1.3-0.9-1.8s-1.4-0.8-2.4-0.8c-1 0-1.8 0.2-2.3 0.7s-0.8 1-0.8 1.6c0 0.6 0.2 1.1 0.6 1.5s1.3 0.7 2.7 1c1.5 0.3 2.7 0.8 3.4 1.4s1.1 1.4 1.1 2.4c0 1.1-0.4 1.9-1.3 2.6s-2 1-3.4 1c-1.6 0-2.8-0.4-3.7-1.1s-1.3-1.6-1.3-2.7h1.4c0.1 0.9 0.4 1.6 1.1 2s1.5 0.6 2.5 0.6c1 0 1.8-0.2 2.4-0.7S122.4 376.3 122.4 375.7z"/><path d="M134.4 378.9H133v-18.3h1.4V378.9z"/><path d="M139.9 362.6h-1.4v-2h1.4V362.6zM139.9 378.9h-1.4v-12.7h1.4V378.9z"/><path d="M146.8 372.7h-1.6v6.2h-1.4v-18.3h1.4v10.9h1.5l4.7-5.3h1.7L148 372l5.6 6.9h-1.7L146.8 372.7z"/><path d="M160.2 379.1c-1.7 0-3.1-0.6-4.1-1.7s-1.6-2.6-1.6-4.5v-0.6c0-1.9 0.5-3.4 1.6-4.5s2.3-1.8 3.8-1.8c1.6 0 2.8 0.5 3.7 1.4s1.3 2.3 1.3 4v1.2h-9v0.3c0 1.5 0.4 2.7 1.2 3.6s1.8 1.4 3.1 1.4c0.8 0 1.5-0.1 2-0.3s1.1-0.6 1.7-1.1l0.6 1c-0.5 0.5-1.1 0.9-1.7 1.2S161.2 379.1 160.2 379.1zM159.9 367.2c-1.1 0-1.9 0.4-2.6 1.2s-1.1 1.8-1.3 3.1h7.5v-0.4c0-1.1-0.3-2.1-0.9-2.8S161 367.2 159.9 367.2z"/><path d="M177.1 375.5l0.5 1.6h0l3.8-10.8h1.6l-5.5 14.7c-0.3 0.9-0.8 1.6-1.3 2.2S175 384 174 384c-0.2 0-0.4 0-0.6-0.1s-0.4-0.1-0.5-0.1l0.2-1.2c0.1 0 0.2 0 0.5 0.1s0.4 0 0.5 0c0.6 0 1.1-0.2 1.4-0.5s0.6-1 1-1.8l0.7-1.7 -4.9-12.5h1.6L177.1 375.5z"/><path d="M184.3 372.4c0-1.9 0.5-3.4 1.5-4.6s2.4-1.8 4.1-1.8c1.7 0 3.1 0.6 4.1 1.8s1.5 2.7 1.5 4.6v0.4c0 1.9-0.5 3.5-1.5 4.6s-2.4 1.8-4.1 1.8c-1.7 0-3.1-0.6-4.1-1.8s-1.5-2.7-1.5-4.6V372.4zM185.7 372.8c0 1.5 0.4 2.7 1.1 3.7s1.8 1.5 3.1 1.5c1.3 0 2.4-0.5 3.1-1.5s1.1-2.2 1.1-3.7v-0.4c0-1.5-0.4-2.7-1.1-3.7s-1.8-1.5-3.1-1.5c-1.3 0-2.4 0.5-3.1 1.5s-1.1 2.2-1.1 3.7V372.8z"/><path d="M206.8 376.9L206.8 376.9c-0.4 0.7-1 1.3-1.6 1.7s-1.5 0.6-2.4 0.6c-1.4 0-2.4-0.4-3.2-1.3s-1.1-2.3-1.1-4.2v-7.3h1.4v7.4c0 1.6 0.3 2.7 0.8 3.4s1.3 1 2.3 1c1.1 0 1.9-0.2 2.6-0.7s1.1-1.1 1.3-2v-9h1.4v12.7h-1.2L206.8 376.9z"/><path d="M213.2 362.7c0 0.8-0.1 1.5-0.4 2.1s-0.7 1.3-1.2 1.7l-0.8-0.6c0.4-0.5 0.6-1 0.8-1.5s0.3-1.1 0.3-1.7v-2.1h1.4V362.7z"/><path d="M221.9 367.4l-1-0.1c-0.9 0-1.6 0.2-2.2 0.7s-1 1.2-1.2 2.1v8.8h-1.4v-12.7h1.2l0.2 2.1v0.1l0 0c0.4-0.8 0.8-1.4 1.4-1.8s1.3-0.6 2.2-0.6c0.2 0 0.4 0 0.5 0s0.3 0.1 0.4 0.1L221.9 367.4z"/><path d="M228.9 379.1c-1.7 0-3.1-0.6-4.1-1.7s-1.6-2.6-1.6-4.5v-0.6c0-1.9 0.5-3.4 1.6-4.5s2.3-1.8 3.8-1.8c1.6 0 2.8 0.5 3.7 1.4s1.3 2.3 1.3 4v1.2h-9v0.3c0 1.5 0.4 2.7 1.2 3.6s1.8 1.4 3.1 1.4c0.8 0 1.5-0.1 2-0.3s1.1-0.6 1.7-1.1l0.6 1c-0.5 0.5-1.1 0.9-1.7 1.2S229.9 379.1 228.9 379.1zM228.6 367.2c-1.1 0-1.9 0.4-2.6 1.2s-1.1 1.8-1.3 3.1h7.5v-0.4c0-1.1-0.3-2.1-0.9-2.8S229.7 367.2 228.6 367.2z"/><path d="M250.2 378.9c-0.1-0.4-0.2-0.8-0.2-1.1s-0.1-0.6-0.1-0.9l0 0c-0.5 0.7-1.1 1.2-1.8 1.6s-1.6 0.6-2.6 0.6c-1.3 0-2.2-0.3-2.9-1s-1-1.5-1-2.6c0-1.2 0.5-2.1 1.5-2.8s2.4-1 4.1-1h2.8v-1.6c0-0.9-0.3-1.6-0.9-2.1s-1.4-0.8-2.5-0.8c-1 0-1.8 0.2-2.4 0.7s-0.9 1.1-0.9 1.8l-1.4 0c0-1 0.5-1.9 1.4-2.6s2.1-1.1 3.5-1.1 2.6 0.3 3.4 1 1.3 1.7 1.3 3.1v6.2c0 0.5 0 0.9 0.1 1.3s0.1 0.8 0.3 1.3H250.2zM245.6 377.9c1 0 1.9-0.2 2.7-0.7s1.3-1.1 1.7-1.8v-2.6h-2.8c-1.3 0-2.3 0.3-3.1 0.8s-1.1 1.2-1.1 2c0 0.7 0.2 1.3 0.7 1.7S244.8 377.9 245.6 377.9z"/><path d="M262.5 378.9h-1.4v-18.3h1.4V378.9z"/><path d="M268 362.6h-1.4v-2h1.4V362.6zM268 378.9h-1.4v-12.7h1.4V378.9z"/><path d="M273.9 363v3.2h2.7v1.1h-2.7v8.3c0 0.8 0.1 1.4 0.4 1.8s0.7 0.5 1.1 0.5c0.2 0 0.4 0 0.6 0s0.4-0.1 0.6-0.1l0.2 1.1c-0.2 0.1-0.5 0.2-0.8 0.2s-0.6 0.1-0.9 0.1c-0.9 0-1.5-0.3-2-0.8s-0.7-1.4-0.7-2.7v-8.3h-2.1v-1.1h2.1V363H273.9z"/><path d="M281.5 363v3.2h2.7v1.1h-2.7v8.3c0 0.8 0.1 1.4 0.4 1.8s0.7 0.5 1.1 0.5c0.2 0 0.4 0 0.6 0s0.4-0.1 0.6-0.1l0.2 1.1c-0.2 0.1-0.5 0.2-0.8 0.2s-0.6 0.1-0.9 0.1c-0.9 0-1.5-0.3-2-0.8s-0.7-1.4-0.7-2.7v-8.3H278v-1.1h2.1V363H281.5z"/><path d="M288.7 378.9h-1.4v-18.3h1.4V378.9z"/><path d="M297.4 379.1c-1.7 0-3.1-0.6-4.1-1.7s-1.6-2.6-1.6-4.5v-0.6c0-1.9 0.5-3.4 1.6-4.5s2.3-1.8 3.8-1.8c1.6 0 2.8 0.5 3.7 1.4s1.3 2.3 1.3 4v1.2h-9v0.3c0 1.5 0.4 2.7 1.2 3.6s1.8 1.4 3.1 1.4c0.8 0 1.5-0.1 2-0.3s1.1-0.6 1.7-1.1l0.6 1c-0.5 0.5-1.1 0.9-1.7 1.2S298.4 379.1 297.4 379.1zM297.1 367.2c-1.1 0-1.9 0.4-2.6 1.2s-1.1 1.8-1.3 3.1h7.5v-0.4c0-1.1-0.3-2.1-0.9-2.8S298.3 367.2 297.1 367.2z"/><path d="M321 372.9c0 1.9-0.4 3.4-1.3 4.6s-2 1.7-3.6 1.7c-0.9 0-1.7-0.2-2.4-0.5s-1.2-0.9-1.6-1.6l0 0 -0.2 1.9h-1.2v-18.3h1.4v7.5l0 0c0.4-0.7 0.9-1.2 1.6-1.6s1.4-0.6 2.3-0.6c1.6 0 2.8 0.6 3.6 1.8s1.3 2.8 1.3 4.9V372.9zM319.5 372.7c0-1.6-0.3-3-0.9-4s-1.5-1.5-2.8-1.5c-1 0-1.8 0.2-2.4 0.7s-1 1.1-1.3 1.9v5.7c0.3 0.7 0.8 1.3 1.4 1.8s1.4 0.6 2.3 0.6c1.3 0 2.2-0.4 2.8-1.3s0.9-2.1 0.9-3.7V372.7z"/><path d="M325.7 362.6h-1.4v-2h1.4V362.6zM325.7 378.9h-1.4v-12.7h1.4V378.9z"/><path d="M331.6 363v3.2h2.7v1.1h-2.7v8.3c0 0.8 0.1 1.4 0.4 1.8s0.7 0.5 1.1 0.5c0.2 0 0.4 0 0.6 0s0.4-0.1 0.6-0.1l0.2 1.1c-0.2 0.1-0.5 0.2-0.8 0.2s-0.6 0.1-0.9 0.1c-0.9 0-1.5-0.3-2-0.8s-0.7-1.4-0.7-2.7v-8.3h-2.1v-1.1h2.1V363H331.6z"/><path d="M345 363v3.2h2.7v1.1H345v8.3c0 0.8 0.1 1.4 0.4 1.8s0.7 0.5 1.1 0.5c0.2 0 0.4 0 0.6 0s0.4-0.1 0.6-0.1l0.2 1.1c-0.2 0.1-0.5 0.2-0.8 0.2s-0.6 0.1-0.9 0.1c-0.9 0-1.5-0.3-2-0.8s-0.7-1.4-0.7-2.7v-8.3h-2.1v-1.1h2.1V363H345z"/><path d="M349.6 372.4c0-1.9 0.5-3.4 1.5-4.6s2.4-1.8 4.1-1.8c1.7 0 3.1 0.6 4.1 1.8s1.5 2.7 1.5 4.6v0.4c0 1.9-0.5 3.5-1.5 4.6s-2.4 1.8-4.1 1.8c-1.7 0-3.1-0.6-4.1-1.8s-1.5-2.7-1.5-4.6V372.4zM351 372.8c0 1.5 0.4 2.7 1.1 3.7s1.8 1.5 3.1 1.5c1.3 0 2.4-0.5 3.1-1.5s1.1-2.2 1.1-3.7v-0.4c0-1.5-0.4-2.7-1.1-3.7s-1.8-1.5-3.1-1.5c-1.3 0-2.4 0.5-3.1 1.5s-1.1 2.2-1.1 3.7V372.8z"/><path d="M363 372.4c0-1.9 0.5-3.4 1.5-4.6s2.4-1.8 4.1-1.8c1.7 0 3.1 0.6 4.1 1.8s1.5 2.7 1.5 4.6v0.4c0 1.9-0.5 3.5-1.5 4.6s-2.4 1.8-4.1 1.8c-1.7 0-3.1-0.6-4.1-1.8s-1.5-2.7-1.5-4.6V372.4zM364.4 372.8c0 1.5 0.4 2.7 1.1 3.7s1.8 1.5 3.1 1.5c1.3 0 2.4-0.5 3.1-1.5s1.1-2.2 1.1-3.7v-0.4c0-1.5-0.4-2.7-1.1-3.7s-1.8-1.5-3.1-1.5c-1.3 0-2.4 0.5-3.1 1.5s-1.1 2.2-1.1 3.7V372.8z"/><path d="M387.8 379.1c-1.7 0-3.1-0.6-4.1-1.7s-1.6-2.6-1.6-4.5v-0.6c0-1.9 0.5-3.4 1.6-4.5s2.3-1.8 3.8-1.8c1.6 0 2.8 0.5 3.7 1.4s1.3 2.3 1.3 4v1.2h-9v0.3c0 1.5 0.4 2.7 1.2 3.6s1.8 1.4 3.1 1.4c0.8 0 1.5-0.1 2-0.3s1.1-0.6 1.7-1.1l0.6 1c-0.5 0.5-1.1 0.9-1.7 1.2S388.8 379.1 387.8 379.1zM387.5 367.2c-1.1 0-1.9 0.4-2.6 1.2s-1.1 1.8-1.3 3.1h7.5v-0.4c0-1.1-0.3-2.1-0.9-2.8S388.7 367.2 387.5 367.2z"/><path d="M403.3 378.9c-0.1-0.4-0.2-0.8-0.2-1.1s-0.1-0.6-0.1-0.9l0 0c-0.5 0.7-1.1 1.2-1.8 1.6s-1.6 0.6-2.6 0.6c-1.3 0-2.2-0.3-2.9-1s-1-1.5-1-2.6c0-1.2 0.5-2.1 1.5-2.8s2.4-1 4.1-1h2.8v-1.6c0-0.9-0.3-1.6-0.9-2.1s-1.4-0.8-2.5-0.8c-1 0-1.8 0.2-2.4 0.7s-0.9 1.1-0.9 1.8l-1.4 0c0-1 0.5-1.9 1.4-2.6s2.1-1.1 3.5-1.1 2.6 0.3 3.4 1 1.3 1.7 1.3 3.1v6.2c0 0.5 0 0.9 0.1 1.3s0.1 0.8 0.3 1.3H403.3zM398.7 377.9c1 0 1.9-0.2 2.7-0.7s1.3-1.1 1.7-1.8v-2.6h-2.8c-1.3 0-2.3 0.3-3.1 0.8s-1.1 1.2-1.1 2c0 0.7 0.2 1.3 0.7 1.7S397.9 377.9 398.7 377.9z"/><path d="M414 367.4l-1-0.1c-0.9 0-1.6 0.2-2.2 0.7s-1 1.2-1.2 2.1v8.8h-1.4v-12.7h1.2l0.2 2.1v0.1l0 0c0.4-0.8 0.8-1.4 1.4-1.8s1.3-0.6 2.2-0.6c0.2 0 0.4 0 0.5 0s0.3 0.1 0.4 0.1L414 367.4z"/><path d="M417.9 378.9h-1.4v-18.3h1.4V378.9z"/><path d="M425.4 375.5l0.5 1.6h0l3.8-10.8h1.6l-5.5 14.7c-0.3 0.9-0.8 1.6-1.3 2.2s-1.3 0.9-2.3 0.9c-0.2 0-0.4 0-0.6-0.1s-0.4-0.1-0.5-0.1l0.2-1.2c0.1 0 0.2 0 0.5 0.1s0.4 0 0.5 0c0.6 0 1.1-0.2 1.4-0.5s0.6-1 1-1.8l0.7-1.7 -4.9-12.5h1.6L425.4 375.5z"/><path d="M434 378.9h-1.6v-1.9h1.6V378.9z"/></g><g enable-background="new    "><path d="M72.3 402.9l0.5 2.7h0l0.7-2.7 3.6-12.2h1.3l3.6 12.2 0.6 2.7h0l0.6-2.7 3-12.2h1.4l-4.3 17.1h-1.3l-3.8-13.1 -0.5-1.9h0l-0.5 1.9 -3.9 13.1h-1.3l-4.3-17.1h1.4L72.3 402.9z"/><path d="M91.8 397.3L91.8 397.3c0.5-0.8 1-1.4 1.7-1.8s1.5-0.7 2.4-0.7c1.4 0 2.4 0.4 3.1 1.2s1.1 2.1 1.1 3.9v7.8h-1.4v-7.8c0-1.4-0.3-2.4-0.8-3s-1.3-0.9-2.3-0.9c-0.9 0-1.7 0.3-2.3 0.8s-1.1 1.2-1.5 2v8.9h-1.4v-18.3h1.4V397.3z"/><path d="M107.4 404.3l0.5 1.6h0l3.8-10.8h1.6l-5.5 14.7c-0.3 0.9-0.8 1.6-1.3 2.2s-1.3 0.9-2.3 0.9c-0.2 0-0.4 0-0.6-0.1s-0.4-0.1-0.5-0.1l0.2-1.2c0.1 0 0.2 0 0.5 0.1s0.4 0 0.5 0c0.6 0 1.1-0.2 1.4-0.5s0.6-1 1-1.8l0.7-1.7 -4.9-12.5h1.6L107.4 404.3z"/><path d="M120.8 401.5c0-2.1 0.4-3.7 1.3-4.9s2-1.8 3.6-1.8c0.9 0 1.7 0.2 2.3 0.5s1.2 0.9 1.6 1.6l0 0v-7.5h1.4v18.3h-1.2l-0.1-1.8 0 0c-0.4 0.7-1 1.2-1.6 1.5s-1.4 0.5-2.3 0.5c-1.5 0-2.7-0.6-3.6-1.7s-1.3-2.6-1.3-4.6V401.5zM122.2 401.7c0 1.6 0.3 2.8 0.9 3.7s1.5 1.3 2.8 1.3c0.9 0 1.7-0.2 2.3-0.6s1.1-1 1.4-1.7v-6c-0.3-0.8-0.8-1.3-1.4-1.8s-1.3-0.7-2.3-0.7c-1.3 0-2.2 0.5-2.8 1.5s-0.9 2.3-0.9 4V401.7z"/><path d="M133.9 401.2c0-1.9 0.5-3.4 1.5-4.6s2.4-1.8 4.1-1.8c1.7 0 3.1 0.6 4.1 1.8s1.5 2.7 1.5 4.6v0.4c0 1.9-0.5 3.5-1.5 4.6s-2.4 1.8-4.1 1.8c-1.7 0-3.1-0.6-4.1-1.8s-1.5-2.7-1.5-4.6V401.2zM135.3 401.6c0 1.5 0.4 2.7 1.1 3.7s1.8 1.5 3.1 1.5c1.3 0 2.4-0.5 3.1-1.5s1.1-2.2 1.1-3.7v-0.4c0-1.5-0.4-2.7-1.1-3.7s-1.8-1.5-3.1-1.5c-1.3 0-2.4 0.5-3.1 1.5s-1.1 2.2-1.1 3.7V401.6z"/><path d="M149.3 395l0.1 2.3 0 0c0.4-0.8 1-1.4 1.7-1.9s1.5-0.7 2.4-0.7c1.4 0 2.4 0.4 3.1 1.2s1.1 2.1 1.1 3.9v7.9h-1.4v-7.8c0-1.4-0.3-2.4-0.8-3s-1.3-0.8-2.3-0.8c-1 0-1.7 0.3-2.4 0.8s-1.1 1.2-1.4 2.1v8.8h-1.4V395H149.3z"/><path d="M163.4 391.8v3.2h2.7v1.1h-2.7v8.3c0 0.8 0.1 1.4 0.4 1.8s0.7 0.5 1.1 0.5c0.2 0 0.4 0 0.6 0s0.4-0.1 0.6-0.1l0.2 1.1c-0.2 0.1-0.5 0.2-0.8 0.2s-0.6 0.1-0.9 0.1c-0.9 0-1.5-0.3-2-0.8s-0.7-1.4-0.7-2.7v-8.3h-2.1V395h2.1v-3.2H163.4z"/><path d="M178.5 404.3l0.5 1.6h0l3.8-10.8h1.6l-5.5 14.7c-0.3 0.9-0.8 1.6-1.3 2.2s-1.3 0.9-2.3 0.9c-0.2 0-0.4 0-0.6-0.1s-0.4-0.1-0.5-0.1l0.2-1.2c0.1 0 0.2 0 0.5 0.1s0.4 0 0.5 0c0.6 0 1.1-0.2 1.4-0.5s0.6-1 1-1.8l0.7-1.7 -4.9-12.5h1.6L178.5 404.3z"/><path d="M185.6 401.2c0-1.9 0.5-3.4 1.5-4.6s2.4-1.8 4.1-1.8c1.7 0 3.1 0.6 4.1 1.8s1.5 2.7 1.5 4.6v0.4c0 1.9-0.5 3.5-1.5 4.6s-2.4 1.8-4.1 1.8c-1.7 0-3.1-0.6-4.1-1.8s-1.5-2.7-1.5-4.6V401.2zM187.1 401.6c0 1.5 0.4 2.7 1.1 3.7s1.8 1.5 3.1 1.5c1.3 0 2.4-0.5 3.1-1.5s1.1-2.2 1.1-3.7v-0.4c0-1.5-0.4-2.7-1.1-3.7s-1.8-1.5-3.1-1.5c-1.3 0-2.4 0.5-3.1 1.5s-1.1 2.2-1.1 3.7V401.6z"/><path d="M208.1 405.7L208.1 405.7c-0.4 0.7-1 1.3-1.6 1.7s-1.5 0.6-2.4 0.6c-1.4 0-2.4-0.4-3.2-1.3s-1.1-2.3-1.1-4.2V395h1.4v7.4c0 1.6 0.3 2.7 0.8 3.4s1.3 1 2.3 1c1.1 0 1.9-0.2 2.6-0.7s1.1-1.1 1.3-2v-9h1.4v12.7h-1.2L208.1 405.7z"/><path d="M223.7 406.8c1 0 1.8-0.3 2.4-0.8s1-1.2 1.1-2.2h1.3c0 1.2-0.5 2.2-1.5 3s-2.1 1.2-3.4 1.2c-1.8 0-3.1-0.6-4-1.7s-1.4-2.7-1.4-4.6v-0.5c0-1.9 0.5-3.4 1.4-4.6s2.3-1.8 4-1.8c1.4 0 2.6 0.4 3.5 1.2s1.4 1.9 1.4 3.3h-1.3c0-1-0.4-1.8-1.1-2.4s-1.5-0.9-2.5-0.9c-1.4 0-2.4 0.5-3 1.4s-1 2.2-1 3.7v0.5c0 1.5 0.3 2.8 1 3.7S222.3 406.8 223.7 406.8z"/><path d="M232.8 397.3L232.8 397.3c0.5-0.8 1-1.4 1.7-1.8s1.5-0.7 2.4-0.7c1.4 0 2.4 0.4 3.1 1.2s1.1 2.1 1.1 3.9v7.8h-1.4v-7.8c0-1.4-0.3-2.4-0.8-3s-1.3-0.9-2.3-0.9c-0.9 0-1.7 0.3-2.3 0.8s-1.1 1.2-1.5 2v8.9h-1.4v-18.3h1.4V397.3z"/><path d="M249.7 407.9c-1.7 0-3.1-0.6-4.1-1.7s-1.6-2.6-1.6-4.5v-0.6c0-1.9 0.5-3.4 1.6-4.5s2.3-1.8 3.8-1.8c1.6 0 2.8 0.5 3.7 1.4s1.3 2.3 1.3 4v1.2h-9v0.3c0 1.5 0.4 2.7 1.2 3.6s1.8 1.4 3.1 1.4c0.8 0 1.5-0.1 2-0.3s1.1-0.6 1.7-1.1l0.6 1c-0.5 0.5-1.1 0.9-1.7 1.2S250.7 407.9 249.7 407.9zM249.4 396c-1.1 0-1.9 0.4-2.6 1.2s-1.1 1.8-1.3 3.1h7.5v-0.4c0-1.1-0.3-2.1-0.9-2.8S250.5 396 249.4 396z"/><path d="M261.8 406.8c1 0 1.8-0.3 2.4-0.8s1-1.2 1.1-2.2h1.3c0 1.2-0.5 2.2-1.5 3s-2.1 1.2-3.4 1.2c-1.8 0-3.1-0.6-4-1.7s-1.4-2.7-1.4-4.6v-0.5c0-1.9 0.5-3.4 1.4-4.6s2.3-1.8 4-1.8c1.4 0 2.6 0.4 3.5 1.2s1.4 1.9 1.4 3.3h-1.3c0-1-0.4-1.8-1.1-2.4s-1.5-0.9-2.5-0.9c-1.4 0-2.4 0.5-3 1.4s-1 2.2-1 3.7v0.5c0 1.5 0.3 2.8 1 3.7S260.4 406.8 261.8 406.8z"/><path d="M272.6 401.5H271v6.2h-1.4v-18.3h1.4v10.9h1.5l4.7-5.3h1.7l-5.1 5.8 5.6 6.9h-1.7L272.6 401.5z"/><path d="M289.2 391.8v3.2h2.7v1.1h-2.7v8.3c0 0.8 0.1 1.4 0.4 1.8s0.7 0.5 1.1 0.5c0.2 0 0.4 0 0.6 0s0.4-0.1 0.6-0.1l0.2 1.1c-0.2 0.1-0.5 0.2-0.8 0.2s-0.6 0.1-0.9 0.1c-0.9 0-1.5-0.3-2-0.8s-0.7-1.4-0.7-2.7v-8.3h-2.1V395h2.1v-3.2H289.2z"/><path d="M296.2 397.3L296.2 397.3c0.5-0.8 1-1.4 1.7-1.8s1.5-0.7 2.4-0.7c1.4 0 2.4 0.4 3.1 1.2s1.1 2.1 1.1 3.9v7.8h-1.4v-7.8c0-1.4-0.3-2.4-0.8-3s-1.3-0.9-2.3-0.9c-0.9 0-1.7 0.3-2.3 0.8s-1.1 1.2-1.5 2v8.9h-1.4v-18.3h1.4V397.3z"/><path d="M309.7 391.4h-1.4v-2h1.4V391.4zM309.7 407.7h-1.4V395h1.4V407.7z"/><path d="M321.2 404.5c0-0.6-0.2-1.1-0.7-1.6s-1.4-0.8-2.7-1.1c-1.5-0.3-2.7-0.8-3.4-1.3s-1.1-1.3-1.1-2.3c0-1 0.4-1.8 1.2-2.5s1.9-1 3.3-1c1.5 0 2.6 0.3 3.4 1s1.2 1.6 1.2 2.7h-1.4c0-0.7-0.3-1.3-0.9-1.8s-1.4-0.8-2.4-0.8c-1 0-1.8 0.2-2.3 0.7s-0.8 1-0.8 1.6c0 0.6 0.2 1.1 0.6 1.5s1.3 0.7 2.7 1c1.5 0.3 2.7 0.8 3.4 1.4s1.1 1.4 1.1 2.4c0 1.1-0.4 1.9-1.3 2.6s-2 1-3.4 1c-1.6 0-2.8-0.4-3.7-1.1s-1.3-1.6-1.3-2.7h1.4c0.1 0.9 0.4 1.6 1.1 2s1.5 0.6 2.5 0.6c1 0 1.8-0.2 2.4-0.7S321.2 405.1 321.2 404.5z"/><path d="M339.3 404.5c0-0.6-0.2-1.1-0.7-1.6s-1.4-0.8-2.7-1.1c-1.5-0.3-2.7-0.8-3.4-1.3s-1.1-1.3-1.1-2.3c0-1 0.4-1.8 1.2-2.5s1.9-1 3.3-1c1.5 0 2.6 0.3 3.4 1s1.2 1.6 1.2 2.7h-1.4c0-0.7-0.3-1.3-0.9-1.8s-1.4-0.8-2.4-0.8c-1 0-1.8 0.2-2.3 0.7s-0.8 1-0.8 1.6c0 0.6 0.2 1.1 0.6 1.5s1.3 0.7 2.7 1c1.5 0.3 2.7 0.8 3.4 1.4s1.1 1.4 1.1 2.4c0 1.1-0.4 1.9-1.3 2.6s-2 1-3.4 1c-1.6 0-2.8-0.4-3.7-1.1s-1.3-1.6-1.3-2.7h1.4c0.1 0.9 0.4 1.6 1.1 2s1.5 0.6 2.5 0.6c1 0 1.8-0.2 2.4-0.7S339.3 405.1 339.3 404.5z"/><path d="M354.1 401.7c0 1.9-0.4 3.4-1.3 4.6s-2 1.7-3.6 1.7c-0.9 0-1.7-0.2-2.3-0.5s-1.2-0.8-1.6-1.4l0 0v6.5h-1.4V395h1.2l0.2 1.9 0 0c0.4-0.7 1-1.2 1.6-1.6s1.4-0.6 2.4-0.6c1.6 0 2.8 0.6 3.6 1.8s1.3 2.8 1.3 4.9V401.7zM352.7 401.5c0-1.6-0.3-3-0.9-4s-1.6-1.5-2.8-1.5c-1 0-1.7 0.2-2.3 0.7s-1 1-1.3 1.8v6.1c0.3 0.7 0.8 1.3 1.4 1.7s1.4 0.6 2.3 0.6c1.3 0 2.2-0.5 2.8-1.4s0.9-2.1 0.9-3.7V401.5z"/><path d="M356.5 401.2c0-1.9 0.5-3.4 1.5-4.6s2.4-1.8 4.1-1.8c1.7 0 3.1 0.6 4.1 1.8s1.5 2.7 1.5 4.6v0.4c0 1.9-0.5 3.5-1.5 4.6s-2.4 1.8-4.1 1.8c-1.7 0-3.1-0.6-4.1-1.8s-1.5-2.7-1.5-4.6V401.2zM357.9 401.6c0 1.5 0.4 2.7 1.1 3.7s1.8 1.5 3.1 1.5c1.3 0 2.4-0.5 3.1-1.5s1.1-2.2 1.1-3.7v-0.4c0-1.5-0.4-2.7-1.1-3.7s-1.8-1.5-3.1-1.5c-1.3 0-2.4 0.5-3.1 1.5s-1.1 2.2-1.1 3.7V401.6z"/><path d="M372.7 391.8v3.2h2.7v1.1h-2.7v8.3c0 0.8 0.1 1.4 0.4 1.8s0.7 0.5 1.1 0.5c0.2 0 0.4 0 0.6 0s0.4-0.1 0.6-0.1l0.2 1.1c-0.2 0.1-0.5 0.2-0.8 0.2s-0.6 0.1-0.9 0.1c-0.9 0-1.5-0.3-2-0.8s-0.7-1.4-0.7-2.7v-8.3h-2.1V395h2.1v-3.2H372.7z"/><path d="M394.3 401.7c0 1.9-0.4 3.4-1.3 4.6s-2 1.7-3.6 1.7c-0.9 0-1.7-0.2-2.4-0.5s-1.2-0.9-1.6-1.6l0 0 -0.2 1.9h-1.2v-18.3h1.4v7.5l0 0c0.4-0.7 0.9-1.2 1.6-1.6s1.4-0.6 2.3-0.6c1.6 0 2.8 0.6 3.6 1.8s1.3 2.8 1.3 4.9V401.7zM392.9 401.5c0-1.6-0.3-3-0.9-4s-1.5-1.5-2.8-1.5c-1 0-1.8 0.2-2.4 0.7s-1 1.1-1.3 1.9v5.7c0.3 0.7 0.8 1.3 1.4 1.8s1.4 0.6 2.3 0.6c1.3 0 2.2-0.4 2.8-1.3s0.9-2.1 0.9-3.7V401.5z"/><path d="M405.5 407.7c-0.1-0.4-0.2-0.8-0.2-1.1s-0.1-0.6-0.1-0.9l0 0c-0.5 0.7-1.1 1.2-1.8 1.6s-1.6 0.6-2.6 0.6c-1.3 0-2.2-0.3-2.9-1s-1-1.5-1-2.6c0-1.2 0.5-2.1 1.5-2.8s2.4-1 4.1-1h2.8v-1.6c0-0.9-0.3-1.6-0.9-2.1s-1.4-0.8-2.5-0.8c-1 0-1.8 0.2-2.4 0.7s-0.9 1.1-0.9 1.8l-1.4 0c0-1 0.5-1.9 1.4-2.6s2.1-1.1 3.5-1.1 2.6 0.3 3.4 1 1.3 1.7 1.3 3.1v6.2c0 0.5 0 0.9 0.1 1.3s0.1 0.8 0.3 1.3H405.5zM400.9 406.7c1 0 1.9-0.2 2.7-0.7s1.3-1.1 1.7-1.8v-2.6h-2.8c-1.3 0-2.3 0.3-3.1 0.8s-1.1 1.2-1.1 2c0 0.7 0.2 1.3 0.7 1.7S400 406.7 400.9 406.7z"/><path d="M415 406.8c1 0 1.8-0.3 2.4-0.8s1-1.2 1.1-2.2h1.3c0 1.2-0.5 2.2-1.5 3s-2.1 1.2-3.4 1.2c-1.8 0-3.1-0.6-4-1.7s-1.4-2.7-1.4-4.6v-0.5c0-1.9 0.5-3.4 1.4-4.6s2.3-1.8 4-1.8c1.4 0 2.6 0.4 3.5 1.2s1.4 1.9 1.4 3.3h-1.3c0-1-0.4-1.8-1.1-2.4S416 396 415 396c-1.4 0-2.4 0.5-3 1.4s-1 2.2-1 3.7v0.5c0 1.5 0.3 2.8 1 3.7S413.6 406.8 415 406.8z"/><path d="M425.8 401.5h-1.6v6.2h-1.4v-18.3h1.4v10.9h1.5l4.7-5.3h1.7l-5.1 5.8 5.6 6.9h-1.7L425.8 401.5z"/></g><g enable-background="new    "><path d="M174.5 433.3c0-0.6-0.2-1.1-0.7-1.6s-1.4-0.8-2.7-1.1c-1.5-0.3-2.7-0.8-3.4-1.3s-1.1-1.3-1.1-2.3c0-1 0.4-1.8 1.2-2.5s1.9-1 3.3-1c1.5 0 2.6 0.3 3.4 1s1.2 1.6 1.2 2.7h-1.4c0-0.7-0.3-1.3-0.9-1.8s-1.4-0.8-2.4-0.8c-1 0-1.8 0.2-2.3 0.7s-0.8 1-0.8 1.6c0 0.6 0.2 1.1 0.6 1.5s1.3 0.7 2.7 1c1.5 0.3 2.7 0.8 3.4 1.4s1.1 1.4 1.1 2.4c0 1.1-0.4 1.9-1.3 2.6s-2 1-3.4 1c-1.6 0-2.8-0.4-3.7-1.1s-1.3-1.6-1.3-2.7h1.4c0.1 0.9 0.4 1.6 1.1 2s1.5 0.6 2.5 0.6c1 0 1.8-0.2 2.4-0.7S174.5 433.9 174.5 433.3z"/><path d="M178.4 430c0-1.9 0.5-3.4 1.5-4.6s2.4-1.8 4.1-1.8c1.7 0 3.1 0.6 4.1 1.8s1.5 2.7 1.5 4.6v0.4c0 1.9-0.5 3.5-1.5 4.6s-2.4 1.8-4.1 1.8c-1.7 0-3.1-0.6-4.1-1.8s-1.5-2.7-1.5-4.6V430zM179.8 430.4c0 1.5 0.4 2.7 1.1 3.7s1.8 1.5 3.1 1.5c1.3 0 2.4-0.5 3.1-1.5s1.1-2.2 1.1-3.7V430c0-1.5-0.4-2.7-1.1-3.7s-1.8-1.5-3.1-1.5c-1.3 0-2.4 0.5-3.1 1.5s-1.1 2.2-1.1 3.7V430.4z"/><path d="M193.7 423.8l0.1 2.2 0 0c0.4-0.8 1-1.4 1.6-1.8s1.5-0.7 2.5-0.7c1 0 1.8 0.2 2.4 0.7s1.1 1.2 1.3 2.1h0c0.4-0.9 0.9-1.5 1.7-2s1.6-0.8 2.6-0.8c1.3 0 2.4 0.4 3.1 1.3s1.1 2.2 1.1 4v7.7h-1.4v-7.7c0-1.5-0.3-2.6-0.8-3.1s-1.3-0.9-2.3-0.9c-1.1 0-2 0.4-2.6 1.2s-1 1.6-1.1 2.5v8h-1.4v-7.8c0-1.4-0.3-2.4-0.8-3s-1.3-0.9-2.3-0.9c-1 0-1.8 0.3-2.4 0.8s-1 1.3-1.3 2.1v8.7h-1.4v-12.7H193.7z"/><path d="M218.7 436.7c-1.7 0-3.1-0.6-4.1-1.7s-1.6-2.6-1.6-4.5v-0.6c0-1.9 0.5-3.4 1.6-4.5s2.3-1.8 3.8-1.8c1.6 0 2.8 0.5 3.7 1.4s1.3 2.3 1.3 4v1.2h-9v0.3c0 1.5 0.4 2.7 1.2 3.6s1.8 1.4 3.1 1.4c0.8 0 1.5-0.1 2-0.3s1.1-0.6 1.7-1.1l0.6 1c-0.5 0.5-1.1 0.9-1.7 1.2S219.7 436.7 218.7 436.7zM218.4 424.8c-1.1 0-1.9 0.4-2.6 1.2s-1.1 1.8-1.3 3.1h7.5v-0.4c0-1.1-0.3-2.1-0.9-2.8S219.5 424.8 218.4 424.8z"/><path d="M234 420.6v3.2h2.7v1.1H234v8.3c0 0.8 0.1 1.4 0.4 1.8s0.7 0.5 1.1 0.5c0.2 0 0.4 0 0.6 0s0.4-0.1 0.6-0.1l0.2 1.1c-0.2 0.1-0.5 0.2-0.8 0.2s-0.6 0.1-0.9 0.1c-0.9 0-1.5-0.3-2-0.8s-0.7-1.4-0.7-2.7V425h-2.1v-1.1h2.1v-3.2H234z"/><path d="M241.2 420.2h-1.4v-2h1.4V420.2zM241.2 436.5h-1.4v-12.7h1.4V436.5z"/><path d="M246.3 423.8l0.1 2.2 0 0c0.4-0.8 1-1.4 1.6-1.8s1.5-0.7 2.5-0.7c1 0 1.8 0.2 2.4 0.7s1.1 1.2 1.3 2.1h0c0.4-0.9 0.9-1.5 1.7-2s1.6-0.8 2.6-0.8c1.3 0 2.4 0.4 3.1 1.3s1.1 2.2 1.1 4v7.7h-1.4v-7.7c0-1.5-0.3-2.6-0.8-3.1s-1.3-0.9-2.3-0.9c-1.1 0-2 0.4-2.6 1.2s-1 1.6-1.1 2.5v8h-1.4v-7.8c0-1.4-0.3-2.4-0.8-3s-1.3-0.9-2.3-0.9c-1 0-1.8 0.3-2.4 0.8s-1 1.3-1.3 2.1v8.7H245v-12.7H246.3z"/><path d="M271.2 436.7c-1.7 0-3.1-0.6-4.1-1.7s-1.6-2.6-1.6-4.5v-0.6c0-1.9 0.5-3.4 1.6-4.5s2.3-1.8 3.8-1.8c1.6 0 2.8 0.5 3.7 1.4s1.3 2.3 1.3 4v1.2h-9v0.3c0 1.5 0.4 2.7 1.2 3.6s1.8 1.4 3.1 1.4c0.8 0 1.5-0.1 2-0.3s1.1-0.6 1.7-1.1l0.6 1c-0.5 0.5-1.1 0.9-1.7 1.2S272.2 436.7 271.2 436.7zM270.9 424.8c-1.1 0-1.9 0.4-2.6 1.2s-1.1 1.8-1.3 3.1h7.5v-0.4c0-1.1-0.3-2.1-0.9-2.8S272.1 424.8 270.9 424.8z"/><path d="M286.1 436.5h-1.4v-18.3h1.4V436.5z"/><path d="M298 436.5c-0.1-0.4-0.2-0.8-0.2-1.1s-0.1-0.6-0.1-0.9l0 0c-0.5 0.7-1.1 1.2-1.8 1.6s-1.6 0.6-2.6 0.6c-1.3 0-2.2-0.3-2.9-1s-1-1.5-1-2.6c0-1.2 0.5-2.1 1.5-2.8s2.4-1 4.1-1h2.8v-1.6c0-0.9-0.3-1.6-0.9-2.1s-1.4-0.8-2.5-0.8c-1 0-1.8 0.2-2.4 0.7s-0.9 1.1-0.9 1.8l-1.4 0c0-1 0.5-1.9 1.4-2.6s2.1-1.1 3.5-1.1 2.6 0.3 3.4 1 1.3 1.7 1.3 3.1v6.2c0 0.5 0 0.9 0.1 1.3s0.1 0.8 0.3 1.3H298zM293.4 435.5c1 0 1.9-0.2 2.7-0.7s1.3-1.1 1.7-1.8v-2.6h-2.8c-1.3 0-2.3 0.3-3.1 0.8s-1.1 1.2-1.1 2c0 0.7 0.2 1.3 0.7 1.7S292.6 435.5 293.4 435.5z"/><path d="M304.9 420.6v3.2h2.7v1.1h-2.7v8.3c0 0.8 0.1 1.4 0.4 1.8s0.7 0.5 1.1 0.5c0.2 0 0.4 0 0.6 0s0.4-0.1 0.6-0.1l0.2 1.1c-0.2 0.1-0.5 0.2-0.8 0.2s-0.6 0.1-0.9 0.1c-0.9 0-1.5-0.3-2-0.8s-0.7-1.4-0.7-2.7V425h-2.1v-1.1h2.1v-3.2H304.9z"/><path d="M315.4 436.7c-1.7 0-3.1-0.6-4.1-1.7s-1.6-2.6-1.6-4.5v-0.6c0-1.9 0.5-3.4 1.6-4.5s2.3-1.8 3.8-1.8c1.6 0 2.8 0.5 3.7 1.4s1.3 2.3 1.3 4v1.2h-9v0.3c0 1.5 0.4 2.7 1.2 3.6s1.8 1.4 3.1 1.4c0.8 0 1.5-0.1 2-0.3s1.1-0.6 1.7-1.1l0.6 1c-0.5 0.5-1.1 0.9-1.7 1.2S316.4 436.7 315.4 436.7zM315.1 424.8c-1.1 0-1.9 0.4-2.6 1.2s-1.1 1.8-1.3 3.1h7.5v-0.4c0-1.1-0.3-2.1-0.9-2.8S316.2 424.8 315.1 424.8z"/><path d="M328.7 425l-1-0.1c-0.9 0-1.6 0.2-2.2 0.7s-1 1.2-1.2 2.1v8.8h-1.4v-12.7h1.2l0.2 2.1v0.1l0 0c0.4-0.8 0.8-1.4 1.4-1.8s1.3-0.6 2.2-0.6c0.2 0 0.4 0 0.5 0s0.3 0.1 0.4 0.1L328.7 425z"/><path d="M331.3 436.5h-1.6v-1.9h1.6V436.5z"/></g></svg>